<svg width="4598" height="2013" viewBox="0 0 4598 2013" fill="none" xmlns="http://www.w3.org/2000/svg">
<g clip-path="url(#clip0_502_530)">
<path d="M693.285 1804.82C693.285 1804.82 714.385 1413.45 400.416 1207.17C177.644 1060.8 76.816 625.039 344.723 433.213C680.082 193.087 905.495 466.477 1183 356.704C1460.51 246.931 1613.85 -85.714 2255.28 20.732C2896.71 127.178 2926.11 475.348 3659.04 220.32C4130.3 56.339 4549.42 704.873 4278.76 1035.3C4011.03 1362.16 4126.09 1804.82 4126.09 1804.82H693.285Z" fill="url(#paint0_linear_502_530)"/>
<path d="M249.305 2012.8C352.35 2012.8 435.885 2003.97 435.885 1993.08C435.885 1982.2 352.35 1973.37 249.305 1973.37C146.26 1973.37 62.725 1982.2 62.725 1993.08C62.725 2003.97 146.26 2012.8 249.305 2012.8Z" fill="#DAEEF9"/>
<path d="M36.637 1083.91C-61.115 1215.49 49.965 1474.69 213.804 1489.7C114.637 1285.27 26.206 1309.21 36.637 1083.91Z" fill="#90C9E5"/>
<path d="M36.637 1083.91C94.4319 1226.08 307.474 1336.44 213.804 1489.7C114.637 1285.27 26.206 1309.21 36.637 1083.91Z" fill="#B7DCF6"/>
<path d="M454.283 1359.82C484.401 1468.38 349.025 1607.1 240.254 1576.18C354.437 1469.63 405.215 1506.87 454.283 1359.82Z" fill="#B7DCF6"/>
<path d="M454.195 1360.92C381.952 1437.77 218.032 1455.82 240.166 1577.27C354.351 1470.73 405.127 1507.96 454.195 1360.92Z" fill="#90C9E5"/>
<path d="M32.948 1467.29C136.248 1506.72 147.102 1603.7 242.885 1649.29C108.888 1652.94 108.707 1575.43 32.948 1467.29Z" fill="#90C9E5"/>
<path d="M32.948 1467.29C33.912 1589.17 113.376 1721.34 242.885 1649.29C108.888 1652.94 108.707 1575.43 32.948 1467.29Z" fill="#B7DCF6"/>
<path d="M240.48 1755.9L240.713 1753.93L240.93 1751.87C241.069 1750.5 241.207 1749.12 241.317 1747.72C241.57 1744.95 241.754 1742.15 241.947 1739.36C242.14 1736.57 242.258 1733.76 242.417 1730.96L242.737 1722.54C243.067 1711.29 243.037 1700.02 242.806 1688.75C242.206 1666.2 240.546 1643.69 237.825 1621.22C232.433 1576.26 223.023 1531.88 209.707 1488.6L207.193 1480.49L205.936 1476.43C205.509 1475.08 205.027 1473.75 204.576 1472.41L199.067 1456.33C198.189 1453.63 197.109 1451.01 196.133 1448.35L193.133 1440.4L190.133 1432.45L186.893 1424.59C184.713 1419.35 182.586 1414.1 180.363 1408.88L173.353 1393.38C172.163 1390.81 171.062 1388.19 169.8 1385.65L166.037 1378.01C163.507 1372.94 161.065 1367.81 158.462 1362.77C137.447 1322.44 113 1284 85.392 1247.86C113.927 1283.4 139.352 1321.32 161.383 1361.21C164.119 1366.21 166.697 1371.3 169.362 1376.34L173.329 1383.92C174.66 1386.44 175.829 1389.04 177.088 1391.6L184.515 1407.01C186.878 1412.2 189.146 1417.44 191.467 1422.65L194.92 1430.49L198.134 1438.42L201.349 1446.35C202.397 1449.01 203.549 1451.62 204.499 1454.32L210.442 1470.38C210.93 1471.72 211.449 1473.05 211.912 1474.4L213.278 1478.46L216.011 1486.58C230.525 1529.99 241.12 1574.62 247.669 1619.92C250.95 1642.58 253.188 1665.38 254.382 1688.32C254.897 1699.78 255.205 1711.26 255.146 1722.76L255.028 1731.39C254.935 1734.27 254.877 1737.15 254.755 1740.03C254.633 1742.92 254.505 1745.8 254.312 1748.7C254.233 1750.14 254.124 1751.6 254.012 1753.05L253.834 1755.24L253.621 1757.51L240.48 1755.9Z" fill="#66A6C6"/>
<path d="M387.927 1903.46C376.775 1941.11 354.882 1976.23 313.881 1994.94H191.472C150.472 1976.23 128.586 1941.1 117.434 1903.46C96.9499 1834.33 112.665 1756.71 112.665 1756.71H392.704C392.704 1756.71 408.411 1834.33 387.927 1903.46Z" fill="#B7DCF6"/>
<path d="M238.737 1574.29C256.237 1566.07 273.568 1557.22 290.637 1548.01C307.708 1538.77 324.545 1529.09 340.953 1518.72C357.33 1508.32 373.37 1497.31 388.179 1484.78C395.638 1478.58 402.546 1471.74 408.826 1464.35C411.943 1460.64 414.709 1456.64 417.089 1452.42C419.514 1448.2 421.109 1443.55 421.789 1438.74C421.241 1443.6 419.77 1448.3 417.454 1452.61C415.178 1456.93 412.505 1461.04 409.471 1464.87C403.361 1472.49 396.602 1479.57 389.271 1486.02C374.728 1499.06 358.921 1510.58 342.764 1521.49C326.576 1532.38 309.943 1542.58 293.064 1552.34C276.157 1562.09 259.076 1571.43 241.595 1580.26L238.737 1574.29Z" fill="#66A6C6"/>
<path d="M243.372 1652.56C240.596 1652.9 238.024 1653.08 235.362 1653.22C234.042 1653.3 232.723 1653.36 231.405 1653.39C230.087 1653.42 228.769 1653.47 227.452 1653.47C222.183 1653.55 216.923 1653.36 211.678 1653.02C201.189 1652.33 190.769 1650.83 180.507 1648.55C159.936 1644.09 140.369 1635.85 122.794 1624.27C114.136 1618.36 106.106 1611.59 98.829 1604.05L93.508 1598.29L88.6 1592.19C87.805 1591.16 86.922 1590.19 86.2 1589.1L83.975 1585.88L81.753 1582.66C81.014 1581.59 80.247 1580.54 79.617 1579.39C68.7984 1561.6 60.8706 1542.2 56.129 1521.92C61.3803 1541.97 69.7768 1561.07 81.006 1578.5C81.659 1579.61 82.447 1580.63 83.206 1581.67L85.487 1584.8L87.766 1587.92C88.506 1588.97 89.405 1589.9 90.216 1590.9L95.211 1596.79L100.596 1602.31C107.924 1609.51 115.97 1615.94 124.608 1621.5C142.05 1632.35 161.347 1639.88 181.527 1643.7C191.575 1645.66 201.757 1646.84 211.985 1647.25C217.092 1647.44 222.207 1647.48 227.304 1647.28C228.579 1647.25 229.851 1647.17 231.122 1647.09C232.393 1647.02 233.663 1646.94 234.929 1646.83C237.44 1646.63 240.036 1646.37 242.399 1646.02L243.372 1652.56Z" fill="#66A6C6"/>
<path d="M191.472 1994.94C150.472 1976.23 128.586 1941.1 117.434 1903.46C96.9499 1834.33 112.665 1756.71 112.665 1756.71H165.229C165.229 1756.71 86.423 1856.7 191.472 1994.94Z" fill="#7DAECC"/>
<path d="M4544.03 1993.24C4544.03 2004.78 4470.91 2008.6 4380.71 2008.6C4290.51 2008.6 4217.39 2004.78 4217.39 1993.24C4217.39 1981.69 4290.51 1978.29 4380.71 1978.29C4470.91 1978.29 4544.03 1981.69 4544.03 1993.24Z" fill="#DAEEF9"/>
<path d="M4585.05 1624.92C4572.3 1642.3 4554.28 1655.94 4551.57 1657.95C4547.48 1660.97 4543.22 1663.75 4538.81 1666.27C4538.62 1666.38 4538.44 1666.49 4538.25 1666.59C4529.69 1671.42 4520.62 1675.29 4511.21 1678.12C4505.39 1679.9 4499.47 1681.29 4493.47 1682.3C4488.7 1683.12 4484.47 1683.59 4480.93 1683.9H4229.4C4226.08 1683.9 4222.83 1682.95 4220.04 1681.17C4217.24 1679.38 4215.02 1676.83 4213.63 1673.82C4205.3 1655.77 4199.13 1636.8 4195.25 1617.31V1617.29C4193.03 1605.97 4191.64 1594.5 4191.11 1582.97C4189.62 1550.23 4188.24 1519.68 4209.86 1500.78C4226.87 1485.92 4255.05 1480.97 4274.73 1490.7C4294.96 1500.7 4299.24 1522.74 4305.01 1520.98C4311.78 1518.9 4312.39 1486.74 4302.13 1454.65C4289.29 1414.49 4270.11 1407.86 4271.85 1382.55C4273.31 1361.21 4288.95 1336.86 4306.45 1334.98C4332.27 1332.21 4345.02 1380.15 4374.22 1378.23C4390.36 1377.17 4401.58 1361.52 4410.26 1349.39C4415.71 1341.83 4420.11 1333.55 4423.32 1324.8C4429.24 1308.68 4430.08 1294.24 4432.27 1283.23C4434.03 1274.43 4436.63 1267.83 4443.42 1264.33C4445.88 1263.09 4448.54 1262.31 4451.28 1262.04C4458.78 1261.17 4467.69 1263.16 4476.03 1267.2C4487.99 1272.97 4498.76 1282.91 4502.54 1294.61C4506.8 1307.81 4501.74 1321.97 4494.52 1334.91C4491.37 1340.57 4487.8 1345.99 4484.43 1351C4475.81 1363.79 4468.43 1373.88 4472.26 1378.23C4475.69 1382.12 4484.65 1377.55 4496.21 1372.13C4511.45 1364.99 4531.18 1356.39 4548.68 1363.81C4551.98 1365.24 4555.08 1367.11 4557.9 1369.37C4560.13 1371.15 4562.21 1373.11 4564.12 1375.24C4573.09 1385.17 4578.8 1398.65 4578.6 1409.62C4578.62 1413.25 4577.76 1416.83 4576.07 1420.05C4563.51 1442.66 4507.38 1422.18 4474.88 1449.31C4472.92 1450.96 4471.08 1452.74 4469.38 1454.65C4461.9 1463.05 4463.3 1466.88 4463.61 1467.63C4464.29 1469.23 4465.77 1470.21 4467.9 1470.75C4471.31 1471.64 4476.38 1471.4 4482.34 1470.73C4485.53 1470.38 4488.96 1469.91 4492.54 1469.42C4511.14 1466.92 4533.66 1464.15 4544.36 1476.28C4545 1477 4545.59 1477.77 4546.12 1478.58C4553.7 1489.86 4552.52 1509.31 4544.36 1520.98C4536.1 1532.78 4522.54 1534.02 4508.31 1541.15C4500.54 1544.97 4493.67 1550.37 4488.13 1557.02C4486.49 1558.96 4479.16 1567.66 4480.72 1571.09C4480.77 1571.21 4480.84 1571.33 4480.92 1571.44C4481.77 1572.61 4483.68 1572.44 4486.45 1571.44C4489.87 1570.22 4494.62 1567.77 4500.39 1565.06C4500.46 1565.03 4500.52 1565.01 4500.57 1564.98C4502.95 1563.87 4505.5 1562.71 4508.2 1561.59C4508.22 1561.58 4508.24 1561.57 4508.26 1561.56C4520.33 1556.53 4535.39 1552.04 4551.56 1554.14C4567.48 1556.2 4589.99 1565.37 4596.26 1582.98C4601.2 1596.85 4594.6 1611.93 4585.05 1624.92Z" fill="#8DBFE2"/>
<path d="M4529.87 1694.93L4515.68 1752.23C4515.65 1752.32 4515.64 1752.41 4515.61 1752.5L4510.58 1772.8L4477.94 1904.45L4477.92 1904.51L4457.17 1988.25C4456.44 1991.18 4454.75 1993.79 4452.37 1995.66C4449.99 1997.52 4447.05 1998.53 4444.02 1998.53H4303.65C4300.62 1998.53 4297.68 1997.52 4295.3 1995.66C4292.92 1993.79 4291.23 1991.18 4290.5 1988.25L4217.8 1694.93C4217.3 1692.94 4217.27 1690.85 4217.7 1688.84C4218.13 1686.83 4219.01 1684.94 4220.28 1683.32C4221.54 1681.7 4223.16 1680.39 4225.01 1679.49C4226.86 1678.59 4228.89 1678.12 4230.95 1678.12H4516.72C4518.78 1678.12 4520.81 1678.59 4522.66 1679.49C4524.51 1680.39 4526.13 1681.7 4527.4 1683.32C4528.67 1684.94 4529.55 1686.83 4529.98 1688.84C4530.41 1690.85 4530.37 1692.94 4529.87 1694.93V1694.93Z" fill="#B7DCF6"/>
<path d="M4442.21 1743.67H4241.36C4237.71 1743.67 4234.21 1742.22 4231.63 1739.64C4229.05 1737.07 4227.61 1733.57 4227.61 1729.92C4227.61 1726.28 4229.05 1722.78 4231.63 1720.2C4234.21 1717.62 4237.71 1716.17 4241.36 1716.17H4442.21C4445.86 1716.17 4449.36 1717.62 4451.94 1720.2C4454.51 1722.78 4455.96 1726.28 4455.96 1729.92C4455.96 1733.57 4454.51 1737.07 4451.94 1739.64C4449.36 1742.22 4445.86 1743.67 4442.21 1743.67V1743.67Z" fill="#9BCCEA"/>
<path d="M4544.36 1476.28C4545 1477 4545.59 1477.77 4546.12 1478.58C4545.14 1477.95 4544.19 1477.27 4543.3 1476.53C4532.93 1467.75 4518.57 1476.53 4501.83 1476.53C4493.83 1476.53 4492.11 1473.43 4492.54 1469.41C4511.15 1466.92 4533.66 1464.15 4544.36 1476.28Z" fill="#72ABCE"/>
<path d="M4494.52 1334.91C4495.21 1320.39 4494.27 1288.35 4486 1279.01C4485.7 1278.68 4485.4 1278.36 4485.1 1278.02C4483.5 1276.32 4480.27 1272.25 4476.04 1267.2C4487.99 1272.97 4498.76 1282.92 4502.54 1294.61C4506.8 1307.81 4501.74 1321.97 4494.52 1334.91Z" fill="#72ABCE"/>
<path d="M4496.21 1372.13C4511.45 1364.99 4531.18 1356.39 4548.68 1363.81C4551.99 1365.24 4555.09 1367.11 4557.9 1369.36C4549.13 1363.95 4533.82 1362.25 4511.77 1369.79C4506.79 1371.59 4501.5 1372.38 4496.21 1372.13V1372.13Z" fill="#72ABCE"/>
<path d="M4271.96 1502.9C4285.44 1520.44 4300.13 1544.58 4324.6 1551.99C4321.73 1552.21 4318.73 1552.32 4315.66 1552.47C4306.51 1552.89 4292.59 1536.23 4269.26 1518.16C4257.89 1509.34 4245.56 1512.62 4241.36 1522.51C4243.16 1515.71 4246.13 1509.27 4250.14 1503.49C4251.35 1501.74 4252.95 1500.3 4254.82 1499.29C4256.69 1498.28 4258.78 1497.72 4260.9 1497.67C4263.03 1497.61 4265.13 1498.05 4267.06 1498.96C4268.98 1499.87 4270.66 1501.22 4271.96 1502.9V1502.9Z" fill="#72ABCE"/>
<path d="M4361.24 1414.9C4350.18 1395.74 4338.78 1369.88 4315.5 1359.33C4318.38 1359.48 4321.37 1359.77 4324.43 1360.03C4333.56 1360.81 4345.17 1379.16 4365.93 1400.13C4376.05 1410.36 4388.7 1408.73 4394.16 1399.48C4391.49 1405.99 4387.7 1411.98 4382.96 1417.18C4381.53 1418.75 4379.75 1419.97 4377.76 1420.73C4375.78 1421.49 4373.64 1421.77 4371.52 1421.55C4369.41 1421.32 4367.38 1420.61 4365.59 1419.45C4363.8 1418.3 4362.32 1416.74 4361.24 1414.9V1414.9Z" fill="#72ABCE"/>
<path d="M4500.39 1565.06H4500.33C4500.41 1565.03 4500.5 1565.01 4500.57 1564.97C4502.66 1564.21 4505.22 1563.01 4508.2 1561.59C4508.22 1561.58 4508.24 1561.57 4508.26 1561.56C4520.33 1556.53 4535.39 1552.04 4551.56 1554.14C4567.48 1556.2 4589.99 1565.37 4596.26 1582.97C4601.2 1596.85 4594.6 1611.93 4585.05 1624.92C4583.11 1619.67 4582.95 1614.34 4585.71 1609.05C4612.09 1558.64 4521.28 1565.18 4500.39 1565.06Z" fill="#72ABCE"/>
<path d="M4477.93 1904.51L4457.18 1988.25C4456.45 1991.18 4454.76 1993.79 4452.37 1995.66C4449.99 1997.52 4447.05 1998.53 4444.02 1998.53H4409.68C4452.59 1991.24 4477.17 1907.13 4477.93 1904.51Z" fill="#9ECAE5"/>
<path d="M4529.88 1694.93L4515.68 1752.23C4531 1689.88 4488.82 1679.53 4467.94 1678.12H4516.73C4518.79 1678.12 4520.82 1678.59 4522.67 1679.49C4524.51 1680.39 4526.13 1681.7 4527.4 1683.32C4528.67 1684.94 4529.55 1686.83 4529.98 1688.84C4530.41 1690.85 4530.37 1692.94 4529.88 1694.93L4529.88 1694.93Z" fill="#9ECAE5"/>
<path d="M3810.86 1851.79V1904.3L3848.66 1912.7C3850.06 1888.19 3851.46 1863.69 3852.86 1839.18L3810.86 1851.79Z" fill="#A36B62"/>
<path d="M3997.79 1860.19C3997.09 1878.39 3996.39 1896.6 3995.69 1914.8C3993.83 1916.54 3983.59 1925.75 3969.06 1924.48C3963.56 1923.96 3958.27 1922.08 3953.68 1919C3952.98 1897.3 3952.28 1875.59 3951.58 1853.89L3997.79 1860.19Z" fill="#A36B62"/>
<path d="M4009.69 1248.53C4011.71 1268.86 4013.91 1297.53 4014.42 1331.94C4015.16 1382 4011.94 1419.44 4008.12 1462.5C4005.12 1496.34 4000.34 1540.15 3992.37 1591.25C4006.07 1649.11 4007.75 1694.23 4006.54 1725.43C4006.04 1738.42 4004.99 1750.43 4003.39 1783.46C4001.58 1821.05 4000.7 1851.82 4000.24 1872.31C3992.07 1874.77 3983.58 1875.99 3975.04 1875.94C3961.92 1875.78 3949.01 1872.68 3937.24 1866.87C3926.9 1758.73 3918.05 1684.97 3911.68 1636.5C3910.6 1628.24 3909.18 1617.63 3907.31 1602.13C3898.66 1530.28 3894.74 1472.58 3892.78 1434.86C3881.71 1477.13 3874.97 1520.41 3872.66 1564.05C3870.01 1614.25 3874.46 1642.51 3875.81 1685.54C3877.18 1729.33 3875.48 1792.97 3860.06 1872.31C3850.64 1873.4 3841.12 1873.4 3831.7 1872.31C3821.47 1871.12 3811.42 1868.69 3801.77 1865.06C3800.84 1846.24 3799.31 1817.22 3797.05 1781.65C3794.43 1740.56 3792.77 1721.23 3790.75 1690.98C3790.75 1690.98 3786.92 1633.81 3784.45 1567.68C3780.02 1449.23 3788.44 1292.96 3790.75 1252.16L4009.69 1248.53Z" fill="#1C386F"/>
<path d="M3997.09 1905.4C4004.02 1908.31 4002.7 1926.42 4001.82 1938.48C4000.62 1954.86 3999.95 1964.08 3994.57 1971.75C3986.31 1983.52 3972.52 1983.69 3932.29 1987.51C3868.72 1993.54 3851.21 1998.05 3843.74 1986.76C3839.76 1980.74 3839.54 1971.59 3842.99 1964.99C3853.77 1944.41 3892.29 1964.02 3921.78 1939.48C3936 1927.65 3943.37 1909.52 3954.56 1911.7C3959.39 1912.64 3959.7 1916.35 3965.31 1917.72C3978.94 1921.07 3989.35 1902.15 3997.09 1905.4Z" fill="#152243"/>
<path d="M4032.45 1276.84C4034.16 1287.54 4007.37 1303.24 3987.29 1309.49C3967.15 1315.74 3954.47 1312.26 3887.52 1307.07C3864.65 1305.3 3853.22 1304.41 3852 1304.67C3768.75 1322.38 3821.89 1897.44 3806.98 1898.96C3801.4 1899.53 3785.45 1819.84 3775.46 1718.87C3762.76 1590.77 3763.01 1461.72 3776.2 1333.66C3778.3 1309.49 3780.4 1285.31 3782.5 1261.13C3983.5 1252.08 4030.32 1263.59 4032.45 1276.84Z" fill="#1D2355"/>
<path d="M3893.64 1424.73C3901.35 1455.1 3907.14 1499.42 3911.66 1553.1C3917.35 1620.65 3927.86 1657.41 3935.12 1710.95C3940.59 1751.27 3951.9 1819.74 3962.12 1890.58C3948.91 1887.25 3931.34 1880.5 3918.22 1865.26C3892.57 1835.46 3904.73 1797.37 3906.4 1738.64C3907.01 1717.35 3906.03 1701.43 3904.2 1687.85C3900.09 1657.36 3894.32 1646.09 3889.92 1617.81C3888.56 1609.11 3886.75 1594.9 3886.89 1555.29C3887 1523.81 3888.33 1479.62 3893.64 1424.73Z" fill="#1D2355"/>
<path d="M3913.61 889.382L3943.54 894.108C3963.49 984.42 3983.44 1074.73 4003.39 1165.05C4008.12 1197.08 4012.85 1229.1 4017.57 1261.13C3967.61 1285.85 3931.26 1271.5 3908.88 1280.03C3821.28 1313.43 3803.95 1275.98 3786.01 1284.76C3779.71 1222.8 3773.41 1160.84 3767.11 1098.88L3768.69 916.158L3841.15 889.379L3913.61 889.382Z" fill="#FFF6DE"/>
<path d="M3867.92 930.338C3892.19 929.812 3910.61 911.477 3915.18 894.108C3919.08 879.308 3911.31 871.008 3907.47 848.846C3903.33 824.902 3907.03 803.659 3911.67 787.935L3833.27 821.648C3835.62 831.424 3839.63 854.506 3828.54 878.356C3825.64 884.587 3821.93 890.412 3817.52 895.683C3826.85 917.048 3846.86 930.794 3867.92 930.338Z" fill="url(#paint1_linear_502_530)"/>
<path d="M3908.52 772.302C3901.23 771.302 3902.68 744.046 3893.16 741.502C3887.43 739.971 3882.92 748.78 3876.38 746.687C3871.53 745.139 3872.26 739.763 3866.59 735.311C3865.12 734.158 3861.63 731.816 3845.14 731.738C3830.15 731.667 3822.66 731.632 3817.96 735.087C3810.31 740.703 3808.73 750.399 3807.68 756.859C3806.45 764.409 3807.05 770.917 3810.76 786.778C3816.26 810.278 3819.02 822.023 3824.58 829.956C3828.95 836.181 3838.02 849.124 3853.4 851.339C3863.82 852.839 3872.11 848.691 3878.2 845.639C3882.21 843.632 3898.23 835.011 3905.53 815.939C3907.65 810.374 3908.83 804.497 3909.03 798.545C3918.3 795.919 3925.09 789.467 3926.13 781.838C3927.07 775.019 3923.49 766.676 3919.06 766.01C3914.64 765.344 3912.4 772.838 3908.52 772.302Z" fill="#A36B62"/>
<path d="M4024.73 997.945C4027.19 1090.4 4016.34 1215.15 4022.25 1266.48C4002.38 1272.83 3994.96 1269.87 3961.31 1270.94C3936.28 1271.73 3911.24 1269.37 3886.79 1263.91C3885.93 1221.67 3886.51 1154.32 3889.05 1107.25C3893.18 1031.08 3902.14 955.257 3915.86 880.227L3936.9 887.039C4032.58 917.046 4024.11 974.91 4024.73 997.945Z" fill="#F8B372"/>
<path d="M3767.11 1292.65C3768.66 1293.05 3770.28 1293.06 3771.84 1292.69C3787.98 1288.67 3803.04 1281.14 3815.94 1270.64C3816.42 1205.69 3815.4 1134.54 3814.36 1098.81C3813.28 1061.15 3811.88 1031.34 3812.79 986.975C3813.59 948.02 3824.89 902.845 3826.6 882.206C3820.51 882.106 3804.44 887.206 3786.65 895.597C3730.85 944.986 3754.01 1082.83 3761.62 1153.91C3768.73 1220.26 3767.11 1292.65 3767.11 1292.65Z" fill="#F8B372"/>
<path d="M3852.14 1894.25C3858.7 1897.01 3857.45 1914.17 3856.61 1925.59C3855.48 1941.12 3854.84 1949.85 3849.75 1957.12C3841.92 1968.27 3828.85 1968.43 3790.73 1972.05C3730.49 1977.76 3713.9 1982.04 3706.83 1971.34C3703.06 1965.64 3702.84 1956.97 3706.12 1950.72C3716.33 1931.22 3752.83 1949.79 3780.78 1926.54C3794.25 1915.33 3801.23 1898.15 3811.84 1900.22C3816.41 1901.11 3816.71 1904.62 3822.02 1905.92C3834.94 1909.09 3844.81 1891.16 3852.14 1894.25Z" fill="#152243"/>
<path d="M3907.61 816.316C3911.17 821.352 3918.35 822.451 3923.5 821.05C3930.14 819.243 3935.23 812.969 3936.31 804.979C3942.11 809.816 3950.19 810.179 3955.72 806.155C3962.43 801.269 3961.78 792.535 3961.74 792.101C3965.28 793.032 3969.03 792.798 3972.43 791.435C3975.84 790.071 3978.71 787.65 3980.63 784.529C3982.55 781.408 3983.42 777.751 3983.1 774.1C3982.79 770.449 3981.3 766.996 3978.88 764.251C3987.6 758.512 3990 747.426 3985.41 739.996C3981.88 734.281 3974.54 731.264 3967.1 732.582C3970.01 729.916 3972.1 726.474 3973.11 722.66C3974.13 718.847 3974.04 714.822 3972.84 711.06C3971.65 707.299 3969.4 703.958 3966.37 701.431C3963.33 698.905 3959.64 697.3 3955.73 696.804C3958.15 692.076 3958.26 686.59 3955.65 682.639C3951.86 676.889 3942.65 674.888 3934.95 679.629C3935.57 670.624 3929.32 662.77 3921.12 661.429C3917.5 660.922 3913.82 661.594 3910.61 663.345C3907.41 665.096 3904.85 667.834 3903.32 671.152C3902.89 664.043 3898.82 657.845 3892.9 655.483C3884.92 652.296 3874.51 656.45 3870.15 665.939C3868.36 662.515 3865.43 659.827 3861.86 658.345C3858.3 656.862 3854.32 656.68 3850.63 657.828C3846.95 658.977 3843.78 661.385 3841.69 664.631C3839.59 667.877 3838.7 671.755 3839.18 675.588C3836.59 674.163 3833.63 673.588 3830.7 673.943C3827.77 674.298 3825.03 675.566 3822.86 677.567C3820.69 679.568 3819.21 682.201 3818.62 685.093C3818.03 687.984 3818.37 690.987 3819.58 693.677C3808.03 687.834 3795.78 691.986 3792.13 699.766C3788.58 707.331 3794.24 716.031 3794.62 716.61C3787.46 719.366 3783.12 726.391 3783.94 733.378C3784.33 736.189 3785.46 738.847 3787.22 741.078C3788.97 743.31 3791.29 745.035 3793.92 746.078C3788.27 749.958 3785.19 756.403 3786.22 762.406C3787.61 770.534 3796.36 776.981 3806.4 775.618C3805.79 776.608 3802.09 782.782 3804.34 789.085C3805.03 791.272 3806.37 793.193 3808.2 794.585C3809.67 795.657 3811.4 796.332 3813.21 796.543C3812.6 794.116 3811.76 790.638 3810.87 786.427C3810.66 785.457 3809.19 778.517 3808.57 774.281C3807.51 766.536 3807.59 758.675 3808.83 750.955C3810.61 752.44 3812.9 753.188 3815.21 753.047C3819.71 752.53 3823.78 747.547 3824.01 740.777C3826.85 741.399 3829.8 741.252 3832.57 740.352C3836.37 739.043 3839.57 736.413 3841.59 732.94C3841.78 734.426 3842.64 739.872 3847.17 743.252C3852.69 747.377 3861.47 746.777 3868.12 741.162C3871.12 744.4 3875.02 746.66 3879.32 747.649C3883.62 748.637 3888.12 748.308 3892.23 746.704C3891.79 753.491 3893.14 760.275 3896.16 766.373C3897.78 769.587 3900.58 775.116 3904.56 775.254C3907.65 775.361 3908.39 772.098 3913.03 770.961C3916.42 770.132 3921.37 770.561 3923.53 773.461C3926.88 777.94 3922.05 785.992 3921.48 786.928C3917.29 793.739 3912.7 792.523 3908.79 798.679C3906.15 802.836 3903.62 810.675 3907.61 816.316Z" fill="#1B2037"/>
<path d="M4212.52 951.546C4212.52 951.546 4202.58 904.196 4170.2 930.346C4170.2 930.346 4107.17 991.475 4095.64 993.446C4068.27 998.12 3988.61 908.11 3984.87 909.355C3982.51 910.143 3980.22 942.535 3987.69 994.841C3993.88 1038.15 4073.66 1083.83 4089.23 1083.83C4108.82 1083.83 4170.15 1037.28 4212.52 951.546Z" fill="#F8B372"/>
<path d="M4206.34 949.81C4206.34 949.81 4232.14 916.544 4281.08 922.344C4330.02 928.144 4282.19 864.626 4231.63 901.116C4233.75 897.034 4236.35 893.217 4239.37 889.745C4244.25 884.189 4233.05 870.217 4214.99 892.16C4196.94 914.103 4190.23 924.988 4183.44 927.618C4176.65 930.248 4206.34 949.81 4206.34 949.81Z" fill="#B8796E"/>
<path d="M3561.07 918.753C3561.07 918.753 3539.01 882.896 3489.73 883.377C3440.45 883.858 3494.85 825.877 3541.18 867.612C3539.52 863.324 3537.35 859.25 3534.72 855.473C3530.46 849.422 3543.1 836.741 3558.69 860.505C3574.27 884.269 3585.26 900.435 3591.73 903.783C3598.19 907.131 3561.07 918.753 3561.07 918.753Z" fill="#B8796E"/>
<path d="M3551.37 914.302C3551.37 914.302 3566.38 868.302 3595.74 897.802C3595.74 897.802 3651.8 965.379 3663.05 968.58C3689.75 976.18 3784.72 892.955 3788.3 894.597C3790.56 895.635 3783.29 930.427 3770.21 981.621C3759.38 1024.01 3675.14 1060.81 3659.66 1059.13C3640.18 1057.01 3584.24 1004.11 3551.37 914.302Z" fill="#F8B372"/>
<path d="M3842.04 552.464C3843.01 560.046 3837.52 566.009 3830.78 567.227C3824.81 568.307 3816.61 565.813 3814.87 556.184C3813.09 546.362 3819.4 535.077 3825.05 526.698C3829.59 519.911 3837.55 508.926 3835.46 497.37C3833.82 488.319 3826.46 481.695 3813.36 484.062C3809.12 484.828 3803.1 486.713 3798.7 489.895C3795 492.552 3792.9 496.313 3787.7 497.253C3781.54 498.367 3773.96 494.964 3772.67 487.839C3770.13 473.779 3795.05 463.108 3811.04 460.218C3837.42 455.448 3857.68 468.493 3862.07 492.759C3864.82 507.972 3859.8 519.818 3853.15 530.367C3848.05 538.449 3845.3 541.93 3842.5 546.216C3841.56 547.58 3841.73 550.732 3842.04 552.464ZM3836.82 601.736C3827.97 603.336 3819.59 597.692 3818.12 589.603C3816.66 581.514 3822.57 573.486 3831.42 571.885C3840.28 570.284 3848.82 575.7 3850.28 583.785C3851.74 591.87 3845.69 600.135 3836.83 601.736H3836.82Z" fill="#4787B5"/>
<path d="M3704.79 634.33C3706.4 636.42 3707.14 639.053 3706.85 641.677C3706.56 644.301 3705.26 646.709 3703.23 648.395C3699.75 651.445 3693.41 653.036 3688.49 647.428C3683.47 641.706 3683.17 631.853 3683.57 624.162C3683.87 617.943 3684.76 607.64 3678.86 600.909C3674.23 595.636 3666.82 594.198 3659.19 600.887C3656.13 603.535 3653.64 606.792 3651.9 610.452C3650.53 613.639 3650.63 616.924 3647.6 619.579C3644.01 622.727 3637.73 623.479 3634.09 619.327C3626.91 611.137 3639 594.381 3648.31 586.217C3663.68 572.741 3682.04 573.317 3694.44 587.448C3702.21 596.31 3703.58 606.022 3703.38 615.524C3703.22 622.809 3702.78 626.163 3702.63 630.066C3702.55 631.329 3703.9 633.321 3704.79 634.33ZM3720.72 668.576C3715.56 673.1 3707.87 672.701 3703.74 667.989C3699.61 663.277 3700.32 655.712 3705.48 651.189C3710.64 646.666 3718.34 646.852 3722.48 651.564C3726.61 656.276 3725.88 664.051 3720.72 668.576Z" fill="#4787B5"/>
<path d="M3962.58 614.938C3956.33 612.104 3953.52 604.932 3956.11 599.225C3958.69 593.518 3965.88 591.042 3972.13 593.876C3978.38 596.71 3981.39 603.807 3978.8 609.514C3976.21 615.221 3968.83 617.772 3962.58 614.938ZM3987.2 586.293C3985.96 588.624 3983.87 590.383 3981.36 591.201C3978.85 592.018 3976.12 591.831 3973.74 590.677C3969.53 588.766 3965.46 583.645 3968.54 576.851C3971.69 569.921 3980.53 565.579 3987.71 562.769C3993.5 560.479 4003.25 557.037 4006.94 548.884C4009.84 542.498 4008.09 535.152 3998.85 530.963C3995.17 529.261 3991.18 528.343 3987.13 528.269C3983.66 528.335 3980.71 529.782 3977.04 528.118C3972.69 526.147 3969.42 520.729 3971.7 515.701C3976.2 505.782 3996.45 509.886 4007.73 515.001C4026.34 523.442 4033.4 540.401 4025.64 557.523C4020.77 568.259 4012.49 573.514 4003.75 577.251C3997.05 580.11 3993.81 581.101 3990.2 582.574C3989.01 583.018 3987.75 585.07 3987.2 586.293V586.293Z" fill="#4787B5"/>
<path d="M3864.67 823.069C3864.67 823.069 3845.23 827.59 3832.13 822.326C3832.14 822.326 3845.68 856.108 3864.67 823.069Z" fill="white"/>
<path d="M2775.08 714.275L2775.71 714.353C2791.97 716.376 2806.86 728.221 2813.18 743.853C2815.61 749.84 2818.27 755.736 2821.16 761.542C2828.8 776.842 2826.83 793.583 2815.88 803.424L2815.45 803.809C2801.2 816.616 2802.42 840.399 2818.17 856.935L2831.44 870.871C2847.2 887.41 2871.52 890.434 2885.78 877.624L2886.19 877.252C2897.15 867.407 2914.49 866.802 2929.61 875.388C2935.35 878.644 2941.2 881.68 2947.17 884.498C2962.72 891.837 2973.72 907.173 2974.53 923.072L2974.56 923.679C2975.62 944.427 2993.68 963.387 3014.9 966.026L3032.77 968.248C3053.99 970.888 3070.33 956.207 3069.27 935.458L3069.24 934.852C3068.43 918.952 3077.99 906.174 3092.99 902.636C3098.74 901.28 3104.36 899.669 3109.83 897.803C3124.27 892.894 3141.89 897.848 3154 910.561L3154.46 911.042C3170.21 927.584 3194.54 930.612 3208.8 917.805L3220.81 907.014C3235.06 894.214 3233.85 870.427 3218.1 853.889L3217.63 853.389C3205.53 840.68 3201.82 823.237 3207.98 809.649C3210.33 804.452 3212.42 799.139 3214.24 793.732C3219.04 779.479 3232.91 771.209 3249.17 773.232L3249.78 773.308C3271 775.947 3287.34 761.267 3286.28 740.518L3285.39 723.028C3284.33 702.279 3266.27 683.32 3245.05 680.68L3244.44 680.605C3228.18 678.582 3213.29 666.736 3206.96 651.1C3204.54 645.113 3201.88 639.217 3198.98 633.411C3191.35 618.111 3193.32 601.371 3204.27 591.529L3204.7 591.144C3218.95 578.338 3217.73 554.554 3201.98 538.019L3188.71 524.083C3172.95 507.543 3148.62 504.519 3134.37 517.329L3133.95 517.701C3123 527.546 3105.65 528.151 3090.54 519.566C3084.8 516.31 3078.95 513.273 3072.98 510.455C3057.43 503.117 3046.43 487.78 3045.62 471.881L3045.59 471.275C3044.53 450.526 3026.47 431.567 3005.25 428.928L2987.38 426.705C2966.16 424.066 2949.82 438.746 2950.88 459.495L2950.91 460.101C2951.72 476.001 2942.16 488.78 2927.16 492.318C2921.41 493.674 2915.79 495.284 2910.32 497.15C2895.88 502.06 2878.26 497.106 2866.15 484.392L2865.69 483.912C2849.94 467.37 2825.61 464.342 2811.35 477.148L2799.34 487.939C2785.09 500.739 2786.3 524.526 2802.05 541.064L2802.52 541.564C2814.62 554.273 2818.33 571.715 2812.17 585.303C2809.82 590.499 2807.72 595.812 2805.91 601.22C2801.11 615.474 2787.24 623.743 2770.98 621.72L2770.35 621.642C2749.13 619.003 2732.79 633.683 2733.85 654.432L2734.75 671.923C2735.8 692.676 2753.86 711.636 2775.08 714.275ZM2866.6 679.637C2862.65 602.144 2923.68 547.32 3002.91 557.175C3082.16 567.032 3149.6 637.835 3153.56 715.328C3157.51 792.821 3096.48 847.645 3017.23 837.788C2937.99 827.934 2870.55 757.13 2866.6 679.637Z" fill="#B7DCF6"/>
<path d="M2941.98 834.538C3026.65 885.553 3126.07 865.573 3163.62 790.001C3177.49 762.088 3181.49 729.601 3175.19 696.05C3169.04 663.281 3153.56 631.676 3130.43 604.651C3129.96 604.028 3129.28 603.603 3128.51 603.461C3127.75 603.319 3126.96 603.47 3126.3 603.883C3126.02 604.136 3125.8 604.443 3125.65 604.784C3125.49 605.126 3125.41 605.495 3125.41 605.869C3125.4 606.243 3125.47 606.614 3125.62 606.959C3125.76 607.305 3125.97 607.617 3126.24 607.877C3172.72 662.177 3185.3 732.409 3158.28 786.787C3122.04 859.731 3026.07 879.014 2944.35 829.773C2910 809.073 2881.84 778.164 2865.08 742.743C2864.75 742.015 2864.18 741.423 2863.47 741.069C2862.76 740.714 2861.94 740.619 2861.16 740.799C2860.82 740.919 2860.51 741.113 2860.25 741.368C2859.99 741.623 2859.79 741.933 2859.66 742.274C2859.54 742.616 2859.49 742.981 2859.52 743.344C2859.56 743.706 2859.67 744.056 2859.85 744.37C2877.22 781.069 2906.39 813.091 2941.98 834.538Z" fill="white"/>
<path d="M2931.88 854.873C2950 865.865 2969.55 874.317 2989.97 879.99C2990.31 880.114 2990.67 880.161 2991.03 880.125C2991.39 880.089 2991.74 879.972 2992.05 879.783C2992.36 879.594 2992.62 879.338 2992.81 879.033C2993.01 878.729 2993.13 878.384 2993.18 878.025C2993.22 877.224 2992.98 876.434 2992.51 875.786C2992.03 875.138 2991.35 874.672 2990.58 874.465C2970.77 868.963 2951.82 860.767 2934.25 850.107C2839.97 793.297 2797.28 678.612 2839.09 594.455C2880.91 510.298 2991.63 488.055 3085.91 544.861C3086.2 545.082 3086.55 545.238 3086.91 545.319C3087.27 545.4 3087.64 545.404 3088.01 545.331C3088.37 545.258 3088.71 545.109 3089.02 544.895C3089.32 544.68 3089.57 544.405 3089.76 544.086C3090.04 543.354 3090.05 542.544 3089.77 541.809C3089.5 541.074 3088.97 540.464 3088.28 540.095C2991.05 481.511 2876.88 504.453 2833.76 591.238C2790.64 678.023 2834.65 796.289 2931.88 854.873Z" fill="white"/>
<path d="M3373.87 1272.5L3373.78 1272.06C3371.39 1260.7 3376.42 1250.42 3386.23 1246.19C3389.95 1244.59 3393.59 1242.8 3397.13 1240.83C3406.38 1235.68 3418.94 1237.28 3428.65 1245.08L3429.03 1245.38C3441.66 1255.53 3458.56 1254.98 3466.78 1244.16L3473.71 1235.05C3481.93 1224.22 3478.36 1207.22 3465.72 1197.07L3465.36 1196.78C3455.65 1188.98 3451.11 1176.82 3453.73 1166.34C3454.73 1162.36 3455.54 1158.3 3456.16 1154.16C3457.78 1143.36 3466.26 1135.85 3477.56 1135.49L3477.99 1135.48C3492.74 1135 3502.16 1122.6 3499.05 1107.77L3496.42 1095.28C3493.31 1080.45 3478.83 1068.82 3464.08 1069.29L3463.65 1069.3C3452.35 1069.67 3440.85 1062.8 3434.75 1052.25C3432.41 1048.2 3429.91 1044.25 3427.27 1040.39C3420.3 1030.21 3419.71 1017.93 3426.03 1009.62L3426.27 1009.3C3434.5 998.484 3430.93 981.48 3418.29 971.328L3407.65 962.774C3395.02 952.624 3378.12 953.164 3369.9 963.982L3369.65 964.308C3363.33 972.62 3351.6 974.994 3340.33 970.503C3336.05 968.801 3331.72 967.269 3327.34 965.909C3315.9 962.364 3306.64 952.546 3304.26 941.18L3304.17 940.753C3301.05 925.924 3286.57 914.287 3271.83 914.761L3259.4 915.161C3244.65 915.634 3235.23 928.038 3238.34 942.867L3238.43 943.294C3240.82 954.66 3235.78 964.937 3225.98 969.164C3222.26 970.767 3218.62 972.556 3215.08 974.524C3205.83 979.673 3193.27 978.081 3183.56 970.282L3183.18 969.982C3170.55 959.835 3153.65 960.382 3145.43 971.198L3138.5 980.315C3130.28 991.136 3133.85 1008.14 3146.48 1018.29L3146.85 1018.59C3156.56 1026.39 3161.1 1038.55 3158.48 1049.03C3157.48 1053 3156.67 1057.06 3156.05 1061.21C3154.43 1072.01 3145.95 1079.51 3134.65 1079.88L3134.22 1079.89C3119.47 1080.36 3110.05 1092.77 3113.16 1107.6L3115.79 1120.08C3118.9 1134.91 3133.38 1146.55 3148.13 1146.08L3148.56 1146.06C3159.86 1145.7 3171.36 1152.56 3177.46 1163.12C3179.81 1167.16 3182.3 1171.12 3184.94 1174.98C3191.91 1185.15 3192.5 1197.43 3186.18 1205.75L3185.94 1206.06C3177.71 1216.88 3181.29 1233.89 3193.92 1244.04L3204.56 1252.59C3217.19 1262.74 3234.09 1262.2 3242.31 1251.38L3242.56 1251.06C3248.88 1242.75 3260.61 1240.37 3271.88 1244.86C3276.16 1246.56 3280.49 1248.09 3284.87 1249.45C3296.31 1253 3305.57 1262.82 3307.95 1274.18L3308.05 1274.62C3311.16 1289.45 3325.64 1301.09 3340.39 1300.61L3352.82 1300.21C3367.56 1299.73 3376.99 1287.33 3373.87 1272.5ZM3327.17 1207.95C3272.1 1209.72 3218.03 1166.26 3206.4 1110.88C3194.76 1055.51 3229.96 1009.17 3285.03 1007.41C3340.1 1005.64 3394.17 1049.1 3405.81 1104.48C3417.44 1159.87 3382.24 1206.18 3327.17 1207.95L3327.17 1207.95Z" fill="#B7DCF6"/>
<path d="M3421.27 1157.15C3438.1 1098.5 3400.12 1028.6 3336.62 1001.32C3313.16 991.248 3288.73 988.023 3265.98 992.005C3243.75 995.891 3224.58 1006.32 3210.52 1022.18C3210.2 1022.62 3210.06 1023.17 3210.14 1023.71C3210.22 1024.25 3210.51 1024.73 3210.94 1025.06C3211.32 1025.46 3211.83 1025.69 3212.37 1025.7C3212.92 1025.72 3213.44 1025.52 3213.84 1025.15C3242.09 993.296 3289.86 985.394 3335.56 1005.02C3396.86 1031.35 3433.51 1098.82 3417.27 1155.42C3414.03 1167.03 3408.44 1177.84 3400.85 1187.2C3393.26 1196.56 3383.82 1204.26 3373.14 1209.82C3372.91 1209.96 3372.72 1210.14 3372.57 1210.35C3372.43 1210.57 3372.33 1210.82 3372.28 1211.07C3372.24 1211.33 3372.25 1211.6 3372.31 1211.85C3372.38 1212.1 3372.49 1212.34 3372.66 1212.54C3372.95 1213.02 3373.39 1213.38 3373.93 1213.56C3374.46 1213.74 3375.03 1213.72 3375.55 1213.5C3386.62 1207.74 3396.39 1199.76 3404.26 1190.07C3412.12 1180.37 3417.91 1169.17 3421.27 1157.15V1157.15Z" fill="white"/>
<path d="M3438.36 1164.49C3442.08 1151.37 3443.56 1137.73 3442.76 1124.12C3442.71 1123.55 3442.46 1123.02 3442.07 1122.61C3441.67 1122.19 3441.15 1121.93 3440.58 1121.85C3440.33 1121.8 3440.07 1121.81 3439.82 1121.88C3439.58 1121.95 3439.35 1122.08 3439.16 1122.25C3438.97 1122.42 3438.83 1122.64 3438.73 1122.87C3438.64 1123.11 3438.6 1123.37 3438.62 1123.62C3439.4 1136.82 3437.96 1150.05 3434.36 1162.77C3415.62 1228.07 3342.84 1256.49 3272.12 1226.11C3201.4 1195.74 3159.11 1117.9 3177.85 1052.59C3177.96 1052.04 3177.87 1051.46 3177.6 1050.97C3177.33 1050.47 3176.9 1050.09 3176.38 1049.88C3176.15 1049.76 3175.9 1049.68 3175.64 1049.66C3175.38 1049.65 3175.12 1049.69 3174.88 1049.78C3174.64 1049.88 3174.42 1050.02 3174.24 1050.21C3174.06 1050.4 3173.92 1050.62 3173.84 1050.87C3154.52 1118.21 3198.13 1198.49 3271.06 1229.81C3343.99 1261.14 3419.04 1231.83 3438.36 1164.49Z" fill="white"/>
<path d="M3111.81 1120.97L3111.5 1120.88C3107.52 1119.63 3103.93 1117.36 3101.09 1114.31C3098.25 1111.25 3096.25 1107.51 3095.3 1103.45C3094.64 1100.39 3093.85 1097.35 3092.93 1094.33C3090.51 1086.37 3093.09 1078.62 3099.57 1074.96L3099.83 1074.82C3108.26 1070.05 3109.9 1058.66 3103.48 1049.38L3098.07 1041.55C3091.65 1032.27 3079.61 1028.6 3071.17 1033.37L3070.93 1033.51C3064.44 1037.17 3055.6 1035.86 3048.75 1030.41C3046.15 1028.34 3043.47 1026.36 3040.71 1024.48C3033.52 1019.57 3029.4 1011.29 3030.5 1003.68L3030.54 1003.39C3031.96 993.452 3024.61 982.806 3014.1 979.608L3005.26 976.914C2994.76 973.714 2985.08 979.177 2983.66 989.114L2983.61 989.404C2982.52 997.016 2976.46 1002.2 2968.53 1002.5C2965.48 1002.61 2962.49 1002.86 2959.53 1003.24C2951.75 1004.24 2943.29 1000.28 2938.36 993.144L2938.17 992.874C2931.76 983.587 2919.71 979.918 2911.27 984.682L2904.16 988.696C2895.73 993.458 2894.09 1004.84 2900.5 1014.13L2900.7 1014.41C2905.63 1021.54 2905.86 1030.15 2901.45 1036.03C2899.77 1038.27 2898.2 1040.6 2896.76 1043C2892.98 1049.32 2885.17 1051.97 2877.12 1049.52L2876.82 1049.42C2866.32 1046.22 2856.65 1051.69 2855.22 1061.62L2854.02 1070C2852.6 1079.93 2859.95 1090.58 2870.46 1093.78L2870.76 1093.87C2874.74 1095.12 2878.33 1097.38 2881.17 1100.44C2884.01 1103.49 2886 1107.23 2886.96 1111.3C2887.62 1114.36 2888.41 1117.4 2889.33 1120.41C2891.75 1128.37 2889.17 1136.12 2882.68 1139.78L2882.43 1139.93C2874 1144.69 2872.36 1156.08 2878.78 1165.36L2884.19 1173.19C2890.6 1182.48 2902.65 1186.14 2911.09 1181.38L2911.33 1181.24C2917.81 1177.58 2926.66 1178.88 2933.51 1184.34C2936.11 1186.41 2938.79 1188.38 2941.55 1190.27C2948.74 1195.17 2952.86 1203.45 2951.76 1211.07L2951.72 1211.36C2950.29 1221.29 2957.65 1231.94 2968.15 1235.14L2977 1237.83C2987.5 1241.03 2997.18 1235.57 2998.6 1225.63L2998.64 1225.34C2999.74 1217.73 3005.79 1212.55 3013.73 1212.25C3016.77 1212.13 3019.77 1211.88 3022.72 1211.5C3030.5 1210.5 3038.97 1214.46 3043.9 1221.6L3044.09 1221.87C3050.5 1231.16 3062.55 1234.83 3070.99 1230.06L3078.1 1226.05C3086.53 1221.29 3088.17 1209.9 3081.75 1200.61L3081.56 1200.33C3076.63 1193.2 3076.4 1184.59 3080.81 1178.71C3082.49 1176.47 3084.05 1174.14 3085.49 1171.74C3089.27 1165.42 3097.08 1162.78 3105.13 1165.23L3105.44 1165.32C3115.94 1168.52 3125.62 1163.06 3127.04 1153.12L3128.24 1144.75C3129.67 1134.81 3122.31 1124.17 3111.81 1120.97ZM3062.15 1128.99C3056.82 1166.09 3020.69 1186.49 2981.47 1174.55C2942.25 1162.6 2914.76 1122.85 2920.1 1085.75C2925.43 1048.65 2961.55 1028.25 3000.78 1040.2C3040.01 1052.14 3067.48 1091.89 3062.15 1128.99Z" fill="#B7DCF6"/>
<path d="M3038.61 1048.64C3000.53 1016.68 2948.25 1017.03 2922.07 1049.42C2912.4 1061.38 2907.29 1076.42 2907.31 1092.9C2907.32 1109 2912.18 1125.4 2921.34 1140.34C2921.54 1140.68 2921.84 1140.95 2922.22 1141.08C2922.59 1141.22 2922.99 1141.22 2923.36 1141.08C2923.52 1140.99 2923.66 1140.87 2923.77 1140.72C2923.88 1140.58 2923.96 1140.41 2924 1140.23C2924.04 1140.05 2924.04 1139.86 2924 1139.69C2923.96 1139.51 2923.88 1139.34 2923.77 1139.19C2905.35 1109.18 2905.63 1074.73 2924.47 1051.43C2949.74 1020.18 3000.2 1019.84 3036.96 1050.68C3052.41 1063.65 3063.75 1080.88 3068.89 1099.22C3069 1099.6 3069.24 1099.94 3069.57 1100.17C3069.9 1100.4 3070.29 1100.52 3070.69 1100.5C3070.87 1100.48 3071.04 1100.42 3071.2 1100.33C3071.35 1100.23 3071.48 1100.11 3071.58 1099.96C3071.67 1099.8 3071.73 1099.63 3071.75 1099.45C3071.77 1099.27 3071.75 1099.09 3071.69 1098.92C3066.37 1079.93 3054.62 1062.07 3038.61 1048.64Z" fill="white"/>
<path d="M3045.65 1039.93C3037.44 1033 3028.34 1027.21 3018.59 1022.69C3018.43 1022.6 3018.26 1022.54 3018.08 1022.52C3017.89 1022.5 3017.71 1022.53 3017.54 1022.59C3017.37 1022.65 3017.21 1022.74 3017.08 1022.87C3016.95 1023 3016.85 1023.15 3016.78 1023.32C3016.69 1023.71 3016.74 1024.11 3016.92 1024.47C3017.1 1024.82 3017.4 1025.1 3017.76 1025.25C3027.21 1029.63 3036.04 1035.26 3044 1041.97C3086.4 1077.55 3097.18 1135.84 3068.02 1171.9C3038.87 1207.96 2980.65 1208.35 2938.24 1172.77C2938.11 1172.64 2937.95 1172.53 2937.78 1172.46C2937.6 1172.39 2937.42 1172.35 2937.23 1172.35C2937.04 1172.35 2936.85 1172.39 2936.68 1172.47C2936.51 1172.54 2936.35 1172.65 2936.22 1172.78C2936.01 1173.1 2935.93 1173.49 2936 1173.87C2936.07 1174.25 2936.28 1174.59 2936.59 1174.81C2980.32 1211.51 3040.36 1211.11 3070.43 1173.92C3100.49 1136.73 3089.38 1076.62 3045.65 1039.93Z" fill="white"/>
<path d="M1561.59 720.402H713.57C655.17 720.402 599.932 673.057 590.198 614.655C580.464 556.255 619.918 508.908 678.321 508.908H1526.34C1584.74 508.908 1639.97 556.253 1649.71 614.655C1659.44 673.052 1619.99 720.402 1561.59 720.402Z" fill="#B7DCF6"/>
<path d="M766.25 661.483C788.395 637.409 783.296 596.689 754.86 570.533C726.425 544.377 685.421 542.69 663.277 566.764C641.132 590.839 646.231 631.559 674.667 657.715C703.102 683.871 744.106 685.558 766.25 661.483Z" fill="white"/>
<path d="M1537.41 572.249H829.363C826.226 572.143 823.219 570.972 820.836 568.929C818.453 566.887 816.836 564.093 816.252 561.01V561.01C815.217 554.803 819.41 549.771 825.617 549.771H1533.66C1536.8 549.876 1539.81 551.047 1542.19 553.09C1544.57 555.132 1546.19 557.926 1546.77 561.01V561.01C1547.81 567.217 1543.62 572.249 1537.41 572.249Z" fill="white"/>
<path d="M1408.34 625.377H838.218C835.081 625.272 832.073 624.101 829.69 622.058C827.307 620.016 825.69 617.222 825.106 614.138C824.072 607.931 828.265 602.899 834.472 602.899H1404.59C1407.72 603.005 1410.73 604.176 1413.11 606.219C1415.5 608.261 1417.11 611.055 1417.7 614.138V614.138C1418.73 620.345 1414.54 625.377 1408.34 625.377Z" fill="white"/>
<path d="M1487.68 678.507H847.073C843.936 678.401 840.928 677.23 838.545 675.188C836.162 673.145 834.545 670.352 833.961 667.268C832.927 661.061 837.12 656.029 843.327 656.029H1483.94C1487.07 656.135 1490.08 657.305 1492.46 659.348C1494.85 661.391 1496.46 664.184 1497.05 667.268V667.268C1498.09 673.475 1493.89 678.507 1487.68 678.507Z" fill="white"/>
<path d="M2642.8 527.462H1522.17C1444.09 527.462 1368.6 464.162 1353.55 386.088C1338.5 308.009 1389.6 244.714 1467.67 244.714H2588.31C2666.39 244.714 2741.88 308.014 2756.93 386.088C2771.98 464.167 2720.88 527.462 2642.8 527.462Z" fill="#84C2ED"/>
<path d="M1659.27 450.816L1598.41 371.466L1612.57 444.924C1613.9 451.798 1608.55 457.691 1601.09 457.691C1593.43 457.691 1586.4 451.798 1585.07 444.924L1562.74 329.04C1561.26 321.38 1566.25 315.684 1574.5 315.684C1579.8 315.684 1585.68 318.63 1589.26 322.951C1612.57 353.199 1626.03 371.073 1650.19 402.695L1635.88 328.451C1634.56 321.576 1639.91 315.684 1647.37 315.684C1655.03 315.684 1662.06 321.576 1663.38 328.451L1685.72 444.334C1687.12 451.602 1682.4 457.691 1673.76 457.691C1671 457.608 1668.29 456.954 1665.79 455.771C1663.3 454.588 1661.08 452.901 1659.27 450.816Z" fill="white"/>
<path d="M1699.35 406.034L1691.85 367.144C1686.47 339.254 1696.27 315.684 1733 315.684C1769.73 315.684 1788.61 339.254 1793.98 367.144L1801.48 406.034C1807.01 434.71 1794.35 457.691 1760.37 457.691C1726.39 457.691 1704.88 434.71 1699.35 406.034ZM1719.35 367.144L1726.85 406.034C1729.88 421.747 1739.46 432.746 1755.57 432.746C1771.67 432.746 1777.02 421.746 1773.99 406.034L1766.49 367.144C1763.42 351.235 1755.09 340.629 1737.81 340.629C1720.53 340.629 1716.28 351.235 1719.35 367.144H1719.35Z" fill="white"/>
<path d="M1834.19 342.396H1813.37C1805.52 342.396 1798.53 336.696 1797.24 330.022C1796.18 324.522 1800.9 317.451 1808.56 317.451H1877.7C1884.77 317.451 1892.7 322.951 1894.07 330.022C1895.36 336.7 1889.97 342.396 1882.51 342.396H1861.69L1881.49 445.12C1882.78 451.798 1877.63 457.691 1870.16 457.691C1862.5 457.691 1855.28 451.798 1853.99 445.12L1834.19 342.396Z" fill="white"/>
<path d="M2017.99 445.12C2019.27 451.798 2014.12 457.691 2006.66 457.691C1999 457.691 1991.78 451.798 1990.49 445.12L1968.54 331.202C1967.21 324.328 1972.33 317.258 1980.97 317.258H2034.2C2041.66 317.258 2049.09 323.15 2050.41 330.024C2051.77 337.095 2046.47 342.202 2039.01 342.202H1998.16L2004.29 374.021H2041.41C2048.29 374.021 2055.99 379.321 2057.35 386.395C2058.71 393.469 2053.88 398.965 2046.22 398.965H2009.1L2017.99 445.12Z" fill="white"/>
<path d="M2079.39 406.034L2071.89 367.144C2066.52 339.254 2076.31 315.684 2113.04 315.684C2149.77 315.684 2168.65 339.254 2174.02 367.144L2181.52 406.034C2187.05 434.71 2174.39 457.691 2140.41 457.691C2106.44 457.691 2084.92 434.71 2079.39 406.034ZM2099.39 367.144L2106.89 406.034C2109.92 421.747 2119.5 432.746 2135.61 432.746C2151.71 432.746 2157.06 421.746 2154.03 406.034L2146.53 367.144C2143.47 351.235 2135.13 340.629 2117.85 340.629C2100.57 340.629 2096.33 351.235 2099.39 367.144H2099.39Z" fill="white"/>
<path d="M2260.42 457.691C2228.79 457.691 2207.1 436.871 2201.69 408.783L2186.25 328.648C2184.81 321.184 2189.84 315.684 2197.69 315.684C2204.96 315.684 2212.38 321.576 2213.74 328.648L2229.19 408.783C2231.91 422.926 2240.68 432.746 2255.61 432.746C2270.34 432.746 2275.28 422.729 2272.59 408.783L2257.15 328.648C2255.82 321.773 2260.54 315.684 2268.2 315.684C2276.26 315.684 2283.52 321.773 2284.84 328.648L2300.29 408.783C2305.74 437.067 2291.45 457.691 2260.42 457.691Z" fill="white"/>
<path d="M2404.63 450.816L2343.77 371.466L2357.92 444.924C2359.25 451.798 2353.9 457.691 2346.44 457.691C2338.78 457.691 2331.75 451.798 2330.43 444.924L2308.09 329.04C2306.62 321.38 2311.61 315.684 2319.86 315.684C2325.16 315.684 2331.03 318.63 2334.61 322.951C2357.92 353.199 2371.38 371.073 2395.55 402.695L2381.24 328.451C2379.91 321.576 2385.26 315.684 2392.73 315.684C2400.39 315.684 2407.41 321.576 2408.74 328.451L2431.07 444.334C2432.47 451.602 2427.75 457.691 2419.11 457.691C2416.35 457.608 2413.64 456.955 2411.15 455.772C2408.66 454.588 2406.44 452.901 2404.63 450.816V450.816Z" fill="white"/>
<path d="M2495.76 455.923H2473.56C2465.31 455.923 2456.99 449.441 2455.52 441.781L2434.25 331.402C2432.77 323.742 2438.59 317.261 2446.84 317.261H2469.04C2513.43 317.261 2533.44 341.616 2538.7 368.917L2545.21 402.7C2550.55 430.389 2540.35 455.923 2495.76 455.923ZM2511.2 368.912C2508.33 353.985 2498.39 342.2 2477.18 342.2H2463.83L2480.94 430.979H2494.29C2515.89 430.979 2520.7 418.212 2517.71 402.695L2511.2 368.912Z" fill="white"/>
<path d="M827.183 916.416V1046.52C827.2 1053.53 824.434 1060.25 819.493 1065.22C814.553 1070.18 807.842 1072.98 800.837 1073H452.758C445.753 1072.98 439.042 1070.19 434.101 1065.22C429.16 1060.26 426.394 1053.53 426.411 1046.53V897.378C426.394 890.373 429.16 883.649 434.101 878.683C439.042 873.718 445.753 870.919 452.758 870.902H770.91C773.52 870.902 776.115 870.513 778.61 869.747L840.81 850.653C850.597 847.653 858.826 858.493 853.354 867.182L831.267 902.258C828.598 906.498 827.182 911.406 827.183 916.416V916.416Z" fill="#B7DCF6"/>
<path d="M474.701 1006.22H778.728C780.544 1006.22 782.286 1006.95 783.571 1008.23C784.855 1009.51 785.577 1011.26 785.577 1013.07V1024.52C785.577 1026.34 784.855 1028.08 783.571 1029.37C782.286 1030.65 780.544 1031.37 778.728 1031.37H474.701C472.884 1031.37 471.142 1030.65 469.858 1029.37C468.573 1028.08 467.851 1026.34 467.851 1024.52V1013.07C467.851 1011.26 468.573 1009.51 469.857 1008.23C471.142 1006.95 472.884 1006.22 474.701 1006.22V1006.22Z" fill="white"/>
<path d="M474.701 963.168H778.728C780.544 963.168 782.286 963.89 783.571 965.174C784.855 966.458 785.577 968.201 785.577 970.017V981.468C785.577 983.284 784.855 985.027 783.571 986.311C782.286 987.595 780.544 988.317 778.728 988.317H474.701C472.884 988.317 471.142 987.595 469.858 986.311C468.573 985.027 467.851 983.285 467.851 981.468V970.018C467.851 968.201 468.573 966.459 469.857 965.174C471.142 963.89 472.884 963.168 474.701 963.168V963.168Z" fill="white"/>
<path d="M474.701 920.112H778.728C780.544 920.112 782.286 920.833 783.571 922.118C784.855 923.402 785.577 925.144 785.577 926.961V938.412C785.577 940.228 784.855 941.97 783.571 943.255C782.286 944.539 780.544 945.261 778.728 945.261H474.701C472.884 945.261 471.142 944.539 469.858 943.255C468.573 941.97 467.851 940.228 467.851 938.412V926.962C467.851 925.145 468.573 923.403 469.857 922.118C471.142 920.834 472.884 920.112 474.701 920.112V920.112Z" fill="white"/>
<path d="M3783.32 1996.02L1381.06 1996.02C1375.31 1996.02 1369.79 1993.73 1365.72 1989.66C1361.65 1985.59 1359.36 1980.07 1359.36 1974.32V1911.89L3783.32 1911.89V1996.02Z" fill="#0A4975"/>
<path d="M3943.57 1996.02L1938.46 1996.02V1911.89L3965.27 1911.89V1974.32C3965.27 1980.07 3962.98 1985.59 3958.91 1989.66C3954.84 1993.73 3949.32 1996.02 3943.57 1996.02V1996.02Z" fill="#0C5F99"/>
<path d="M1421.73 1976.45H1453.71C1458.75 1976.45 1462.83 1972.37 1462.83 1967.33V1940.58C1462.83 1935.54 1458.75 1931.46 1453.71 1931.46H1421.73C1416.69 1931.46 1412.61 1935.54 1412.61 1940.58V1967.33C1412.61 1972.37 1416.69 1976.45 1421.73 1976.45Z" fill="#0B5587"/>
<path d="M1511.4 1976.45H1563.84C1568.14 1976.45 1571.63 1972.97 1571.63 1968.66V1939.25C1571.63 1934.95 1568.14 1931.46 1563.84 1931.46H1511.4C1507.1 1931.46 1503.61 1934.95 1503.61 1939.25V1968.66C1503.61 1972.97 1507.1 1976.45 1511.4 1976.45Z" fill="#0B5587"/>
<path d="M1594.14 1976.45H1646.57C1650.88 1976.45 1654.36 1972.97 1654.36 1968.66V1939.25C1654.36 1934.95 1650.88 1931.46 1646.57 1931.46H1594.14C1589.84 1931.46 1586.35 1934.95 1586.35 1939.25V1968.66C1586.35 1972.97 1589.84 1976.45 1594.14 1976.45Z" fill="#0B5587"/>
<path d="M1359.37 1911.89H3260.97L3053.59 603.074H1178.97C1175.64 603.074 1172.34 603.797 1169.32 605.191C1166.3 606.585 1163.61 608.619 1161.45 611.151C1159.28 613.684 1157.7 616.655 1156.79 619.86C1155.89 623.066 1155.69 626.429 1156.21 629.718L1359.37 1911.89Z" fill="#6E9AB5"/>
<path d="M1411.21 1911.89H3267.82C3280.24 1911.89 3288.72 1901.82 3286.75 1889.39L3086.5 625.573C3084.54 613.147 3072.87 603.073 3060.44 603.073H1203.84C1191.41 603.073 1182.94 613.146 1184.9 625.573L1385.15 1889.4C1387.12 1901.82 1398.79 1911.89 1411.21 1911.89Z" fill="#86BCDD"/>
<path d="M1433.44 1882.27H3236.2C3248.37 1882.27 3256.67 1872.41 3254.74 1860.24L3063.74 654.731C3061.81 642.563 3050.38 632.698 3038.21 632.698H1235.45C1223.28 632.698 1214.98 642.563 1216.91 654.731L1407.92 1860.24C1409.85 1872.4 1421.27 1882.27 1433.44 1882.27Z" fill="url(#paint2_linear_502_530)"/>
<path d="M2039.81 1546.03C2044.06 1573.56 2024.3 1594.2 1994.49 1594.2C1964.67 1594.2 1938.55 1573.56 1934.31 1546.03L1924.64 1483.34H1756.44C1724.33 1483.34 1698.38 1458.88 1694.14 1431.35C1693.66 1428.29 1694.6 1414.53 1697.66 1404.59L1792.22 1065.89C1797.04 1047.54 1815.15 1036.08 1835.02 1036.08C1861.02 1036.08 1891.31 1059.01 1895.44 1085.78C1896.15 1090.36 1896.97 1095.71 1894.98 1102.6C1866.43 1205.05 1842.88 1285.32 1814.33 1387.77H1909.9L1891.86 1270.8C1887.62 1243.27 1907.37 1222.63 1937.19 1222.63C1965.47 1222.63 1993.12 1243.27 1997.37 1270.8L2015.41 1387.77H2025.34C2054.4 1387.77 2079.99 1409.95 2083.88 1435.17C2088.01 1461.93 2069.14 1483.34 2040.08 1483.34H2030.14L2039.81 1546.03Z" fill="#F99FAA"/>
<path d="M2437.9 1217.28L2470.32 1427.53C2484.71 1520.8 2433.45 1594.97 2319.53 1594.97C2205.61 1594.97 2131.48 1520.8 2117.1 1427.53L2084.68 1217.28C2069.12 1116.36 2110.14 1035.31 2233.23 1035.31C2356.33 1035.31 2422.34 1116.36 2437.9 1217.28ZM2190.13 1211.93L2223.37 1427.53C2230.09 1471.1 2259.16 1500.93 2305.03 1500.93C2350.9 1500.93 2370.77 1471.11 2364.05 1427.53L2330.8 1211.93C2323.26 1162.99 2298.08 1128.59 2247.61 1128.59C2197.15 1128.59 2182.58 1162.99 2190.13 1211.93Z" fill="#F99FAA"/>
<path d="M2865.51 1546.03C2869.75 1573.56 2850 1594.2 2820.18 1594.2C2790.36 1594.2 2764.24 1573.56 2760 1546.03L2750.33 1483.34H2582.13C2550.02 1483.34 2524.08 1458.88 2519.83 1431.35C2519.36 1428.29 2520.3 1414.53 2523.35 1404.59L2617.92 1065.89C2622.74 1047.54 2640.84 1036.08 2660.72 1036.08C2686.72 1036.08 2717.01 1059.01 2721.14 1085.78C2721.85 1090.36 2722.67 1095.71 2720.68 1102.6C2692.13 1205.05 2668.58 1285.32 2640.03 1387.77H2735.6L2717.56 1270.8C2713.32 1243.27 2733.07 1222.63 2762.89 1222.63C2791.17 1222.63 2818.82 1243.27 2823.07 1270.8L2841.11 1387.77H2851.04C2880.09 1387.77 2905.68 1409.95 2909.57 1435.17C2913.7 1461.93 2894.83 1483.34 2865.77 1483.34H2855.84L2865.51 1546.03Z" fill="#F99FAA"/>
<path d="M3071.18 1755.55C3070.65 1755.55 3070.14 1755.34 3069.77 1754.97C3069.39 1754.59 3069.18 1754.08 3069.18 1753.55C3069.18 1753.02 3069.39 1752.52 3069.77 1752.14C3070.14 1751.77 3070.65 1751.55 3071.18 1751.55H3111.47C3112 1751.55 3112.51 1751.77 3112.89 1752.14C3113.26 1752.52 3113.47 1753.02 3113.47 1753.55C3113.47 1754.08 3113.26 1754.59 3112.89 1754.97C3112.51 1755.34 3112 1755.55 3111.47 1755.55H3071.18ZM3031.06 1755.55H2990.94C2990.41 1755.55 2989.9 1755.34 2989.52 1754.97C2989.15 1754.59 2988.94 1754.08 2988.94 1753.55C2988.94 1753.02 2989.15 1752.52 2989.52 1752.14C2989.9 1751.77 2990.41 1751.55 2990.94 1751.55H3031.06C3031.59 1751.55 3032.1 1751.77 3032.47 1752.14C3032.85 1752.52 3033.06 1753.02 3033.06 1753.55C3033.06 1754.08 3032.85 1754.59 3032.47 1754.97C3032.1 1755.34 3031.59 1755.55 3031.06 1755.55H3031.06ZM2950.81 1755.55H2910.69C2910.16 1755.55 2909.65 1755.34 2909.28 1754.97C2908.9 1754.59 2908.69 1754.08 2908.69 1753.55C2908.69 1753.02 2908.9 1752.52 2909.28 1752.14C2909.65 1751.77 2910.16 1751.55 2910.69 1751.55H2950.81C2951.34 1751.55 2951.85 1751.77 2952.23 1752.14C2952.6 1752.52 2952.81 1753.02 2952.81 1753.55C2952.81 1754.08 2952.6 1754.59 2952.23 1754.97C2951.85 1755.34 2951.34 1755.55 2950.81 1755.55ZM2870.57 1755.55H2830.45C2829.92 1755.55 2829.41 1755.34 2829.03 1754.97C2828.66 1754.59 2828.45 1754.08 2828.45 1753.55C2828.45 1753.02 2828.66 1752.52 2829.03 1752.14C2829.41 1751.77 2829.92 1751.55 2830.45 1751.55H2870.57C2871.1 1751.55 2871.61 1751.77 2871.98 1752.14C2872.36 1752.52 2872.57 1753.02 2872.57 1753.55C2872.57 1754.08 2872.36 1754.59 2871.98 1754.97C2871.61 1755.34 2871.1 1755.55 2870.57 1755.55V1755.55ZM2790.33 1755.55H2750.2C2749.67 1755.55 2749.16 1755.34 2748.79 1754.97C2748.41 1754.59 2748.2 1754.08 2748.2 1753.55C2748.2 1753.02 2748.41 1752.52 2748.79 1752.14C2749.16 1751.77 2749.67 1751.55 2750.2 1751.55H2790.33C2790.86 1751.55 2791.36 1751.77 2791.74 1752.14C2792.11 1752.52 2792.33 1753.02 2792.33 1753.55C2792.33 1754.08 2792.11 1754.59 2791.74 1754.97C2791.36 1755.34 2790.86 1755.55 2790.33 1755.55ZM2710.08 1755.55H2669.96C2669.43 1755.55 2668.92 1755.34 2668.54 1754.97C2668.17 1754.59 2667.96 1754.08 2667.96 1753.55C2667.96 1753.02 2668.17 1752.52 2668.54 1752.14C2668.92 1751.77 2669.43 1751.55 2669.96 1751.55H2710.08C2710.61 1751.55 2711.12 1751.77 2711.5 1752.14C2711.87 1752.52 2712.08 1753.02 2712.08 1753.55C2712.08 1754.08 2711.87 1754.59 2711.5 1754.97C2711.12 1755.34 2710.61 1755.55 2710.08 1755.55ZM2629.84 1755.55H2589.71C2589.18 1755.55 2588.68 1755.34 2588.3 1754.97C2587.93 1754.59 2587.71 1754.08 2587.71 1753.55C2587.71 1753.02 2587.93 1752.52 2588.3 1752.14C2588.68 1751.77 2589.18 1751.55 2589.71 1751.55H2629.84C2630.37 1751.55 2630.88 1751.77 2631.25 1752.14C2631.63 1752.52 2631.84 1753.02 2631.84 1753.55C2631.84 1754.08 2631.63 1754.59 2631.25 1754.97C2630.88 1755.34 2630.37 1755.55 2629.84 1755.55V1755.55ZM2549.59 1755.55H2509.47C2508.94 1755.55 2508.43 1755.34 2508.06 1754.97C2507.68 1754.59 2507.47 1754.08 2507.47 1753.55C2507.47 1753.02 2507.68 1752.52 2508.06 1752.14C2508.43 1751.77 2508.94 1751.55 2509.47 1751.55H2549.59C2550.12 1751.55 2550.63 1751.77 2551.01 1752.14C2551.38 1752.52 2551.59 1753.02 2551.59 1753.55C2551.59 1754.08 2551.38 1754.59 2551.01 1754.97C2550.63 1755.34 2550.12 1755.55 2549.59 1755.55ZM2469.35 1755.55H2429.23C2428.7 1755.55 2428.19 1755.34 2427.81 1754.97C2427.44 1754.59 2427.23 1754.08 2427.23 1753.55C2427.23 1753.02 2427.44 1752.52 2427.81 1752.14C2428.19 1751.77 2428.7 1751.55 2429.23 1751.55H2469.35C2469.88 1751.55 2470.39 1751.77 2470.76 1752.14C2471.14 1752.52 2471.35 1753.02 2471.35 1753.55C2471.35 1754.08 2471.14 1754.59 2470.76 1754.97C2470.39 1755.34 2469.88 1755.55 2469.35 1755.55ZM2389.1 1755.55H2348.98C2348.45 1755.55 2347.94 1755.34 2347.57 1754.97C2347.19 1754.59 2346.98 1754.08 2346.98 1753.55C2346.98 1753.02 2347.19 1752.52 2347.57 1752.14C2347.94 1751.77 2348.45 1751.55 2348.98 1751.55H2389.1C2389.63 1751.55 2390.14 1751.77 2390.52 1752.14C2390.89 1752.52 2391.1 1753.02 2391.1 1753.55C2391.1 1754.08 2390.89 1754.59 2390.52 1754.97C2390.14 1755.34 2389.63 1755.55 2389.1 1755.55ZM2308.86 1755.55H2268.74C2268.21 1755.55 2267.7 1755.34 2267.32 1754.97C2266.95 1754.59 2266.74 1754.08 2266.74 1753.55C2266.74 1753.02 2266.95 1752.52 2267.32 1752.14C2267.7 1751.77 2268.21 1751.55 2268.74 1751.55H2308.86C2309.39 1751.55 2309.9 1751.77 2310.27 1752.14C2310.65 1752.52 2310.86 1753.02 2310.86 1753.55C2310.86 1754.08 2310.65 1754.59 2310.27 1754.97C2309.9 1755.34 2309.39 1755.55 2308.86 1755.55V1755.55ZM2228.61 1755.55H2188.49C2187.96 1755.55 2187.45 1755.34 2187.08 1754.97C2186.7 1754.59 2186.49 1754.08 2186.49 1753.55C2186.49 1753.02 2186.7 1752.52 2187.08 1752.14C2187.45 1751.77 2187.96 1751.55 2188.49 1751.55H2228.61C2229.15 1751.55 2229.65 1751.77 2230.03 1752.14C2230.4 1752.52 2230.61 1753.02 2230.61 1753.55C2230.61 1754.08 2230.4 1754.59 2230.03 1754.97C2229.65 1755.34 2229.15 1755.55 2228.61 1755.55ZM2148.37 1755.55H2108.25C2107.72 1755.55 2107.21 1755.34 2106.83 1754.97C2106.46 1754.59 2106.25 1754.08 2106.25 1753.55C2106.25 1753.02 2106.46 1752.52 2106.83 1752.14C2107.21 1751.77 2107.72 1751.55 2108.25 1751.55H2148.37C2148.9 1751.55 2149.41 1751.77 2149.79 1752.14C2150.16 1752.52 2150.37 1753.02 2150.37 1753.55C2150.37 1754.08 2150.16 1754.59 2149.79 1754.97C2149.41 1755.34 2148.9 1755.55 2148.37 1755.55ZM2068.13 1755.55H2028C2027.47 1755.55 2026.96 1755.34 2026.59 1754.97C2026.21 1754.59 2026 1754.08 2026 1753.55C2026 1753.02 2026.21 1752.52 2026.59 1752.14C2026.96 1751.77 2027.47 1751.55 2028 1751.55H2068.13C2068.66 1751.55 2069.17 1751.77 2069.54 1752.14C2069.92 1752.52 2070.13 1753.02 2070.13 1753.55C2070.13 1754.08 2069.92 1754.59 2069.54 1754.97C2069.17 1755.34 2068.66 1755.55 2068.13 1755.55ZM1987.88 1755.55H1947.76C1947.23 1755.55 1946.72 1755.34 1946.35 1754.97C1945.97 1754.59 1945.76 1754.08 1945.76 1753.55C1945.76 1753.02 1945.97 1752.52 1946.35 1752.14C1946.72 1751.77 1947.23 1751.55 1947.76 1751.55H1987.88C1988.41 1751.55 1988.92 1751.77 1989.3 1752.14C1989.67 1752.52 1989.88 1753.02 1989.88 1753.55C1989.88 1754.08 1989.67 1754.59 1989.3 1754.97C1988.92 1755.34 1988.41 1755.55 1987.88 1755.55ZM1907.64 1755.55H1867.52C1866.99 1755.55 1866.48 1755.34 1866.1 1754.97C1865.73 1754.59 1865.52 1754.08 1865.52 1753.55C1865.52 1753.02 1865.73 1752.52 1866.1 1752.14C1866.48 1751.77 1866.99 1751.55 1867.52 1751.55H1907.64C1908.17 1751.55 1908.68 1751.77 1909.05 1752.14C1909.43 1752.52 1909.64 1753.02 1909.64 1753.55C1909.64 1754.08 1909.43 1754.59 1909.05 1754.97C1908.68 1755.34 1908.17 1755.55 1907.64 1755.55H1907.64ZM1827.39 1755.55H1787.27C1786.74 1755.55 1786.23 1755.34 1785.86 1754.97C1785.48 1754.59 1785.27 1754.08 1785.27 1753.55C1785.27 1753.02 1785.48 1752.52 1785.86 1752.14C1786.23 1751.77 1786.74 1751.55 1787.27 1751.55H1827.39C1827.92 1751.55 1828.43 1751.77 1828.81 1752.14C1829.18 1752.52 1829.39 1753.02 1829.39 1753.55C1829.39 1754.08 1829.18 1754.59 1828.81 1754.97C1828.43 1755.34 1827.92 1755.55 1827.39 1755.55ZM1747.15 1755.55H1707.03C1706.5 1755.55 1705.99 1755.34 1705.61 1754.97C1705.24 1754.59 1705.03 1754.08 1705.03 1753.55C1705.03 1753.02 1705.24 1752.52 1705.61 1752.14C1705.99 1751.77 1706.5 1751.55 1707.03 1751.55H1747.15C1747.68 1751.55 1748.19 1751.77 1748.56 1752.14C1748.94 1752.52 1749.15 1753.02 1749.15 1753.55C1749.15 1754.08 1748.94 1754.59 1748.56 1754.97C1748.19 1755.34 1747.68 1755.55 1747.15 1755.55V1755.55ZM1666.9 1755.55H1626.78C1626.25 1755.55 1625.74 1755.34 1625.37 1754.97C1624.99 1754.59 1624.78 1754.08 1624.78 1753.55C1624.78 1753.02 1624.99 1752.52 1625.37 1752.14C1625.74 1751.77 1626.25 1751.55 1626.78 1751.55H1666.9C1667.44 1751.55 1667.94 1751.77 1668.32 1752.14C1668.69 1752.52 1668.9 1753.02 1668.9 1753.55C1668.9 1754.08 1668.69 1754.59 1668.32 1754.97C1667.94 1755.34 1667.44 1755.55 1666.9 1755.55ZM1586.66 1755.55H1546.54C1546.01 1755.55 1545.5 1755.34 1545.12 1754.97C1544.75 1754.59 1544.54 1754.08 1544.54 1753.55C1544.54 1753.02 1544.75 1752.52 1545.12 1752.14C1545.5 1751.77 1546.01 1751.55 1546.54 1751.55H1586.66C1587.19 1751.55 1587.7 1751.77 1588.07 1752.14C1588.45 1752.52 1588.66 1753.02 1588.66 1753.55C1588.66 1754.08 1588.45 1754.59 1588.07 1754.97C1587.7 1755.34 1587.19 1755.55 1586.66 1755.55H1586.66ZM1506.81 1752.15C1506.58 1752.15 1506.36 1752.12 1506.15 1752.04C1493.09 1747.38 1481.69 1739 1473.34 1727.93C1473.03 1727.51 1472.9 1726.98 1472.97 1726.46C1473.05 1725.94 1473.33 1725.47 1473.75 1725.15C1474.16 1724.84 1474.69 1724.7 1475.21 1724.77C1475.73 1724.83 1476.21 1725.11 1476.53 1725.52C1484.4 1735.96 1495.15 1743.87 1507.47 1748.26C1507.91 1748.42 1508.29 1748.73 1508.53 1749.14C1508.77 1749.54 1508.86 1750.02 1508.78 1750.49C1508.7 1750.96 1508.46 1751.38 1508.1 1751.68C1507.74 1751.99 1507.28 1752.16 1506.81 1752.15V1752.15ZM3147.21 1740.14C3146.82 1740.15 3146.44 1740.03 3146.12 1739.83C3145.8 1739.62 3145.54 1739.32 3145.38 1738.97C3145.22 1738.62 3145.17 1738.23 3145.23 1737.84C3145.28 1737.46 3145.45 1737.11 3145.71 1736.82C3152.91 1728.49 3156.82 1717.81 3156.69 1706.8C3156.69 1704.88 3156.58 1702.96 3156.37 1701.05C3156.34 1700.79 3156.37 1700.53 3156.44 1700.27C3156.52 1700.02 3156.64 1699.79 3156.8 1699.58C3156.97 1699.38 3157.17 1699.21 3157.4 1699.08C3157.63 1698.95 3157.88 1698.87 3158.14 1698.85C3158.41 1698.82 3158.67 1698.84 3158.92 1698.92C3159.17 1698.99 3159.41 1699.11 3159.61 1699.28C3159.82 1699.44 3159.99 1699.64 3160.12 1699.87C3160.24 1700.1 3160.32 1700.36 3160.35 1700.62C3160.57 1702.67 3160.69 1704.73 3160.69 1706.8C3160.82 1718.79 3156.56 1730.41 3148.7 1739.47C3148.51 1739.68 3148.28 1739.85 3148.03 1739.97C3147.77 1740.09 3147.49 1740.15 3147.2 1740.15L3147.21 1740.14ZM1461.34 1691.56C1460.86 1691.55 1460.4 1691.38 1460.04 1691.07C1459.67 1690.76 1459.43 1690.33 1459.36 1689.86L1453.25 1650.2C1453.17 1649.68 1453.31 1649.15 1453.62 1648.73C1453.93 1648.3 1454.4 1648.02 1454.92 1647.94C1455.44 1647.86 1455.98 1647.99 1456.4 1648.3C1456.83 1648.61 1457.12 1649.07 1457.2 1649.59L1463.32 1689.25C1463.36 1689.53 1463.34 1689.82 1463.26 1690.1C1463.18 1690.38 1463.04 1690.63 1462.85 1690.85C1462.67 1691.07 1462.43 1691.24 1462.17 1691.36C1461.91 1691.48 1461.63 1691.55 1461.34 1691.55V1691.56ZM3152.3 1663.18C3151.82 1663.17 3151.36 1663 3151 1662.69C3150.63 1662.38 3150.4 1661.95 3150.32 1661.48L3144.21 1621.82C3144.17 1621.56 3144.17 1621.29 3144.23 1621.04C3144.3 1620.78 3144.41 1620.53 3144.56 1620.32C3144.72 1620.11 3144.91 1619.92 3145.14 1619.79C3145.36 1619.65 3145.62 1619.55 3145.88 1619.51C3146.14 1619.47 3146.41 1619.49 3146.66 1619.55C3146.92 1619.61 3147.16 1619.73 3147.38 1619.89C3147.59 1620.04 3147.77 1620.24 3147.9 1620.47C3148.04 1620.7 3148.13 1620.95 3148.16 1621.21L3154.28 1660.87C3154.32 1661.15 3154.3 1661.44 3154.22 1661.72C3154.14 1662 3154.01 1662.26 3153.82 1662.47C3153.63 1662.69 3153.4 1662.87 3153.13 1662.99C3152.87 1663.11 3152.59 1663.17 3152.3 1663.17V1663.18ZM1449.11 1612.25C1448.63 1612.25 1448.17 1612.08 1447.81 1611.76C1447.44 1611.45 1447.21 1611.02 1447.13 1610.55L1441.02 1570.9C1440.98 1570.63 1440.98 1570.37 1441.04 1570.11C1441.11 1569.85 1441.22 1569.61 1441.37 1569.39C1441.53 1569.18 1441.72 1569 1441.95 1568.86C1442.17 1568.72 1442.43 1568.63 1442.69 1568.59C1442.95 1568.55 1443.22 1568.56 1443.47 1568.62C1443.73 1568.69 1443.97 1568.8 1444.19 1568.96C1444.4 1569.12 1444.58 1569.32 1444.71 1569.54C1444.85 1569.77 1444.94 1570.02 1444.97 1570.29L1451.09 1609.94C1451.13 1610.22 1451.11 1610.52 1451.03 1610.79C1450.95 1611.07 1450.81 1611.33 1450.63 1611.55C1450.44 1611.76 1450.21 1611.94 1449.94 1612.06C1449.68 1612.18 1449.4 1612.24 1449.11 1612.24V1612.25ZM3140.07 1583.87C3139.59 1583.87 3139.13 1583.7 3138.77 1583.39C3138.41 1583.08 3138.17 1582.65 3138.1 1582.17L3131.98 1542.52C3131.94 1542.26 3131.95 1541.99 3132.01 1541.73C3132.07 1541.47 3132.18 1541.23 3132.33 1541.02C3132.49 1540.8 3132.68 1540.62 3132.91 1540.48C3133.14 1540.34 3133.39 1540.25 3133.65 1540.21C3133.91 1540.17 3134.18 1540.18 3134.43 1540.25C3134.69 1540.31 3134.93 1540.43 3135.15 1540.58C3135.36 1540.74 3135.54 1540.94 3135.67 1541.17C3135.81 1541.4 3135.9 1541.65 3135.93 1541.91L3142.05 1581.56C3142.09 1581.85 3142.07 1582.14 3141.99 1582.42C3141.91 1582.69 3141.78 1582.95 3141.59 1583.17C3141.4 1583.39 3141.17 1583.56 3140.9 1583.68C3140.64 1583.8 3140.36 1583.86 3140.07 1583.86V1583.87ZM1436.88 1532.94C1436.4 1532.94 1435.94 1532.77 1435.58 1532.46C1435.22 1532.15 1434.98 1531.72 1434.9 1531.25L1428.79 1491.59C1428.75 1491.33 1428.76 1491.07 1428.82 1490.81C1428.88 1490.55 1428.99 1490.31 1429.14 1490.09C1429.3 1489.88 1429.5 1489.7 1429.72 1489.56C1429.95 1489.42 1430.2 1489.33 1430.46 1489.29C1430.72 1489.25 1430.99 1489.26 1431.24 1489.33C1431.5 1489.39 1431.74 1489.5 1431.95 1489.66C1432.17 1489.82 1432.35 1490.02 1432.48 1490.24C1432.62 1490.47 1432.71 1490.72 1432.74 1490.98L1438.86 1530.64C1438.9 1530.9 1438.89 1531.16 1438.82 1531.42C1438.76 1531.67 1438.65 1531.91 1438.49 1532.12C1438.34 1532.34 1438.14 1532.52 1437.92 1532.65C1437.69 1532.79 1437.45 1532.88 1437.19 1532.92C1437.09 1532.93 1436.98 1532.94 1436.88 1532.94H1436.88ZM3127.84 1504.56C3127.36 1504.56 3126.9 1504.39 3126.54 1504.08C3126.18 1503.77 3125.94 1503.34 3125.87 1502.87L3119.75 1463.21C3119.71 1462.95 3119.72 1462.68 3119.78 1462.43C3119.84 1462.17 3119.95 1461.93 3120.11 1461.71C3120.26 1461.5 3120.46 1461.32 3120.68 1461.18C3120.91 1461.04 3121.16 1460.95 3121.42 1460.91C3121.68 1460.87 3121.95 1460.88 3122.2 1460.95C3122.46 1461.01 3122.7 1461.12 3122.92 1461.28C3123.13 1461.44 3123.31 1461.64 3123.44 1461.86C3123.58 1462.09 3123.67 1462.34 3123.7 1462.6L3129.82 1502.26C3129.9 1502.78 3129.77 1503.32 3129.46 1503.74C3129.14 1504.17 3128.67 1504.46 3128.15 1504.54C3128.05 1504.55 3127.94 1504.56 3127.84 1504.56H3127.84ZM1424.65 1453.63C1424.17 1453.63 1423.71 1453.46 1423.35 1453.15C1422.99 1452.84 1422.75 1452.41 1422.68 1451.94L1416.56 1412.29C1416.49 1411.76 1416.62 1411.24 1416.94 1410.81C1417.25 1410.39 1417.72 1410.11 1418.24 1410.03C1418.76 1409.95 1419.29 1410.08 1419.71 1410.39C1420.14 1410.69 1420.43 1411.16 1420.51 1411.68L1426.63 1451.33C1426.67 1451.62 1426.65 1451.91 1426.57 1452.18C1426.49 1452.46 1426.36 1452.72 1426.17 1452.93C1425.98 1453.15 1425.75 1453.33 1425.48 1453.45C1425.22 1453.57 1424.94 1453.63 1424.65 1453.63V1453.63ZM3115.61 1425.25C3115.13 1425.25 3114.67 1425.08 3114.31 1424.77C3113.95 1424.46 3113.71 1424.03 3113.64 1423.55L3107.52 1383.9C3107.48 1383.64 3107.49 1383.37 3107.55 1383.11C3107.61 1382.86 3107.72 1382.61 3107.87 1382.4C3108.03 1382.18 3108.23 1382 3108.45 1381.86C3108.68 1381.73 3108.93 1381.63 3109.19 1381.59C3109.45 1381.55 3109.72 1381.57 3109.98 1381.63C3110.23 1381.69 3110.48 1381.81 3110.69 1381.97C3110.9 1382.12 3111.08 1382.32 3111.22 1382.55C3111.35 1382.78 3111.44 1383.03 3111.48 1383.29L3117.59 1422.95C3117.63 1423.23 3117.62 1423.52 3117.54 1423.8C3117.46 1424.08 3117.32 1424.33 3117.13 1424.55C3116.94 1424.77 3116.71 1424.94 3116.45 1425.06C3116.18 1425.18 3115.9 1425.25 3115.61 1425.25V1425.25ZM1412.42 1374.33C1411.94 1374.33 1411.48 1374.16 1411.12 1373.84C1410.76 1373.53 1410.52 1373.1 1410.45 1372.63L1404.33 1332.98C1404.29 1332.72 1404.3 1332.45 1404.36 1332.19C1404.42 1331.93 1404.53 1331.69 1404.68 1331.48C1404.84 1331.26 1405.04 1331.08 1405.26 1330.94C1405.49 1330.8 1405.74 1330.71 1406 1330.67C1406.26 1330.63 1406.53 1330.64 1406.79 1330.71C1407.04 1330.77 1407.29 1330.88 1407.5 1331.04C1407.71 1331.2 1407.89 1331.4 1408.03 1331.63C1408.16 1331.85 1408.25 1332.11 1408.29 1332.37L1414.4 1372.02C1414.44 1372.31 1414.42 1372.6 1414.34 1372.88C1414.27 1373.15 1414.13 1373.41 1413.94 1373.63C1413.75 1373.85 1413.52 1374.02 1413.26 1374.14C1412.99 1374.26 1412.71 1374.32 1412.42 1374.32V1374.33ZM3103.38 1345.95C3102.9 1345.95 3102.44 1345.78 3102.08 1345.46C3101.72 1345.15 3101.48 1344.72 3101.41 1344.25L3095.29 1304.6C3095.25 1304.34 3095.26 1304.07 3095.32 1303.81C3095.38 1303.55 3095.49 1303.31 3095.65 1303.1C3095.8 1302.88 3096 1302.7 3096.22 1302.56C3096.45 1302.42 3096.7 1302.33 3096.96 1302.29C3097.22 1302.25 3097.49 1302.26 3097.75 1302.33C3098.01 1302.39 3098.25 1302.5 3098.46 1302.66C3098.67 1302.82 3098.85 1303.02 3098.99 1303.25C3099.12 1303.47 3099.21 1303.73 3099.25 1303.99L3105.36 1343.64C3105.4 1343.9 3105.39 1344.17 3105.33 1344.42C3105.26 1344.68 3105.15 1344.92 3105 1345.13C3104.84 1345.34 3104.65 1345.52 3104.42 1345.66C3104.2 1345.79 3103.95 1345.88 3103.69 1345.92C3103.59 1345.94 3103.49 1345.95 3103.38 1345.95H3103.38ZM1400.19 1295.02C1399.71 1295.02 1399.25 1294.85 1398.89 1294.54C1398.53 1294.23 1398.29 1293.8 1398.22 1293.33L1392.1 1253.67C1392.06 1253.41 1392.07 1253.14 1392.13 1252.89C1392.19 1252.63 1392.3 1252.39 1392.46 1252.17C1392.61 1251.96 1392.81 1251.78 1393.03 1251.64C1393.26 1251.5 1393.51 1251.41 1393.77 1251.37C1394.03 1251.33 1394.3 1251.34 1394.56 1251.41C1394.81 1251.47 1395.06 1251.58 1395.27 1251.74C1395.48 1251.9 1395.66 1252.1 1395.79 1252.32C1395.93 1252.55 1396.02 1252.8 1396.06 1253.06L1402.17 1292.72C1402.25 1293.24 1402.12 1293.78 1401.81 1294.2C1401.49 1294.63 1401.02 1294.92 1400.5 1295C1400.4 1295.01 1400.3 1295.02 1400.19 1295.02H1400.19ZM3091.15 1266.64C3090.68 1266.64 3090.22 1266.47 3089.85 1266.16C3089.49 1265.85 3089.25 1265.42 3089.18 1264.94L3083.07 1225.29C3083.02 1225.03 3083.03 1224.76 3083.09 1224.51C3083.15 1224.25 3083.26 1224.01 3083.42 1223.79C3083.57 1223.58 3083.77 1223.4 3084 1223.26C3084.22 1223.12 3084.47 1223.03 3084.73 1222.99C3084.99 1222.95 3085.26 1222.96 3085.52 1223.02C3085.77 1223.09 3086.02 1223.2 3086.23 1223.36C3086.44 1223.52 3086.62 1223.71 3086.76 1223.94C3086.89 1224.17 3086.98 1224.42 3087.02 1224.68L3093.13 1264.34C3093.18 1264.62 3093.16 1264.91 3093.08 1265.19C3093 1265.47 3092.86 1265.72 3092.67 1265.94C3092.48 1266.16 3092.25 1266.33 3091.99 1266.45C3091.73 1266.57 3091.44 1266.64 3091.15 1266.64V1266.64ZM1387.96 1215.71C1387.49 1215.71 1387.02 1215.54 1386.66 1215.23C1386.3 1214.92 1386.06 1214.49 1385.99 1214.01L1379.87 1174.36C1379.8 1173.84 1379.94 1173.31 1380.25 1172.89C1380.56 1172.47 1381.03 1172.19 1381.55 1172.11C1382.07 1172.03 1382.6 1172.15 1383.03 1172.46C1383.45 1172.77 1383.74 1173.23 1383.83 1173.75L1389.94 1213.41C1389.99 1213.69 1389.97 1213.98 1389.89 1214.26C1389.81 1214.54 1389.67 1214.79 1389.48 1215.01C1389.29 1215.23 1389.06 1215.41 1388.8 1215.53C1388.54 1215.65 1388.25 1215.71 1387.96 1215.71V1215.71ZM3078.92 1187.33C3078.45 1187.33 3077.98 1187.16 3077.62 1186.85C3077.26 1186.54 3077.02 1186.11 3076.95 1185.63L3070.84 1145.98C3070.79 1145.72 3070.8 1145.45 3070.86 1145.19C3070.92 1144.94 3071.03 1144.69 3071.19 1144.48C3071.34 1144.26 3071.54 1144.08 3071.76 1143.94C3071.99 1143.8 3072.24 1143.71 3072.5 1143.67C3072.77 1143.63 3073.03 1143.64 3073.29 1143.71C3073.55 1143.77 3073.79 1143.89 3074 1144.04C3074.21 1144.2 3074.39 1144.4 3074.53 1144.63C3074.66 1144.86 3074.75 1145.11 3074.79 1145.37L3080.9 1185.02C3080.95 1185.31 3080.93 1185.6 3080.85 1185.88C3080.77 1186.16 3080.63 1186.41 3080.44 1186.63C3080.26 1186.85 3080.02 1187.03 3079.76 1187.15C3079.5 1187.27 3079.21 1187.33 3078.92 1187.33V1187.33ZM1375.74 1136.4C1375.26 1136.4 1374.8 1136.23 1374.44 1135.92C1374.07 1135.61 1373.83 1135.17 1373.76 1134.7L1367.65 1095.05C1367.61 1094.79 1367.61 1094.52 1367.67 1094.26C1367.73 1094 1367.85 1093.76 1368 1093.55C1368.16 1093.33 1368.35 1093.15 1368.58 1093.01C1368.8 1092.87 1369.06 1092.78 1369.32 1092.74C1369.58 1092.7 1369.85 1092.71 1370.1 1092.78C1370.36 1092.84 1370.6 1092.95 1370.81 1093.11C1371.03 1093.27 1371.21 1093.47 1371.34 1093.7C1371.48 1093.92 1371.57 1094.18 1371.6 1094.44L1377.72 1134.09C1377.76 1134.35 1377.74 1134.62 1377.68 1134.87C1377.62 1135.13 1377.51 1135.37 1377.35 1135.58C1377.2 1135.79 1377 1135.97 1376.78 1136.11C1376.55 1136.24 1376.3 1136.33 1376.04 1136.37C1375.94 1136.39 1375.84 1136.4 1375.74 1136.4V1136.4ZM3066.7 1108.02C3066.22 1108.02 3065.76 1107.85 3065.4 1107.54C3065.03 1107.23 3064.8 1106.79 3064.72 1106.32L3058.61 1066.67C3058.57 1066.41 3058.58 1066.14 3058.64 1065.88C3058.7 1065.63 3058.81 1065.38 3058.96 1065.17C3059.12 1064.96 3059.32 1064.77 3059.54 1064.64C3059.77 1064.5 3060.02 1064.41 3060.28 1064.37C3060.54 1064.33 3060.81 1064.34 3061.06 1064.4C3061.32 1064.46 3061.56 1064.58 3061.77 1064.74C3061.99 1064.89 3062.17 1065.09 3062.3 1065.32C3062.44 1065.55 3062.53 1065.8 3062.56 1066.06L3068.68 1105.71C3068.72 1105.97 3068.71 1106.24 3068.64 1106.49C3068.58 1106.75 3068.47 1106.99 3068.31 1107.2C3068.16 1107.41 3067.96 1107.59 3067.74 1107.73C3067.51 1107.86 3067.27 1107.95 3067.01 1107.99C3066.9 1108.01 3066.8 1108.02 3066.7 1108.03L3066.7 1108.02ZM1363.51 1057.1C1363.03 1057.1 1362.57 1056.93 1362.21 1056.62C1361.84 1056.31 1361.6 1055.87 1361.53 1055.4L1355.42 1015.75C1355.38 1015.49 1355.39 1015.22 1355.45 1014.97C1355.51 1014.71 1355.63 1014.47 1355.78 1014.26C1355.94 1014.05 1356.13 1013.87 1356.36 1013.73C1356.58 1013.6 1356.83 1013.51 1357.09 1013.47C1357.35 1013.43 1357.61 1013.44 1357.87 1013.5C1358.12 1013.56 1358.37 1013.68 1358.58 1013.83C1358.79 1013.99 1358.97 1014.18 1359.1 1014.41C1359.24 1014.63 1359.33 1014.88 1359.37 1015.14L1365.49 1054.79C1365.53 1055.08 1365.51 1055.37 1365.43 1055.65C1365.35 1055.92 1365.21 1056.18 1365.02 1056.4C1364.84 1056.62 1364.6 1056.79 1364.34 1056.91C1364.08 1057.03 1363.8 1057.09 1363.51 1057.09V1057.1ZM3054.47 1028.72C3053.99 1028.72 3053.53 1028.55 3053.17 1028.24C3052.81 1027.93 3052.57 1027.5 3052.49 1027.03L3046.38 987.373C3046.31 986.852 3046.44 986.322 3046.75 985.898C3047.07 985.475 3047.53 985.193 3048.05 985.112C3048.58 985.032 3049.11 985.16 3049.53 985.469C3049.96 985.779 3050.25 986.244 3050.33 986.763L3056.45 1026.42C3056.49 1026.7 3056.47 1026.99 3056.39 1027.27C3056.31 1027.55 3056.17 1027.8 3055.99 1028.02C3055.8 1028.24 3055.57 1028.42 3055.3 1028.54C3055.04 1028.66 3054.76 1028.72 3054.47 1028.72V1028.72ZM1351.34 977.784C1350.84 977.784 1350.37 977.601 1350 977.271C1349.64 976.942 1349.4 976.488 1349.35 975.998C1349.13 973.975 1349.02 971.942 1349.02 969.906C1348.89 957.886 1353.18 946.234 1361.07 937.167C1361.42 936.776 1361.92 936.54 1362.44 936.511C1362.97 936.482 1363.49 936.662 1363.88 937.013C1364.28 937.364 1364.52 937.856 1364.55 938.383C1364.58 938.91 1364.41 939.428 1364.06 939.825C1356.82 948.161 1352.89 958.866 1353.02 969.907C1353.02 971.799 1353.13 973.69 1353.33 975.57C1353.36 975.85 1353.33 976.132 1353.24 976.4C1353.16 976.667 1353.02 976.913 1352.83 977.122C1352.64 977.331 1352.41 977.498 1352.15 977.612C1351.9 977.726 1351.62 977.785 1351.34 977.784V977.784ZM3034.73 951.907C3034.42 951.908 3034.11 951.837 3033.83 951.699C3033.56 951.562 3033.31 951.362 3033.13 951.115C3025.24 940.688 3014.48 932.796 3002.16 928.414C3001.91 928.331 3001.68 928.198 3001.48 928.024C3001.28 927.85 3001.12 927.638 3001 927.4C3000.88 927.163 3000.81 926.904 3000.8 926.64C3000.78 926.375 3000.82 926.11 3000.91 925.86C3000.99 925.61 3001.13 925.38 3001.31 925.182C3001.48 924.985 3001.7 924.825 3001.93 924.711C3002.17 924.597 3002.43 924.532 3002.7 924.519C3002.96 924.506 3003.23 924.546 3003.48 924.636C3016.54 929.282 3027.95 937.648 3036.32 948.704C3036.54 949.001 3036.68 949.354 3036.71 949.725C3036.75 950.095 3036.68 950.468 3036.51 950.801C3036.35 951.134 3036.09 951.415 3035.78 951.611C3035.46 951.807 3035.1 951.911 3034.72 951.911L3034.73 951.907ZM2963.09 925.15H2922.97C2922.44 925.15 2921.93 924.94 2921.55 924.565C2921.18 924.19 2920.97 923.681 2920.97 923.15C2920.97 922.62 2921.18 922.111 2921.55 921.736C2921.93 921.361 2922.44 921.15 2922.97 921.15H2963.09C2963.62 921.15 2964.13 921.361 2964.5 921.736C2964.88 922.111 2965.09 922.62 2965.09 923.15C2965.09 923.681 2964.88 924.19 2964.5 924.565C2964.13 924.94 2963.62 925.15 2963.09 925.15ZM2882.84 925.15H2842.72C2842.19 925.15 2841.68 924.94 2841.31 924.565C2840.93 924.19 2840.72 923.681 2840.72 923.15C2840.72 922.62 2840.93 922.111 2841.31 921.736C2841.68 921.361 2842.19 921.15 2842.72 921.15H2882.84C2883.37 921.15 2883.88 921.361 2884.26 921.736C2884.63 922.111 2884.84 922.62 2884.84 923.15C2884.84 923.681 2884.63 924.19 2884.26 924.565C2883.88 924.94 2883.37 925.15 2882.84 925.15ZM2802.6 925.15H2762.48C2761.95 925.15 2761.44 924.94 2761.06 924.565C2760.69 924.19 2760.48 923.681 2760.48 923.15C2760.48 922.62 2760.69 922.111 2761.06 921.736C2761.44 921.361 2761.95 921.15 2762.48 921.15H2802.6C2803.13 921.15 2803.64 921.361 2804.01 921.736C2804.39 922.111 2804.6 922.62 2804.6 923.15C2804.6 923.681 2804.39 924.19 2804.01 924.565C2803.64 924.94 2803.13 925.15 2802.6 925.15V925.15ZM2722.36 925.15H2682.24C2681.71 925.15 2681.2 924.94 2680.82 924.565C2680.45 924.19 2680.24 923.681 2680.24 923.15C2680.24 922.62 2680.45 922.111 2680.82 921.736C2681.2 921.361 2681.71 921.15 2682.24 921.15H2722.36C2722.89 921.15 2723.4 921.361 2723.77 921.736C2724.15 922.111 2724.36 922.62 2724.36 923.15C2724.36 923.681 2724.15 924.19 2723.77 924.565C2723.4 924.94 2722.89 925.15 2722.36 925.15H2722.36ZM2642.11 925.15H2601.99C2601.46 925.15 2600.95 924.94 2600.57 924.565C2600.2 924.19 2599.99 923.681 2599.99 923.15C2599.99 922.62 2600.2 922.111 2600.57 921.736C2600.95 921.361 2601.46 921.15 2601.99 921.15H2642.11C2642.64 921.15 2643.15 921.361 2643.53 921.736C2643.9 922.111 2644.11 922.62 2644.11 923.15C2644.11 923.681 2643.9 924.19 2643.53 924.565C2643.15 924.94 2642.64 925.15 2642.11 925.15ZM2561.87 925.15H2521.74C2521.21 925.15 2520.7 924.94 2520.33 924.565C2519.95 924.19 2519.74 923.681 2519.74 923.15C2519.74 922.62 2519.95 922.111 2520.33 921.736C2520.7 921.361 2521.21 921.15 2521.74 921.15H2561.87C2562.4 921.15 2562.91 921.361 2563.28 921.736C2563.66 922.111 2563.87 922.62 2563.87 923.15C2563.87 923.681 2563.66 924.19 2563.28 924.565C2562.91 924.94 2562.4 925.15 2561.87 925.15ZM2481.62 925.15H2441.5C2440.97 925.15 2440.46 924.94 2440.09 924.565C2439.71 924.19 2439.5 923.681 2439.5 923.15C2439.5 922.62 2439.71 922.111 2440.09 921.736C2440.46 921.361 2440.97 921.15 2441.5 921.15H2481.62C2482.15 921.15 2482.66 921.361 2483.04 921.736C2483.41 922.111 2483.62 922.62 2483.62 923.15C2483.62 923.681 2483.41 924.19 2483.04 924.565C2482.66 924.94 2482.15 925.15 2481.62 925.15ZM2401.38 925.15H2361.26C2360.73 925.15 2360.22 924.94 2359.84 924.565C2359.47 924.19 2359.26 923.681 2359.26 923.15C2359.26 922.62 2359.47 922.111 2359.84 921.736C2360.22 921.361 2360.73 921.15 2361.26 921.15H2401.38C2401.91 921.15 2402.42 921.361 2402.79 921.736C2403.17 922.111 2403.38 922.62 2403.38 923.15C2403.38 923.681 2403.17 924.19 2402.79 924.565C2402.42 924.94 2401.91 925.15 2401.38 925.15ZM2321.13 925.15H2281.01C2280.48 925.15 2279.97 924.94 2279.6 924.565C2279.22 924.19 2279.01 923.681 2279.01 923.15C2279.01 922.62 2279.22 922.111 2279.6 921.736C2279.97 921.361 2280.48 921.15 2281.01 921.15H2321.14C2321.67 921.15 2322.18 921.361 2322.55 921.736C2322.93 922.111 2323.14 922.62 2323.14 923.15C2323.14 923.681 2322.93 924.19 2322.55 924.565C2322.18 924.94 2321.67 925.15 2321.14 925.15H2321.13ZM2240.89 925.15H2200.77C2200.24 925.15 2199.73 924.94 2199.35 924.565C2198.98 924.19 2198.77 923.681 2198.77 923.15C2198.77 922.62 2198.98 922.111 2199.35 921.736C2199.73 921.361 2200.24 921.15 2200.77 921.15H2240.89C2241.42 921.15 2241.93 921.361 2242.3 921.736C2242.68 922.111 2242.89 922.62 2242.89 923.15C2242.89 923.681 2242.68 924.19 2242.3 924.565C2241.93 924.94 2241.42 925.15 2240.89 925.15V925.15ZM2160.64 925.15H2120.52C2119.99 925.15 2119.48 924.94 2119.11 924.565C2118.73 924.19 2118.52 923.681 2118.52 923.15C2118.52 922.62 2118.73 922.111 2119.11 921.736C2119.48 921.361 2119.99 921.15 2120.52 921.15H2160.64C2161.18 921.15 2161.68 921.361 2162.06 921.736C2162.43 922.111 2162.64 922.62 2162.64 923.15C2162.64 923.681 2162.43 924.19 2162.06 924.565C2161.68 924.94 2161.18 925.15 2160.64 925.15ZM2080.4 925.15H2040.28C2039.75 925.15 2039.24 924.94 2038.86 924.565C2038.49 924.19 2038.28 923.681 2038.28 923.15C2038.28 922.62 2038.49 922.111 2038.86 921.736C2039.24 921.361 2039.75 921.15 2040.28 921.15H2080.4C2080.93 921.15 2081.44 921.361 2081.81 921.736C2082.19 922.111 2082.4 922.62 2082.4 923.15C2082.4 923.681 2082.19 924.19 2081.81 924.565C2081.44 924.94 2080.93 925.15 2080.4 925.15ZM2000.16 925.15H1960.04C1959.51 925.15 1959 924.94 1958.62 924.565C1958.25 924.19 1958.04 923.681 1958.04 923.15C1958.04 922.62 1958.25 922.111 1958.62 921.736C1959 921.361 1959.51 921.15 1960.04 921.15H2000.16C2000.69 921.15 2001.2 921.361 2001.57 921.736C2001.95 922.111 2002.16 922.62 2002.16 923.15C2002.16 923.681 2001.95 924.19 2001.57 924.565C2001.2 924.94 2000.69 925.15 2000.16 925.15H2000.16ZM1919.91 925.15H1879.79C1879.26 925.15 1878.75 924.94 1878.37 924.565C1878 924.19 1877.79 923.681 1877.79 923.15C1877.79 922.62 1878 922.111 1878.37 921.736C1878.75 921.361 1879.26 921.15 1879.79 921.15H1919.91C1920.44 921.15 1920.95 921.361 1921.33 921.736C1921.7 922.111 1921.91 922.62 1921.91 923.15C1921.91 923.681 1921.7 924.19 1921.33 924.565C1920.95 924.94 1920.44 925.15 1919.91 925.15ZM1839.67 925.15H1799.55C1799.01 925.15 1798.51 924.94 1798.13 924.565C1797.76 924.19 1797.55 923.681 1797.55 923.15C1797.55 922.62 1797.76 922.111 1798.13 921.736C1798.51 921.361 1799.01 921.15 1799.55 921.15H1839.67C1840.2 921.15 1840.71 921.361 1841.08 921.736C1841.46 922.111 1841.67 922.62 1841.67 923.15C1841.67 923.681 1841.46 924.19 1841.08 924.565C1840.71 924.94 1840.2 925.15 1839.67 925.15ZM1759.42 925.15H1719.3C1718.77 925.15 1718.26 924.94 1717.89 924.565C1717.51 924.19 1717.3 923.681 1717.3 923.15C1717.3 922.62 1717.51 922.111 1717.89 921.736C1718.26 921.361 1718.77 921.15 1719.3 921.15H1759.42C1759.95 921.15 1760.46 921.361 1760.84 921.736C1761.21 922.111 1761.42 922.62 1761.42 923.15C1761.42 923.681 1761.21 924.19 1760.84 924.565C1760.46 924.94 1759.95 925.15 1759.42 925.15ZM1679.18 925.15H1639.06C1638.53 925.15 1638.02 924.94 1637.64 924.565C1637.27 924.19 1637.06 923.681 1637.06 923.15C1637.06 922.62 1637.27 922.111 1637.64 921.736C1638.02 921.361 1638.53 921.15 1639.06 921.15H1679.18C1679.71 921.15 1680.22 921.361 1680.59 921.736C1680.97 922.111 1681.18 922.62 1681.18 923.15C1681.18 923.681 1680.97 924.19 1680.59 924.565C1680.22 924.94 1679.71 925.15 1679.18 925.15V925.15ZM1598.93 925.15H1558.81C1558.28 925.15 1557.77 924.94 1557.4 924.565C1557.02 924.19 1556.81 923.681 1556.81 923.15C1556.81 922.62 1557.02 922.111 1557.4 921.736C1557.77 921.361 1558.28 921.15 1558.81 921.15H1598.94C1599.47 921.15 1599.98 921.361 1600.35 921.736C1600.73 922.111 1600.94 922.62 1600.94 923.15C1600.94 923.681 1600.73 924.19 1600.35 924.565C1599.98 924.94 1599.47 925.15 1598.94 925.15H1598.93ZM1518.69 925.15H1478.57C1478.04 925.15 1477.53 924.94 1477.15 924.565C1476.78 924.19 1476.57 923.681 1476.57 923.15C1476.57 922.62 1476.78 922.111 1477.15 921.736C1477.53 921.361 1478.04 921.15 1478.57 921.15H1518.69C1519.22 921.15 1519.73 921.361 1520.1 921.736C1520.48 922.111 1520.69 922.62 1520.69 923.15C1520.69 923.681 1520.48 924.19 1520.1 924.565C1519.73 924.94 1519.22 925.15 1518.69 925.15ZM1438.45 925.15H1398.41C1397.87 925.152 1397.36 924.944 1396.98 924.569C1396.6 924.195 1396.38 923.685 1396.37 923.15C1396.36 922.89 1396.41 922.631 1396.5 922.389C1396.6 922.147 1396.74 921.927 1396.93 921.741C1397.11 921.555 1397.33 921.407 1397.57 921.305C1397.81 921.204 1398.06 921.151 1398.32 921.15V923.15L1398.35 921.15H1438.45C1438.98 921.15 1439.49 921.361 1439.86 921.736C1440.24 922.111 1440.45 922.62 1440.45 923.15C1440.45 923.681 1440.24 924.19 1439.86 924.565C1439.49 924.94 1438.98 925.15 1438.45 925.15H1438.45Z" fill="#F6AB36"/>
<path d="M2974.2 838.03H1372.09C1341.58 838.03 1313.03 813.296 1308.33 782.785L1303.8 753.436C1299.1 722.925 1320.02 698.191 1350.53 698.191H2952.64C2983.15 698.191 3011.7 722.925 3016.4 753.436L3020.93 782.785C3025.64 813.296 3004.72 838.03 2974.2 838.03Z" fill="#B7DCF6"/>
<path d="M1400.34 787.488C1409.93 777.121 1407.9 759.647 1395.81 748.459C1383.71 737.271 1366.13 736.606 1356.54 746.974C1346.95 757.341 1348.98 774.815 1361.07 786.003C1373.17 797.191 1390.75 797.856 1400.34 787.488Z" fill="white"/>
<path d="M1481.08 787.488C1490.67 777.121 1488.64 759.647 1476.55 748.459C1464.45 737.271 1446.88 736.606 1437.28 746.974C1427.69 757.341 1429.72 774.815 1441.82 786.003C1453.91 797.191 1471.49 797.856 1481.08 787.488Z" fill="white"/>
<path d="M1561.82 787.517C1571.42 777.153 1569.39 759.676 1557.3 748.482C1545.21 737.288 1527.63 736.615 1518.04 746.979C1508.44 757.344 1510.46 774.82 1522.55 786.015C1534.64 797.209 1552.22 797.881 1561.82 787.517Z" fill="white"/>
<path d="M2953.74 794.87H1660.65C1645.4 794.87 1631.13 782.503 1628.77 767.247C1626.42 751.992 1636.88 739.625 1652.14 739.625H2945.22C2960.47 739.625 2974.75 751.992 2977.1 767.247C2979.45 782.502 2968.99 794.87 2953.74 794.87Z" fill="white"/>
<path d="M3502.36 1792.55H2969.14C2932.41 1792.55 2897.68 1762.78 2891.56 1726.06C2885.44 1689.34 2910.25 1659.57 2946.97 1659.57H3480.2C3516.92 1659.57 3551.65 1689.34 3557.77 1726.06C3563.89 1762.78 3539.08 1792.55 3502.36 1792.55Z" fill="#B7DCF6"/>
<path d="M3002.26 1755.51C3016.18 1740.37 3012.98 1714.77 2995.1 1698.32C2977.22 1681.87 2951.43 1680.81 2937.51 1695.95C2923.58 1711.09 2926.79 1736.69 2944.67 1753.14C2962.55 1769.58 2988.33 1770.65 3002.26 1755.51Z" fill="white"/>
<path d="M3487.15 1699.4H3041.94C3039.97 1699.34 3038.08 1698.6 3036.58 1697.31C3035.08 1696.03 3034.07 1694.27 3033.7 1692.34V1692.34C3033.51 1691.47 3033.52 1690.57 3033.73 1689.71C3033.94 1688.85 3034.35 1688.04 3034.92 1687.36C3035.48 1686.68 3036.2 1686.14 3037.01 1685.77C3037.82 1685.41 3038.7 1685.24 3039.59 1685.27H3484.8C3486.77 1685.33 3488.66 1686.07 3490.16 1687.36C3491.66 1688.64 3492.68 1690.4 3493.04 1692.34V1692.34C3493.23 1693.2 3493.22 1694.1 3493.01 1694.96C3492.8 1695.82 3492.39 1696.63 3491.83 1697.31C3491.26 1697.99 3490.54 1698.53 3489.73 1698.9C3488.92 1699.26 3488.04 1699.43 3487.15 1699.4Z" fill="white"/>
<path d="M3405.99 1732.8H3047.51C3045.54 1732.74 3043.65 1732 3042.15 1730.72C3040.65 1729.43 3039.63 1727.67 3039.27 1725.74V1725.74C3039.08 1724.87 3039.09 1723.97 3039.3 1723.11C3039.51 1722.25 3039.91 1721.44 3040.48 1720.76C3041.05 1720.08 3041.77 1719.54 3042.58 1719.17C3043.39 1718.81 3044.27 1718.64 3045.15 1718.67H3403.64C3405.61 1718.73 3407.5 1719.47 3409 1720.76C3410.5 1722.04 3411.51 1723.8 3411.88 1725.74V1725.74C3412.07 1726.6 3412.06 1727.5 3411.85 1728.36C3411.64 1729.22 3411.23 1730.03 3410.67 1730.71C3410.1 1731.39 3409.38 1731.93 3408.57 1732.3C3407.76 1732.66 3406.88 1732.83 3405.99 1732.8Z" fill="white"/>
<path d="M3455.89 1766.21H3053.08C3051.11 1766.15 3049.21 1765.41 3047.72 1764.12C3046.22 1762.84 3045.2 1761.08 3044.83 1759.15V1759.15C3044.65 1758.28 3044.66 1757.38 3044.87 1756.52C3045.08 1755.66 3045.48 1754.85 3046.05 1754.17C3046.62 1753.49 3047.34 1752.95 3048.14 1752.58C3048.95 1752.22 3049.84 1752.05 3050.72 1752.08H3453.54C3455.51 1752.14 3457.4 1752.88 3458.9 1754.17C3460.4 1755.45 3461.41 1757.21 3461.78 1759.15V1759.15C3461.97 1760.01 3461.96 1760.91 3461.75 1761.77C3461.54 1762.64 3461.13 1763.44 3460.56 1764.12C3460 1764.8 3459.28 1765.34 3458.47 1765.71C3457.66 1766.07 3456.78 1766.24 3455.89 1766.21V1766.21Z" fill="white"/>
<path d="M1407.54 1083.76C1417.07 1087.17 1441.17 1097.16 1449.19 1117.8C1450.6 1121.43 1452.98 1127.8 1450.08 1132.9C1445.01 1141.8 1427.83 1139.85 1426.55 1139.69C1400.87 1136.49 1378.46 1104.84 1385.13 1091.84C1386.95 1088.28 1392 1084.07 1407.54 1083.76Z" fill="#F9BAB5"/>
<path d="M1451.63 1102.9C1455.59 1104.19 1460.3 1106.1 1460.93 1110.22C1461.49 1113.83 1458.21 1117.13 1454.64 1117.9C1451.08 1118.67 1447.39 1117.59 1443.94 1116.41C1437.2 1114.1 1430.59 1111.42 1424.15 1108.36C1423.08 1107.97 1422.14 1107.27 1421.45 1106.37C1420.62 1105.03 1420.93 1103.31 1421.28 1101.77C1422.05 1098.32 1422.68 1094.79 1423.77 1091.45C1433.07 1093.97 1442.24 1099.78 1451.63 1102.9Z" fill="#F9BAB5"/>
<path d="M1119.66 884.39C1119.66 884.39 1048.59 884.526 1091.16 956.268C1133.73 1028.01 1160.32 1037.98 1192.55 1064.53C1224.78 1091.08 1378.67 1118.61 1378.67 1118.61L1398.5 1082.67C1398.5 1082.67 1264.65 1024.43 1227.81 1002.37C1207.01 989.924 1156.84 922.807 1119.66 884.39Z" fill="#2B5699"/>
<path d="M1082.06 1884.67C1082.06 1900.66 1080.29 1926.66 1080.29 1942.65C1068.78 1945.21 1059.27 1947.48 1047.52 1940.32C1046.24 1917.93 1044.96 1895.55 1043.68 1873.16L1082.06 1884.67Z" fill="#F9BAB5"/>
<path d="M911.265 1882.6C911.905 1899.23 912.545 1915.86 913.184 1932.5C914.884 1934.08 924.243 1942.5 937.517 1941.34C942.543 1940.87 947.373 1939.15 951.565 1936.34C952.205 1916.51 952.845 1896.68 953.484 1876.85L911.265 1882.6Z" fill="#F9BAB5"/>
<path d="M1106.2 1615.34C1103.94 1675.76 1100.44 1728 1100.44 1728C1098.59 1755.64 1097.07 1773.3 1094.68 1810.84C1092.61 1843.34 1091.22 1882.21 1090.37 1899.39C1088.12 1900.24 1085.66 1901.08 1083.03 1901.87C1076.5 1903.85 1069.8 1905.24 1063.02 1906.02C1054.42 1907.02 1045.73 1907.02 1037.12 1906.02C1023.03 1833.54 1021.48 1763.04 1022.73 1723.03C1023.96 1683.72 1028.02 1657.9 1025.61 1612.03C1023.51 1572.3 1017.38 1532.88 1007.32 1494.38L1007.22 1493.99C1005.43 1528.46 1001.85 1581.18 993.947 1646.83C992.247 1660.99 990.947 1670.68 989.947 1678.23C984.128 1722.51 976.047 1789.91 966.6 1888.71C959.296 1892.3 951.498 1894.77 943.465 1896.06C931.954 1897.87 920.184 1897.06 909.031 1893.68C908.614 1874.96 907.813 1846.85 906.151 1812.5C904.694 1782.33 903.731 1771.35 903.271 1759.48C902.171 1730.97 903.706 1689.75 916.223 1636.88C908.946 1590.2 904.575 1550.17 901.831 1519.26C898.338 1479.91 895.398 1445.7 896.079 1399.97C896.241 1388.89 896.599 1378.46 897.068 1368.77C897.613 1357.69 898.303 1347.6 899.036 1338.65C899.488 1333.26 899.936 1328.28 900.391 1323.76C967.077 1324.86 1033.76 1325.97 1100.44 1327.07C1100.57 1329.32 1100.71 1331.96 1100.88 1334.95C1103.44 1381.46 1110 1513.66 1106.2 1615.34Z" fill="#1F3A6F"/>
<path d="M911.903 1923.91C905.574 1926.57 906.781 1943.11 907.585 1954.13C908.677 1969.1 909.292 1977.52 914.208 1984.53C921.757 1995.28 934.353 1995.44 971.108 1998.93C1029.19 2004.44 1045.18 2008.56 1052.01 1998.24C1055.64 1992.74 1055.85 1984.39 1052.69 1978.36C1042.85 1959.56 1007.65 1977.46 980.707 1955.05C967.718 1944.24 960.986 1927.67 950.76 1929.67C946.35 1930.53 946.06 1933.91 940.943 1935.17C928.486 1938.23 918.974 1920.94 911.903 1923.91Z" fill="#152243"/>
<path d="M1106.2 1615.34C1103.94 1675.76 1100.44 1728 1100.44 1728C1098.59 1755.64 1097.07 1773.3 1094.68 1810.84C1092.61 1843.34 1091.22 1882.21 1090.36 1899.39C1088.12 1900.24 1085.66 1901.08 1083.03 1901.87C1083.13 1791.97 1109.9 1388.97 1044.47 1375.04C1043.35 1374.8 1032.91 1375.61 1012.01 1377.23C950.85 1381.98 939.261 1385.16 920.864 1379.45C912.557 1376.79 904.574 1373.21 897.064 1368.77C897.609 1357.69 898.299 1347.6 899.032 1338.65C925.439 1332.69 983.467 1329.88 1100.88 1334.95C1103.44 1381.46 1110 1513.66 1106.2 1615.34Z" fill="#1D2355"/>
<path d="M1007.32 1494.37L1007.22 1493.98C1005.43 1528.45 1001.84 1581.17 993.942 1646.82C992.242 1660.98 990.942 1670.68 989.942 1678.22C984.123 1722.5 976.042 1789.91 966.595 1888.71C959.29 1892.29 951.493 1894.77 943.46 1896.05C942.349 1847.22 945.057 1798.37 951.56 1749.95C958.198 1701.03 966.028 1662.12 979.33 1600.33C989.683 1552.21 999.371 1512.49 1006.41 1484.73C1006.73 1487.99 1007.03 1491.2 1007.32 1494.37Z" fill="#1D2355"/>
<path d="M1041.68 1930.95C1035.88 1933.91 1038.2 1949.46 1039.74 1959.82C1041.83 1973.88 1043.01 1981.8 1048.15 1988.07C1056.04 1997.7 1067.96 1996.95 1102.94 1997.64C1158.21 1998.73 1173.62 2001.5 1179.34 1991.26C1182.39 1985.81 1181.99 1977.9 1178.58 1972.43C1167.94 1955.36 1135.95 1974.77 1108.9 1955.5C1095.86 1946.21 1088.33 1931.03 1078.8 1933.64C1074.7 1934.76 1074.66 1937.98 1069.92 1939.53C1058.36 1943.3 1048.15 1927.64 1041.68 1930.95Z" fill="#152243"/>
<path d="M1100.66 870.036C1100.8 913.006 1077.69 965.75 1077.55 1008.7C1077.19 1116.54 1075.93 1224.39 1073.76 1332.25L996.216 1339.09C1001.69 1204.75 989.902 1097.49 976.858 1020.78C965.63 954.755 918.228 886.397 941.314 864.923C944.163 862.273 968.348 854.782 972.842 853.846C1001.66 847.843 1068.33 850.309 1100.66 870.036Z" fill="#FFFFED"/>
<path d="M986.927 788.193C988.805 804.193 988.368 825.148 976.858 843.572C961.406 868.306 987.493 890.023 1026.52 895.599C1050.38 899.008 1074.69 876.888 1063.17 856.399C1053.91 839.942 1064.2 821.699 1066.62 808.133L986.927 788.193Z" fill="#F9A59F"/>
<path d="M977.102 843.621L962.616 856.402C962.616 856.402 976.25 902.416 1013.74 912.641L1029.08 895.599C1029.08 895.599 985.623 881.113 977.102 843.621Z" fill="white"/>
<path d="M1029.08 895.602L1052.09 911.792C1052.09 911.792 1073.39 881.116 1066.57 858.962L1061.63 853.249C1061.63 853.249 1054.64 889.634 1029.08 895.602Z" fill="white"/>
<path d="M1029.08 895.602L1013.74 912.644L1035.9 927.13L1052.09 911.792L1029.08 895.602Z" fill="#1F3A6F"/>
<path d="M1023.59 919.077C1023.59 919.077 1034.19 967.177 1037.6 1036.2C1041.01 1105.22 1040.16 1181.06 1040.16 1181.06L1051.23 1206.62L1061.46 1177.65C1061.46 1177.65 1060.61 978.253 1043.57 915.198L1023.59 919.077Z" fill="#1F3A6F"/>
<path d="M1087.72 713.959C1087.81 725.066 1087.82 740.37 1087.45 758.624C1086.67 796.818 1085.1 804.375 1080.61 812.224C1079.54 814.088 1066.18 836.587 1041.4 839.687C1007.44 843.935 989.794 807.512 986.014 797.192C985.254 795.042 984.647 792.842 984.197 790.607C981.642 778.359 978.385 768.107 980.25 762.046C978.461 754.346 976.684 748.237 975.412 744.134C971.812 732.507 969.406 725.87 971.635 717.604C971.89 716.692 972.27 715.82 972.765 715.014C975.651 710.17 985.224 701.424 1042.72 707.343C1054.33 708.537 1069.69 710.511 1087.72 713.959Z" fill="#F9BAB5"/>
<path d="M1048.31 803.56C1048.31 803.56 1068.23 802.26 1079.23 793.429C1079.24 793.429 1076.05 829.685 1048.31 803.56Z" fill="white"/>
<path d="M974.271 773.663C979.135 775.705 986.271 772.596 989.971 768.427C995.596 762.077 990.357 754.816 993.939 739.237C995.551 732.226 997.419 724.096 1003.66 720.537C1010.23 716.782 1017.07 720.715 1028.16 723.277C1031.14 723.979 1034.17 724.504 1037.22 724.851C1049.37 726.203 1058.97 724.951 1069.21 723.277C1077.67 721.961 1085.98 719.847 1094.04 716.963C1104.76 713.074 1107.71 710.37 1109.43 708.411C1110.53 707.155 1116.87 699.937 1115.21 690.611C1114 683.764 1109.1 679.739 1107.23 678.066C1100.02 671.612 1090.65 671.473 1084.42 671.224C1051.24 669.898 1053.83 663.337 1033.18 664.924C1020.67 665.886 1001.2 667.189 986.36 680.024C954.981 707.164 959.218 767.343 974.271 773.663Z" fill="#1B2037"/>
<path d="M982.055 770.993C981.226 770.463 980.313 770.078 979.355 769.855C977.244 769.235 974.968 768.617 972.888 769.333C972.163 769.626 971.508 770.067 970.964 770.628C970.421 771.19 970.001 771.859 969.732 772.593C969.463 773.327 969.351 774.109 969.403 774.889C969.454 775.669 969.669 776.429 970.033 777.121C970.7 778.048 971.421 778.934 972.193 779.776C973.224 781.365 974.105 783.046 974.826 784.798C976.833 788.711 980.113 791.825 984.126 793.625C985.554 794.131 986.918 794.803 988.191 795.625C987.904 795.406 988.675 789.712 988.652 788.934C988.581 786.521 988.259 784.122 987.693 781.775C986.837 778.222 985.189 773.263 982.055 770.993Z" fill="#F9BAB5"/>
<path d="M1157.77 1065.77C1156.75 1079.52 1155.52 1094.06 1154.07 1109.39C1153.71 1113.3 1153.29 1117.22 1152.85 1121.16C1146.17 1179.82 1131.07 1241.8 1139.85 1347.21C1117.03 1347.21 1093.65 1357.44 1070.83 1357.44C1068.83 1349.37 1067.61 1341.13 1067.19 1332.82C1064.85 1296.27 1071.37 1244.04 1076.2 1181.46C1077.95 1158.89 1079.47 1134.96 1080.27 1109.94C1080.85 1092.19 1081.07 1073.88 1080.75 1055.12C1080.67 1050.25 1080.54 1045.34 1080.39 1040.4C1079.93 1026.49 1079.14 1012.35 1078.02 997.987C1077.24 988.094 1076.27 978.108 1075.09 968.027C1065.58 886.488 1059.51 859.766 1064.18 856.69C1064.64 856.398 1065.19 856.295 1065.72 856.401C1083.62 858.957 1104.79 870.758 1118.42 883.15C1154.37 915.837 1164.64 974.153 1157.77 1065.77Z" fill="#2B5699"/>
<path d="M1023.58 1352.78C974.17 1356.58 920.095 1335.28 870.673 1339.09C868.236 1291.17 883.429 1286.59 891.039 1183.61C901.784 1038.32 818.277 943.75 883.37 891.337C902.917 875.607 940.67 862.868 962.615 855.548C964.209 855.02 965.879 856.358 967.609 859.161C974.221 869.855 981.703 901.835 988.937 932.178C998.966 974.507 1005.92 1017.51 1009.75 1060.84C1012.05 1086.44 1012.74 1106.59 1012.97 1118.99C1013.05 1123.07 1013.03 1123.93 1013.1 1129.53C1013.75 1182.19 1016.17 1255.68 1023.58 1352.78Z" fill="#2B5699"/>
<path opacity="0.6" d="M856.648 951.611C856.648 951.611 882.956 1070.28 925.091 1118.61C967.226 1166.94 1140.72 1258.65 1140.72 1258.65L1156 1217.64L1057.69 1149.59L969.705 1055.41C969.705 1055.41 933.201 913.493 856.648 951.611Z" fill="#0D182E"/>
<path d="M1104.15 958.802L1082.42 1060.9L1080.75 1055.12C1080.67 1050.24 1080.54 1045.34 1080.39 1040.4C1079.93 1026.49 1079.14 1012.35 1078.02 997.983C1077.24 988.09 1076.27 978.104 1075.09 968.023C1065.58 886.484 1059.51 859.762 1064.18 856.686C1064.18 856.686 1082.85 855.826 1089.67 895.593C1096.48 935.36 1083.7 943.746 1083.7 943.746L1104.15 958.802Z" fill="#1E3E6E"/>
<path d="M972.347 993.044L981.447 962.351C981.447 962.351 955.884 928.267 951.347 906.675C946.81 885.083 962.62 855.548 962.62 855.548C962.62 855.548 964.512 856.767 967.614 859.161C974.226 869.855 981.708 901.835 988.942 932.178C998.971 974.507 1005.93 1017.51 1009.76 1060.84C1002.83 1025.36 972.347 993.044 972.347 993.044Z" fill="#1E3E6E"/>
<path d="M1733.44 654.218C1580.46 654.218 1456.46 778.218 1456.46 931.195C1456.46 1084.17 1580.46 1208.17 1733.44 1208.17C1886.41 1208.17 2010.41 1084.17 2010.41 931.195C2010.41 778.217 1886.42 654.218 1733.44 654.218ZM1733.44 1163.16C1605.32 1163.16 1501.47 1059.31 1501.47 931.195C1501.47 803.075 1605.32 699.226 1733.44 699.226C1861.56 699.226 1965.41 803.076 1965.41 931.195C1965.41 1059.31 1861.56 1163.16 1733.44 1163.16V1163.16Z" fill="#4D93C4"/>
<path opacity="0.4" d="M1897.47 1095.22C1988.06 1004.63 1988.06 857.758 1897.47 767.168C1806.88 676.578 1660 676.578 1569.41 767.168C1478.82 857.758 1478.82 1004.63 1569.41 1095.22C1660 1185.81 1806.88 1185.81 1897.47 1095.22Z" fill="#B7DCF6"/>
<path d="M988.781 1342.03L984.475 1334.29C982.089 1330.01 981.503 1324.95 982.847 1320.23C984.191 1315.51 987.355 1311.52 991.642 1309.13L1492.24 1030.46C1496.53 1028.08 1501.59 1027.49 1506.31 1028.83C1511.03 1030.18 1515.02 1033.34 1517.4 1037.63L1521.71 1045.36C1522.89 1047.49 1523.64 1049.82 1523.92 1052.23C1524.2 1054.65 1524 1057.09 1523.34 1059.43C1522.67 1061.76 1521.55 1063.95 1520.04 1065.85C1518.54 1067.76 1516.67 1069.34 1514.54 1070.53L1013.94 1349.2C1011.82 1350.38 1009.49 1351.13 1007.07 1351.41C1004.66 1351.69 1002.21 1351.49 999.878 1350.82C997.542 1350.16 995.359 1349.04 993.455 1347.53C991.551 1346.02 989.963 1344.15 988.781 1342.03V1342.03Z" fill="#4D93C4"/>
<path opacity="0.7" d="M1596.46 1062.32C1594.16 1060.16 1591.91 1057.94 1589.69 1055.65C1514.11 977.392 1516.27 852.678 1594.53 777.09C1672.78 701.502 1797.5 703.666 1873.09 781.923C1875.29 784.21 1877.44 786.54 1879.52 788.915C1803.44 717.27 1683.7 717.378 1607.73 790.756C1531.76 864.134 1527.5 983.802 1596.46 1062.32Z" fill="white"/>
<path d="M1139.82 1207.55C1149.87 1208.78 1175.58 1213.22 1187.95 1231.58C1190.13 1234.81 1193.85 1240.5 1192.14 1246.12C1189.16 1255.92 1171.98 1257.8 1170.69 1257.93C1144.94 1260.47 1116.1 1234.53 1119.74 1220.38C1120.74 1216.5 1124.74 1211.28 1139.82 1207.55Z" fill="#F9BAB5"/>
<path d="M888.528 892.85C888.528 892.85 829.195 911.061 869.19 984.268C909.185 1057.47 939.434 1113.61 970.701 1141.29C1001.97 1168.96 1122.7 1240.8 1122.7 1240.8L1146.96 1207.61C1146.96 1207.61 1028.63 1105.2 1013.78 1086.04C998.936 1066.88 955.547 874.975 888.528 892.85Z" fill="#244380"/>
</g>
<defs>
<linearGradient id="paint0_linear_502_530" x1="2274.02" y1="1781.36" x2="2274.02" y2="-57.7543" gradientUnits="userSpaceOnUse">
<stop stop-color="white"/>
<stop offset="1" stop-color="#DCECF9"/>
</linearGradient>
<linearGradient id="paint1_linear_502_530" x1="-79.6711" y1="818.269" x2="-74.9507" y2="930.816" gradientUnits="userSpaceOnUse">
<stop stop-color="#70453B"/>
<stop offset="1" stop-color="#A36B62"/>
</linearGradient>
<linearGradient id="paint2_linear_502_530" x1="2089.06" y1="1911.01" x2="2089.06" y2="638.946" gradientUnits="userSpaceOnUse">
<stop stop-color="white"/>
<stop offset="1" stop-color="#DCECF9"/>
</linearGradient>
<clipPath id="clip0_502_530">
<rect width="4597.95" height="2012.8" fill="white"/>
</clipPath>
</defs>
</svg>
