<svg width="54" height="54" viewBox="0 0 54 54" fill="none" xmlns="http://www.w3.org/2000/svg">
<path d="M45.5625 0H8.4375C3.7776 0 0 3.7776 0 8.4375V45.5625C0 50.2224 3.7776 54 8.4375 54H45.5625C50.2224 54 54 50.2224 54 45.5625V8.4375C54 3.7776 50.2224 0 45.5625 0Z" fill="#1877F2"/>
<path d="M40.5 27C40.5 19.575 34.425 13.5 27 13.5C19.575 13.5 13.5 19.575 13.5 27C13.5 33.75 18.3937 39.3187 24.8062 40.3312V30.8812H21.4312V27H24.8062V23.9625C24.8062 20.5875 26.8313 18.7313 29.8688 18.7313C31.3875 18.7313 32.9062 19.0688 32.9062 19.0688V22.4438H31.2188C29.5312 22.4438 29.025 23.4563 29.025 24.4688V27H32.7375L32.0625 30.8812H28.8563V40.5C35.6063 39.4875 40.5 33.75 40.5 27Z" fill="white"/>
</svg>
