<svg width="133" height="60" viewBox="0 0 133 60" fill="none" xmlns="http://www.w3.org/2000/svg">
<path d="M72.7429 36.9931V20.7952H75.6787V36.9931H72.7429Z" fill="black"/>
<path d="M47.895 21.2433L54.1019 36.9931H56.5219L62.7962 21.2433H59.5471L55.3485 32.3011L51.1889 21.2433H47.895Z" fill="black"/>
<path fill-rule="evenodd" clip-rule="evenodd" d="M63.2345 36.4777C64.1158 36.9707 65.102 37.2169 66.1926 37.2169C67.2829 37.2169 68.2615 36.9707 69.128 36.4777C70.0094 35.9699 70.7039 35.2904 71.2119 34.439C71.7199 33.5728 71.9739 32.6095 71.9739 31.5489C71.9739 30.4885 71.7199 29.5401 71.2119 28.7037C70.7039 27.8524 70.0094 27.1802 69.128 26.6874C68.2615 26.1796 67.2754 25.9257 66.1702 25.9257C65.0945 25.9257 64.1158 26.1796 63.2345 26.6874C62.3531 27.1802 61.6586 27.8524 61.1506 28.7037C60.6426 29.5401 60.3889 30.4885 60.3889 31.5489C60.3889 32.6095 60.6426 33.5728 61.1506 34.439C61.6735 35.2904 62.368 35.9699 63.2345 36.4777ZM67.6267 34.1254C67.2083 34.3644 66.7226 34.4838 66.1702 34.4838C65.6324 34.4838 65.1542 34.3644 64.7361 34.1254C64.3176 33.8715 63.989 33.528 63.7499 33.0947C63.5109 32.6468 63.3915 32.1389 63.3915 31.5713C63.3915 31.0038 63.5109 30.5034 63.7499 30.0703C63.989 29.6372 64.3176 29.3011 64.7361 29.0621C65.1542 28.8083 65.6324 28.6813 66.1702 28.6813C66.7226 28.6813 67.2083 28.8083 67.6267 29.0621C68.0449 29.3011 68.3735 29.6372 68.6125 30.0703C68.8516 30.5034 68.971 31.0038 68.971 31.5713C68.971 32.1389 68.8516 32.6468 68.6125 33.0947C68.3884 33.528 68.0598 33.8715 67.6267 34.1254Z" fill="black"/>
<path d="M79.2207 36.612C79.9675 37.0155 80.819 37.2169 81.7753 37.2169C82.7313 37.2169 83.5753 37.0229 84.3072 36.6344C85.0542 36.2313 85.6294 35.6712 86.0326 34.9544C86.4511 34.2373 86.66 33.4009 86.66 32.4451V26.1721H83.7246V32.3779C83.7246 33.05 83.553 33.5728 83.2091 33.9461C82.8656 34.3194 82.3877 34.5062 81.7753 34.5062C81.3718 34.5062 81.0208 34.4241 80.722 34.2597C80.4232 34.0956 80.1991 33.8566 80.0499 33.5429C79.9003 33.2144 79.8257 32.8259 79.8257 32.3779V26.1721H76.8679V32.4451C76.8679 33.386 77.0768 34.2149 77.4953 34.932C77.9134 35.6488 78.4886 36.2089 79.2207 36.612Z" fill="black"/>
<path d="M87.8772 36.9931V26.1721H90.8126V27.1109C91.075 26.8546 91.3738 26.6387 91.7089 26.4633C92.3363 26.1198 93.046 25.9481 93.8375 25.9481C94.5846 25.9481 95.2642 26.1198 95.8767 26.4633C96.3902 26.7387 96.8142 27.1137 97.1492 27.5884C97.5113 27.1264 97.9534 26.7589 98.476 26.4857C99.1335 26.1273 99.8654 25.9481 100.672 25.9481C101.479 25.9481 102.203 26.1198 102.846 26.4633C103.488 26.7919 103.996 27.2698 104.37 27.8972C104.743 28.5245 104.93 29.2712 104.93 30.1375V36.9931H101.994V30.608C101.994 29.9807 101.793 29.4953 101.389 29.1518C101.001 28.7933 100.515 28.6141 99.9325 28.6141C99.5591 28.6141 99.2081 28.6962 98.8795 28.8605C98.5659 29.0099 98.3193 29.2339 98.1399 29.5326C97.9609 29.8313 97.871 30.1898 97.871 30.608V36.9931H94.9356V30.608C94.9356 29.9807 94.7338 29.4953 94.3306 29.1518C93.9423 28.7933 93.4567 28.6141 92.8741 28.6141C92.4858 28.6141 92.1345 28.6962 91.8208 28.8605C91.5071 29.0099 91.2606 29.2339 91.0815 29.5326C90.9021 29.8313 90.8126 30.1898 90.8126 30.608V36.9931H87.8772Z" fill="black"/>
<path fill-rule="evenodd" clip-rule="evenodd" d="M108.34 36.5001C109.221 36.9782 110.23 37.2169 111.365 37.2169C112.247 37.2169 113.061 37.0602 113.808 36.7466C114.57 36.433 115.212 35.9699 115.735 35.3575L114.009 33.6324C113.681 34.0057 113.292 34.2895 112.844 34.4838C112.396 34.6631 111.896 34.7527 111.343 34.7527C110.73 34.7527 110.193 34.6255 109.729 34.3719C109.266 34.103 108.908 33.7294 108.654 33.2517C108.558 33.0545 108.482 32.8447 108.425 32.6215L116.34 32.6017C116.399 32.348 116.437 32.124 116.452 31.9298C116.482 31.7207 116.497 31.5191 116.497 31.3249C116.497 30.2943 116.265 29.3758 115.802 28.5693C115.354 27.7478 114.726 27.1056 113.92 26.6426C113.128 26.1646 112.209 25.9257 111.163 25.9257C110.103 25.9257 109.139 26.1796 108.273 26.6874C107.406 27.1802 106.719 27.8524 106.211 28.7037C105.718 29.5401 105.472 30.496 105.472 31.5713C105.472 32.6617 105.726 33.6324 106.234 34.4838C106.757 35.3352 107.459 36.0072 108.34 36.5001ZM108.427 30.4253C108.479 30.2273 108.548 30.0417 108.631 29.8687C108.87 29.3907 109.206 29.0248 109.64 28.7709C110.073 28.5021 110.581 28.3676 111.163 28.3676C111.716 28.3676 112.179 28.4871 112.553 28.7261C112.941 28.9501 113.232 29.2787 113.427 29.7119C113.527 29.9204 113.607 30.1532 113.666 30.4102L108.427 30.4253Z" fill="black"/>
<path fill-rule="evenodd" clip-rule="evenodd" d="M29.8538 43.4993C37.384 43.4993 43.4881 37.3962 43.4881 29.8678C43.4881 22.3392 37.384 16.2361 29.8538 16.2361C22.3238 16.2361 16.2195 22.3392 16.2195 29.8678C16.2195 37.3962 22.3238 43.4993 29.8538 43.4993ZM35.5006 21.5242C35.6625 21.661 35.7556 21.8621 35.7556 22.074L35.7552 24.8127L35.7556 24.9929L35.7552 25.0144V34.1821C35.7552 35.7743 34.4642 37.0651 32.8717 37.0651C31.2792 37.0651 29.9883 35.7743 29.9883 34.1821C29.9883 32.59 31.2792 31.2992 32.8717 31.2992C33.3969 31.2992 33.8893 31.4396 34.3133 31.6849V25.8436L27.1046 27.0451V35.6234C27.1046 37.2159 25.8137 38.5064 24.2212 38.5064C22.6287 38.5064 21.3378 37.2159 21.3378 35.6234C21.3378 34.0313 22.6287 32.7405 24.2212 32.7405C24.7464 32.7405 25.2391 32.881 25.6629 33.1265L25.6632 26.4343L25.6629 26.2541L25.6632 26.2326V23.5154C25.6632 23.1632 25.9179 22.8625 26.2658 22.8045L34.916 21.3631C35.1249 21.3283 35.3387 21.3872 35.5006 21.5242Z" fill="black"/>
</svg>
