<svg width="463" height="448" viewBox="0 0 463 448" fill="none" xmlns="http://www.w3.org/2000/svg">
<path d="M142.922 283.051C142.741 283.051 142.564 283.003 142.408 282.912L134.833 278.805C134.709 278.738 134.598 278.647 134.509 278.538C134.419 278.428 134.352 278.302 134.312 278.167C134.271 278.031 134.258 277.889 134.273 277.749C134.287 277.608 134.33 277.472 134.397 277.348C134.534 277.097 134.765 276.911 135.04 276.829C135.314 276.748 135.61 276.778 135.862 276.913L143.436 281.031C143.646 281.146 143.81 281.327 143.905 281.546C144 281.765 144.02 282.009 143.961 282.24C143.902 282.471 143.768 282.676 143.58 282.823C143.392 282.969 143.161 283.05 142.922 283.051V283.051ZM127.767 274.825C127.588 274.827 127.411 274.783 127.253 274.697L119.679 270.584C119.428 270.448 119.242 270.218 119.161 269.945C119.08 269.672 119.112 269.378 119.248 269.128C119.385 268.878 119.615 268.692 119.888 268.611C120.162 268.531 120.457 268.562 120.707 268.698L128.282 272.811C128.492 272.924 128.659 273.105 128.755 273.324C128.851 273.542 128.872 273.787 128.812 274.019C128.753 274.25 128.618 274.455 128.429 274.602C128.24 274.748 128.007 274.827 127.767 274.825ZM112.618 266.611C112.438 266.613 112.26 266.566 112.104 266.477L104.529 262.369C104.297 262.224 104.128 261.996 104.058 261.731C103.987 261.467 104.021 261.185 104.151 260.944C104.281 260.703 104.499 260.52 104.759 260.434C105.02 260.347 105.303 260.363 105.552 260.478L113.133 264.591C113.342 264.706 113.507 264.887 113.601 265.105C113.696 265.324 113.716 265.568 113.657 265.799C113.598 266.03 113.464 266.235 113.276 266.382C113.088 266.529 112.857 266.609 112.618 266.611V266.611ZM97.4635 258.39C97.2836 258.389 97.1069 258.343 96.9492 258.257L89.6429 254.294V252.709C89.6625 252.438 89.7845 252.184 89.9841 251.998C90.1838 251.813 90.4463 251.71 90.7191 251.71C90.9918 251.71 91.2543 251.813 91.454 251.998C91.6536 252.184 91.7756 252.438 91.7952 252.709V253.022L97.9778 256.37C98.1885 256.484 98.3552 256.664 98.4513 256.883C98.5475 257.102 98.5676 257.346 98.5085 257.578C98.4494 257.81 98.3144 258.015 98.1251 258.161C97.9357 258.307 97.7029 258.386 97.4635 258.385V258.39ZM90.7219 245.181C90.58 245.182 90.4393 245.154 90.3081 245.1C90.1769 245.047 90.0577 244.967 89.9573 244.867C89.857 244.767 89.7776 244.648 89.7236 244.517C89.6697 244.386 89.6422 244.246 89.6429 244.104V235.498C89.6323 235.351 89.6522 235.203 89.7014 235.063C89.7507 234.924 89.8282 234.796 89.9292 234.687C90.0302 234.579 90.1524 234.493 90.2883 234.433C90.4242 234.374 90.5708 234.344 90.7191 234.344C90.8673 234.344 91.0139 234.374 91.1498 234.433C91.2857 234.493 91.4079 234.579 91.5089 234.687C91.6099 234.796 91.6874 234.924 91.7367 235.063C91.7859 235.203 91.8058 235.351 91.7952 235.498V244.104C91.7959 244.245 91.7687 244.385 91.7151 244.516C91.6615 244.646 91.5826 244.765 91.4828 244.865C91.3831 244.965 91.2644 245.045 91.1339 245.099C91.0033 245.153 90.8633 245.181 90.7219 245.181V245.181ZM90.7219 227.97C90.5797 227.97 90.4389 227.942 90.3077 227.888C90.1764 227.833 90.0573 227.753 89.957 227.653C89.8567 227.552 89.7773 227.433 89.7235 227.301C89.6696 227.17 89.6422 227.029 89.6429 226.888V218.282C89.6625 218.011 89.7845 217.756 89.9841 217.571C90.1838 217.386 90.4463 217.283 90.7191 217.283C90.9918 217.283 91.2543 217.386 91.454 217.571C91.6536 217.756 91.7756 218.011 91.7952 218.282V226.893C91.7952 227.178 91.6822 227.451 91.4811 227.653C91.28 227.855 91.007 227.969 90.7219 227.97V227.97ZM90.7219 210.754C90.58 210.754 90.4393 210.727 90.3081 210.673C90.1769 210.619 90.0577 210.54 89.9573 210.44C89.857 210.34 89.7776 210.221 89.7236 210.09C89.6697 209.959 89.6422 209.818 89.6429 209.677V201.066C89.6323 200.918 89.6522 200.77 89.7014 200.63C89.7507 200.491 89.8282 200.363 89.9292 200.255C90.0302 200.146 90.1524 200.06 90.2883 200.001C90.4242 199.942 90.5708 199.911 90.7191 199.911C90.8673 199.911 91.0139 199.942 91.1498 200.001C91.2857 200.06 91.4079 200.146 91.5089 200.255C91.6099 200.363 91.6874 200.491 91.7367 200.63C91.7859 200.77 91.8058 200.918 91.7952 201.066V209.677C91.7959 209.818 91.7687 209.958 91.7151 210.088C91.6615 210.219 91.5826 210.338 91.4828 210.438C91.3831 210.538 91.2644 210.617 91.1339 210.672C91.0033 210.726 90.8633 210.754 90.7219 210.754V210.754ZM90.7219 193.537C90.58 193.538 90.4393 193.511 90.3081 193.457C90.1769 193.403 90.0577 193.324 89.9573 193.224C89.857 193.123 89.7776 193.004 89.7236 192.873C89.6697 192.742 89.6422 192.602 89.6429 192.46V183.855C89.6323 183.707 89.6522 183.559 89.7014 183.42C89.7507 183.28 89.8282 183.152 89.9292 183.044C90.0302 182.935 90.1524 182.849 90.2883 182.79C90.4242 182.731 90.5708 182.7 90.7191 182.7C90.8673 182.7 91.0139 182.731 91.1498 182.79C91.2857 182.849 91.4079 182.935 91.5089 183.044C91.6099 183.152 91.6874 183.28 91.7367 183.42C91.7859 183.559 91.8058 183.707 91.7952 183.855V192.46C91.7959 192.601 91.7687 192.741 91.7151 192.872C91.6615 193.003 91.5826 193.121 91.4828 193.222C91.3831 193.322 91.2644 193.401 91.1339 193.455C91.0033 193.51 90.8633 193.537 90.7219 193.537V193.537ZM90.7219 176.321C90.5797 176.321 90.4389 176.293 90.3077 176.238C90.1764 176.184 90.0573 176.104 89.957 176.004C89.8567 175.903 89.7773 175.784 89.7235 175.652C89.6696 175.521 89.6422 175.38 89.6429 175.238V166.622C89.6625 166.35 89.7845 166.096 89.9841 165.911C90.1838 165.725 90.4463 165.622 90.7191 165.622C90.9918 165.622 91.2543 165.725 91.454 165.911C91.6536 166.096 91.7756 166.35 91.7952 166.622V175.227C91.7974 175.37 91.7713 175.511 91.7184 175.643C91.6655 175.775 91.5869 175.896 91.4871 175.998C91.3873 176.099 91.2683 176.18 91.1369 176.236C91.0056 176.291 90.8645 176.32 90.7219 176.321V176.321ZM90.7219 159.105C90.58 159.105 90.4393 159.078 90.3081 159.024C90.1769 158.97 90.0577 158.891 89.9573 158.791C89.857 158.691 89.7776 158.572 89.7236 158.441C89.6697 158.31 89.6422 158.169 89.6429 158.028V154.618C89.6625 154.346 89.7845 154.092 89.9841 153.907C90.1838 153.721 90.4463 153.618 90.7191 153.618C90.9918 153.618 91.2543 153.721 91.454 153.907C91.6536 154.092 91.7756 154.346 91.7952 154.618V158.028C91.7959 158.169 91.7687 158.309 91.7151 158.439C91.6615 158.57 91.5826 158.689 91.4828 158.789C91.3831 158.889 91.2644 158.968 91.1339 159.023C91.0033 159.077 90.8633 159.105 90.7219 159.105V159.105Z" fill="#1E1273"/>
<g style="mix-blend-mode:multiply">
<path d="M5.40019 343.434L272.607 188.637C281.086 183.971 290.624 181.556 300.306 181.622C308.437 181.462 316.472 183.4 323.633 187.248L452.167 256.733C455.271 258.421 457.868 260.905 459.69 263.929C461.512 266.953 462.493 270.408 462.531 273.937C462.569 277.466 461.664 280.941 459.908 284.004C458.151 287.067 455.608 289.607 452.541 291.361L191.606 440.923C183.458 445.43 174.284 447.765 164.97 447.703C157.128 447.857 149.38 445.975 142.486 442.24L10.1742 368.988C7.29548 367.405 4.85851 365.129 3.08468 362.367C1.31085 359.605 0.256368 356.445 0.0169344 353.172V353.106C-0.0767738 351.153 0.377456 349.213 1.32856 347.504C2.27967 345.796 3.68985 344.386 5.40019 343.434V343.434Z" fill="white"/>
<path d="M273.261 188.978C281.724 184.331 291.251 181.956 300.91 182.086C304.062 182.102 307.207 182.397 310.307 182.968C315.146 183.834 319.81 185.491 324.109 187.873L452.323 257.185C453.845 258 455.22 259.062 456.393 260.327C459.909 264.008 461.818 268.931 461.703 274.017C461.617 277.506 460.63 280.915 458.838 283.912C457.046 286.91 454.509 289.395 451.473 291.127L192.238 439.74C184.166 444.221 175.104 446.626 165.87 446.739C158.032 447.056 150.247 445.325 143.286 441.716C143.157 441.716 136.751 438.172 136.65 438.116L10.4313 368.207C7.70174 366.634 5.39032 364.429 3.69099 361.779C1.99166 359.129 0.954062 356.111 0.66538 352.978V352.911C0.609667 351.07 1.0464 349.247 1.93069 347.631C2.81498 346.014 4.11483 344.662 5.69644 343.714C5.75234 343.675 5.81386 343.647 5.86976 343.613L273.261 188.978Z" fill="#FCFCFD"/>
<path d="M273.91 189.324C282.351 184.694 291.861 182.356 301.491 182.544C304.634 182.58 307.767 182.907 310.849 183.52C315.656 184.447 320.286 186.127 324.567 188.498L452.457 257.637H452.491C453.971 258.438 455.287 259.509 456.37 260.796C459.589 264.492 461.223 269.302 460.921 274.19C460.707 277.629 459.637 280.961 457.809 283.884C455.981 286.807 453.452 289.23 450.45 290.932L192.859 438.574C184.862 443.027 175.911 445.499 166.759 445.784C158.921 446.254 151.098 444.656 144.074 441.152C143.822 441.102 137.578 437.703 137.366 437.586L10.6494 367.431C8.01154 365.941 5.77913 363.829 4.14699 361.28C2.51485 358.73 1.53256 355.82 1.286 352.805V352.738C1.23138 350.97 1.64834 349.221 2.49408 347.667C3.33983 346.114 4.58399 344.813 6.09912 343.898L6.26682 343.803L273.91 189.324Z" fill="#FAFAFA"/>
<path d="M274.552 189.665C282.977 185.053 292.478 182.755 302.083 183.007C305.213 183.066 308.329 183.423 311.391 184.073C316.168 185.057 320.768 186.762 325.031 189.129L452.597 258.089H452.63C454.075 258.877 455.335 259.964 456.325 261.276C459.227 264.974 460.583 269.65 460.11 274.324C459.764 277.707 458.611 280.958 456.747 283.805C454.884 286.652 452.364 289.011 449.399 290.686L193.473 437.369C185.551 441.794 176.713 444.336 167.647 444.796C159.811 445.427 151.948 443.969 144.862 440.572C144.482 440.505 138.411 437.223 138.12 437.05L10.9342 366.639C8.42684 365.185 6.30576 363.152 4.74933 360.709C3.19291 358.267 2.2466 355.487 1.99002 352.604V352.542C1.93992 350.847 2.34083 349.169 3.15195 347.679C3.96308 346.189 5.15545 344.94 6.60747 344.06L6.76953 343.97L274.552 189.665Z" fill="#F7F7F8"/>
<path d="M275.195 190.01C283.599 185.412 293.086 183.151 302.665 183.464C305.785 183.549 308.889 183.938 311.933 184.625C316.676 185.673 321.242 187.4 325.489 189.754L452.737 258.541H452.77C454.181 259.315 455.385 260.415 456.281 261.75C458.859 265.461 459.94 270.007 459.305 274.479C458.824 277.802 457.587 280.971 455.689 283.743C453.79 286.514 451.281 288.815 448.354 290.468L194.094 436.196C186.239 440.588 177.511 443.195 168.531 443.831C160.7 444.624 152.8 443.31 145.65 440.025C145.142 439.93 139.244 436.771 138.858 436.542L11.1581 365.852C8.75315 364.461 6.71861 362.513 5.22615 360.172C3.73369 357.831 2.82712 355.166 2.58293 352.402V352.347C2.53602 350.723 2.92105 349.117 3.6988 347.69C4.47654 346.264 5.61915 345.069 7.01024 344.227L7.16676 344.137L275.195 190.01Z" fill="#F4F4F5"/>
<path d="M275.844 190.351C284.225 185.777 293.691 183.557 303.235 183.928C306.343 184.031 309.432 184.452 312.453 185.183C317.164 186.287 321.7 188.036 325.931 190.379L452.854 258.993H452.888C454.281 259.746 455.441 260.866 456.242 262.23C459.182 265.059 458.444 270.434 458.478 274.63C457.874 277.893 456.56 280.984 454.628 283.684C452.696 286.384 450.194 288.628 447.298 290.256L194.715 435.052C186.931 439.419 178.311 442.095 169.42 442.904C161.592 443.862 153.652 442.688 146.439 439.506C145.807 439.394 140.077 436.353 139.591 436.068L11.4042 365.093C9.10868 363.766 7.1669 361.907 5.74334 359.673C4.31978 357.439 3.45625 354.895 3.22585 352.257V352.207C3.18403 350.656 3.55336 349.121 4.29643 347.758C5.0395 346.395 6.12998 345.252 7.45758 344.445C7.50789 344.411 7.55821 344.389 7.60293 344.355L275.844 190.351Z" fill="#F2F2F3"/>
<path d="M276.464 190.697C284.828 186.12 294.295 183.938 303.822 184.39C306.918 184.517 309.993 184.966 312.995 185.73C317.68 186.896 322.19 188.671 326.412 191.009L453.016 259.445H453.044C454.401 260.184 455.498 261.322 456.186 262.704C458.981 265.383 457.634 270.818 457.684 274.781C457.751 280.105 450.875 287.376 446.252 290.027L195.329 433.841C187.615 438.177 179.106 440.921 170.308 441.911C162.486 443.03 154.505 441.997 147.227 438.925C144.871 437.909 142.569 436.775 140.328 435.526L11.6444 364.278C9.45309 363.008 7.60133 361.229 6.24657 359.091C4.8918 356.954 4.07412 354.521 3.863 352V351.945C3.82248 350.465 4.17568 349.001 4.88666 347.702C5.59764 346.403 6.64097 345.315 7.91022 344.55L8.04431 344.472L276.464 190.697Z" fill="#EFEFF0"/>
<path d="M277.129 191.043C285.472 186.479 294.927 184.334 304.426 184.848C307.513 184.991 310.574 185.474 313.555 186.288C318.199 187.513 322.674 189.309 326.876 191.634L453.156 259.897H453.19C454.523 260.621 455.566 261.782 456.141 263.184C458.757 265.701 456.829 271.209 456.874 274.943C456.941 279.965 449.551 287.309 445.201 289.81L195.95 432.675C188.301 436.982 179.901 439.795 171.197 440.962C163.38 442.245 155.359 441.355 148.015 438.39C145.633 437.41 143.312 436.292 141.061 435.041L11.8904 363.53C9.83793 362.288 8.10256 360.587 6.82107 358.561C5.53958 356.535 4.74701 354.24 4.50591 351.856V351.805C4.47447 350.398 4.81428 349.007 5.49127 347.771C6.16826 346.536 7.15865 345.501 8.36309 344.768L8.49163 344.696L277.129 191.043Z" fill="#ECECEE"/>
<path d="M277.778 191.383C286.104 186.839 295.547 184.734 305.018 185.311C308.093 185.476 311.139 185.989 314.097 186.84C318.708 188.125 323.152 189.944 327.34 192.259L453.29 260.343H453.324C454.65 261.043 455.652 262.23 456.119 263.653C458.573 266.013 456.046 271.588 456.085 275.087C456.147 279.781 448.259 287.242 444.178 289.597L196.593 431.491C189.008 435.772 180.712 438.653 172.103 439.996C164.293 441.447 156.233 440.697 148.825 437.831C146.417 436.871 144.075 435.753 141.816 434.483L12.1252 362.693C10.0964 361.613 8.3848 360.024 7.15935 358.083C5.9339 356.141 5.23704 353.914 5.13761 351.621V351.571C5.10426 350.231 5.4252 348.907 6.06804 347.732C6.71089 346.556 7.65291 345.57 8.79912 344.874L8.92212 344.801L277.778 191.383Z" fill="#E9EAEC"/>
<path d="M278.421 191.735C286.727 187.204 296.156 185.136 305.6 185.774C308.666 185.962 311.7 186.507 314.639 187.398C319.213 188.747 323.625 190.59 327.798 192.895L453.435 260.812H453.469C454.113 261.154 454.677 261.63 455.123 262.208C455.568 262.785 455.885 263.451 456.052 264.161C458.338 266.393 455.213 271.973 455.252 275.266C455.314 279.647 446.912 287.209 443.099 289.391L197.191 430.331C189.669 434.584 181.479 437.531 172.969 439.048C165.167 440.668 157.065 440.062 149.591 437.301C147.161 436.38 144.801 435.284 142.531 434.02L12.3766 361.945C10.5369 360.829 8.98325 359.3 7.83913 357.48C6.69502 355.66 5.99194 353.598 5.78583 351.459V351.414C5.76316 350.151 6.07155 348.903 6.68044 347.795C7.28933 346.687 8.17761 345.757 9.2573 345.097C9.29483 345.07 9.33402 345.046 9.37467 345.024L278.421 191.735Z" fill="#E7E7E9"/>
<path d="M279.064 192.069C287.354 187.554 296.775 185.527 306.192 186.232C309.245 186.441 312.261 187.016 315.176 187.945C319.716 189.357 324.101 191.227 328.262 193.526L453.57 261.269H453.603C454.239 261.601 454.787 262.076 455.204 262.658C455.622 263.24 455.897 263.911 456.007 264.618C458.131 266.666 454.408 272.375 454.442 275.405C454.498 279.474 445.587 287.125 442.054 289.156L197.806 429.142C190.347 433.364 182.263 436.378 173.858 438.071C166.063 439.857 157.921 439.395 150.38 436.737C147.924 435.849 145.544 434.765 143.263 433.495L12.6115 361.175C10.8774 360.121 9.41419 358.677 8.33875 356.958C7.2633 355.239 6.6055 353.293 6.41775 351.275V351.241C6.40005 350.049 6.69322 348.873 7.26851 347.828C7.8438 346.783 8.68139 345.905 9.69908 345.281L9.80528 345.214L279.064 192.069Z" fill="#E4E4E7"/>
<path d="M279.712 192.415C287.984 187.918 297.391 185.93 306.779 186.695C309.824 186.922 312.829 187.528 315.723 188.498C320.228 189.96 324.582 191.849 328.726 194.14L453.721 261.711H453.748C454.387 262.028 454.93 262.507 455.323 263.101C455.715 263.695 455.944 264.382 455.985 265.093C457.947 266.979 453.625 272.755 453.665 275.551C453.715 279.312 444.296 287.058 441.031 288.944L198.426 427.976C191.027 432.169 183.047 435.25 174.747 437.117C166.961 439.077 158.776 438.757 151.168 436.196C148.689 435.344 146.291 434.274 144.001 432.998L12.863 360.388C11.1668 359.479 9.73858 358.143 8.72057 356.511C7.70255 354.88 7.13019 353.011 7.06041 351.091V351.052C7.04877 349.935 7.32687 348.834 7.86759 347.856C8.4083 346.878 9.19324 346.056 10.1462 345.471L10.2468 345.415L279.712 192.415Z" fill="#E1E2E4"/>
<path d="M280.377 192.75C288.635 188.276 298.031 186.335 307.389 187.169C310.424 187.42 313.415 188.058 316.288 189.067C320.752 190.595 325.074 192.507 329.207 194.781L453.866 262.179H453.899C454.491 262.538 454.985 263.035 455.339 263.629C455.693 264.222 455.895 264.894 455.929 265.583C457.723 267.319 452.815 273.156 452.837 275.724C452.882 279.167 442.96 287.013 439.98 288.721L199.075 426.804C191.731 430.969 183.853 434.116 175.658 436.157C167.887 438.29 159.661 438.114 151.989 435.649C149.483 434.831 147.062 433.771 144.761 432.485L13.1313 359.612C11.6105 358.684 10.3295 357.412 9.39149 355.899C8.4535 354.386 7.88476 352.674 7.73125 350.901V350.867C7.72097 349.82 7.98227 348.787 8.48964 347.87C8.997 346.953 9.73323 346.182 10.627 345.633L10.722 345.571L280.377 192.75Z" fill="#DFDFE2"/>
<path d="M281.003 193.097C289.24 188.632 298.624 186.724 307.953 187.617C310.978 187.887 313.954 188.556 316.802 189.609C321.236 191.189 325.536 193.122 329.66 195.39L453.989 262.61H454.023C454.614 262.959 455.098 263.464 455.422 264.069C455.746 264.674 455.898 265.357 455.862 266.042C457.5 267.61 451.988 273.525 452.016 275.858C452.055 278.983 441.618 286.925 438.901 288.482L199.645 425.604C192.357 429.743 184.581 432.958 176.496 435.175C168.737 437.482 160.467 437.447 152.727 435.075C150.203 434.29 147.767 433.245 145.46 431.955L13.3438 358.804C11.865 358.013 10.6211 356.847 9.73777 355.424C8.85444 354 8.36285 352.369 8.3127 350.695V350.662C8.30457 349.685 8.5488 348.724 9.02178 347.869C9.49476 347.015 10.1805 346.297 11.0127 345.784L11.1022 345.728L281.003 193.097Z" fill="#DCDDDF"/>
<path d="M281.646 193.409C289.868 188.961 299.244 187.094 308.546 188.051C311.559 188.344 314.519 189.043 317.345 190.127C321.733 191.774 325.998 193.732 330.107 195.987L454.129 263.039H454.162C454.757 263.379 455.236 263.891 455.535 264.508C455.834 265.124 455.94 265.816 455.839 266.493C457.31 267.911 451.194 273.888 451.222 275.98C451.255 278.799 440.316 286.829 437.873 288.258L200.294 424.426C193.062 428.537 185.388 431.821 177.419 434.215C169.671 436.692 161.359 436.801 153.549 434.527C150.998 433.776 148.538 432.745 146.215 431.452L13.5899 358.039C12.2258 357.302 11.0809 356.219 10.271 354.899C9.46111 353.579 9.01509 352.069 8.97804 350.521V350.494C8.97639 349.589 9.20609 348.699 9.64532 347.908C10.0846 347.117 10.7188 346.451 11.488 345.973L11.5662 345.923L281.646 193.409Z" fill="#D9DADD"/>
<path d="M282.295 193.782C290.496 189.35 299.857 187.519 309.127 188.537C312.134 188.853 315.082 189.586 317.887 190.713C322.235 192.418 326.469 194.397 330.565 196.64L454.269 263.519H454.302C454.897 263.856 455.364 264.381 455.629 265.011C455.895 265.64 455.945 266.34 455.772 267.001C457.08 268.257 450.372 274.301 450.395 276.164C450.428 278.676 438.98 286.807 436.799 288.046L200.897 423.254C193.719 427.34 186.145 430.69 178.291 433.255C170.557 435.905 162.202 436.159 154.321 433.986C151.747 433.268 149.268 432.247 146.936 430.944L13.8302 357.252C12.5807 356.565 11.5338 355.563 10.7941 354.346C10.0545 353.128 9.64792 351.738 9.61523 350.315V350.315C9.61622 349.482 9.8291 348.663 10.2339 347.935C10.6387 347.207 11.2222 346.593 11.9295 346.152L12.0022 346.107L282.295 193.782Z" fill="#D7D7DA"/>
<path d="M282.938 194.123C291.127 189.713 300.477 187.924 309.72 189C312.715 189.335 315.646 190.098 318.424 191.266C322.737 193.025 326.945 195.03 331.029 197.27L454.408 263.971C455.008 264.304 455.468 264.841 455.705 265.484C455.942 266.127 455.94 266.834 455.7 267.475C456.845 268.591 449.55 274.691 449.55 276.321C449.578 278.514 437.621 286.74 435.721 287.828L201.495 422.077C194.361 426.139 186.878 429.559 179.135 432.295C171.414 435.112 163.014 435.502 155.064 433.411C152.467 432.729 149.967 431.722 147.624 430.414L14.0202 356.442C12.8774 355.821 11.9212 354.906 11.2501 353.793C10.579 352.679 10.2173 351.408 10.2021 350.108V350.108C10.2072 349.348 10.4046 348.602 10.7759 347.939C11.1473 347.275 11.6807 346.716 12.3264 346.314L12.3935 346.269L282.938 194.123Z" fill="#D4D5D8"/>
<path d="M283.58 194.47C291.746 190.058 301.087 188.303 310.301 189.447C313.29 189.804 316.209 190.599 318.966 191.808C320.296 192.042 330.431 197.288 331.493 197.885L454.548 264.412H454.581C455.917 265.411 456.404 267.024 455.699 267.945C456.678 268.888 448.779 275.066 448.796 276.467C448.796 278.342 436.352 286.662 434.72 287.628L202.172 420.917C195.092 424.954 187.711 428.443 180.096 431.353C172.396 434.354 163.952 434.894 155.93 432.898C153.31 432.251 150.789 431.257 148.434 429.941L14.3498 355.718C13.3164 355.154 12.4536 354.324 11.8517 353.314C11.2499 352.304 10.9311 351.151 10.9287 349.975C10.9378 349.287 11.119 348.612 11.4559 348.012C11.7927 347.411 12.2744 346.905 12.8573 346.537L12.9188 346.498L283.58 194.47Z" fill="#D1D2D6"/>
<path d="M284.229 194.809C292.38 190.419 301.712 188.708 310.894 189.921C313.873 190.299 316.777 191.125 319.508 192.371C320.626 192.566 331.068 198.024 331.952 198.509L454.682 264.863H454.716C455.018 265.029 455.283 265.254 455.494 265.526C455.706 265.798 455.859 266.11 455.945 266.443C456.031 266.776 456.048 267.123 455.994 267.463C455.94 267.803 455.817 268.128 455.633 268.418C456.454 269.205 447.952 275.45 447.968 276.616C443.653 280.771 438.848 284.386 433.658 287.382L202.759 419.71C195.728 423.724 188.446 427.28 180.957 430.358C173.275 433.537 164.787 434.226 156.691 432.328C154.051 431.71 151.511 430.725 149.144 429.404L14.5625 354.897C13.6398 354.389 12.8717 353.641 12.3394 352.734C11.807 351.826 11.5302 350.792 11.5383 349.74V349.74C11.5529 349.124 11.7192 348.522 12.0224 347.985C12.3256 347.449 12.7564 346.996 13.2768 346.665L13.3328 346.632L284.229 194.809Z" fill="#CECFD3"/>
<path d="M284.849 195.155C292.987 190.786 302.306 189.115 311.458 190.384C314.427 190.782 317.316 191.639 320.022 192.923C320.916 193.079 331.683 198.744 332.393 199.151L454.816 265.327H454.85C455.153 265.497 455.416 265.729 455.62 266.01C455.825 266.29 455.967 266.611 456.037 266.951C456.106 267.291 456.102 267.642 456.023 267.98C455.945 268.318 455.794 268.635 455.582 268.91C456.236 269.535 447.135 275.852 447.146 276.784C442.65 280.708 437.783 284.186 432.612 287.169L203.39 418.544C196.407 422.538 189.219 426.164 181.857 429.41C174.193 432.762 165.659 433.595 157.49 431.787C154.828 431.203 152.267 430.233 149.887 428.907L14.8194 354.126C14.0075 353.678 13.3337 353.017 12.8706 352.215C12.4076 351.412 12.1729 350.499 12.192 349.573C12.2085 349.028 12.3577 348.497 12.6265 348.023C12.8953 347.549 13.2758 347.148 13.7349 346.855L13.7796 346.827L284.849 195.155Z" fill="#CCCDD1"/>
<path d="M285.52 195.496C293.64 191.141 302.947 189.509 312.067 190.842C315.031 191.265 317.908 192.154 320.592 193.476C321.258 193.599 332.332 199.475 332.891 199.776L454.978 265.779H455.012C455.318 265.952 455.582 266.191 455.782 266.48C455.982 266.769 456.114 267.099 456.168 267.446C456.222 267.793 456.196 268.148 456.093 268.484C455.989 268.819 455.811 269.127 455.571 269.384C456.063 269.859 446.364 276.237 446.375 276.935C441.691 280.623 436.748 283.97 431.584 286.952L204.028 417.372C203.033 417.931 184.009 428.445 182.785 428.445C175.144 431.978 166.565 432.957 158.323 431.235C155.64 430.686 153.057 429.729 150.665 428.4L15.1046 353.34C14.4023 352.949 13.8217 352.373 13.4271 351.673C13.0325 350.974 12.8392 350.18 12.8686 349.378V349.378C12.8912 348.906 13.0256 348.447 13.2608 348.037C13.496 347.628 13.8253 347.28 14.2215 347.022L14.2606 346.995L285.52 195.496Z" fill="#C9CACE"/>
<path d="M286.163 195.842C294.266 191.498 303.565 189.905 312.655 191.305C315.612 191.746 318.476 192.668 321.135 194.034C321.576 194.106 332.986 200.2 333.338 200.401L455.107 266.253C455.418 266.429 455.683 266.677 455.878 266.977C456.073 267.276 456.194 267.617 456.229 267.973C456.265 268.328 456.215 268.687 456.083 269.019C455.95 269.351 455.741 269.646 455.47 269.88C455.795 270.199 445.509 276.644 445.514 277.135C445.514 277.76 431.019 286.461 430.477 286.779L204.592 416.25C203.927 416.63 184.429 427.546 183.596 427.546C175.965 431.258 167.328 432.381 159 430.743C156.297 430.23 153.695 429.288 151.291 427.953L15.2389 352.614C14.6391 352.286 14.1466 351.793 13.8204 351.194C13.4942 350.594 13.3482 349.913 13.3998 349.232V349.232C13.4296 348.834 13.5498 348.447 13.7512 348.102C13.9527 347.757 14.23 347.462 14.5625 347.24H14.5961L286.163 195.842Z" fill="#C6C7CC"/>
<path d="M286.811 196.2C294.897 191.872 304.184 190.319 313.241 191.78C316.189 192.243 319.038 193.196 321.671 194.598C321.895 194.643 333.623 200.949 333.796 201.049L455.241 266.7H455.275C455.587 266.886 455.848 267.145 456.035 267.456C456.222 267.767 456.328 268.119 456.346 268.481C456.363 268.843 456.29 269.204 456.133 269.531C455.976 269.858 455.741 270.142 455.448 270.356C455.61 270.512 444.726 277.052 444.726 277.264C444.726 277.476 429.728 286.378 429.454 286.528L205.235 415.035C204.905 415.224 184.926 426.542 184.507 426.542C176.909 430.428 168.239 431.699 159.843 430.158C157.121 429.674 154.499 428.741 152.084 427.396L15.535 351.794C15.0509 351.518 14.6575 351.107 14.4025 350.612C14.1476 350.116 14.0419 349.558 14.0983 349.004C14.1376 348.68 14.2439 348.367 14.4103 348.085C14.5768 347.804 14.7998 347.56 15.0654 347.369V347.369L286.811 196.2Z" fill="#C4C5C9"/>
<path d="M15.5351 347.536L287.454 196.528C292.735 193.598 298.631 191.946 304.668 191.705C310.705 191.463 316.715 192.64 322.213 195.139L455.381 267.129H455.414C455.74 267.314 456.01 267.581 456.199 267.904C456.387 268.227 456.486 268.594 456.486 268.968C456.486 269.342 456.387 269.709 456.199 270.032C456.01 270.355 455.74 270.622 455.414 270.807L185.396 425.565C180.447 428.313 174.921 429.863 169.262 430.09C163.603 430.317 157.97 429.214 152.817 426.87L15.781 350.973C15.4779 350.807 15.2212 350.568 15.0339 350.277C14.8465 349.987 14.7345 349.654 14.7078 349.31C14.6812 348.966 14.7408 348.62 14.8813 348.305C15.0218 347.989 15.2389 347.713 15.5127 347.502L15.5351 347.536Z" fill="#C1C2C7"/>
</g>
<path d="M13.8187 337.491L286.722 185.936C292.002 183.007 297.898 181.356 303.934 181.116C309.97 180.875 315.978 182.052 321.475 184.552L454.654 256.543C455.979 257.26 457.087 258.317 457.866 259.605C458.645 260.893 459.066 262.365 459.084 263.869C459.103 265.374 458.72 266.856 457.973 268.162C457.227 269.469 456.145 270.554 454.838 271.304L184.518 426.625C179.236 429.553 173.34 431.203 167.303 431.444C161.266 431.684 155.257 430.508 149.759 428.009L13.8858 354.009C12.4025 353.201 11.1635 352.01 10.2982 350.561C9.43282 349.111 8.97275 347.457 8.9659 345.77C8.95905 344.083 9.40564 342.424 10.2592 340.968C11.1127 339.512 12.342 338.311 13.8187 337.491V337.491Z" fill="url(#paint0_linear_808_1936)"/>
<path d="M14.7912 336.944L286.716 185.937C291.996 183.004 297.893 181.351 303.931 181.111C309.968 180.87 315.978 182.049 321.475 184.553L454.648 256.543C454.974 256.728 455.244 256.995 455.433 257.318C455.621 257.641 455.72 258.008 455.72 258.382C455.72 258.756 455.621 259.123 455.433 259.446C455.244 259.769 454.974 260.036 454.648 260.221L184.646 414.973C179.697 417.722 174.171 419.272 168.513 419.498C162.854 419.725 157.221 418.622 152.067 416.279L15.0316 340.382C14.7297 340.215 14.474 339.976 14.2875 339.686C14.1009 339.396 13.9893 339.065 13.9627 338.721C13.9361 338.378 13.9954 338.033 14.1351 337.718C14.2749 337.403 14.4907 337.128 14.7634 336.916L14.7912 336.944Z" fill="url(#paint1_linear_808_1936)"/>
<path d="M76.9535 378.916L92.561 387.393C93.3415 387.926 93.9858 388.634 94.4421 389.461C94.8984 390.288 95.154 391.21 95.1883 392.153C95.2331 394.012 94.115 394.888 92.7063 394.112L77.0932 385.635C76.314 385.101 75.6707 384.392 75.2145 383.566C74.7583 382.739 74.5019 381.818 74.4658 380.875C74.4267 379.017 75.5392 378.129 76.9535 378.916Z" fill="#1E1073"/>
<path d="M457.583 279.664C458.784 280.329 459.785 281.302 460.482 282.483C461.179 283.664 461.546 285.01 461.546 286.381C461.546 287.751 461.179 289.097 460.482 290.278C459.785 291.459 458.784 292.433 457.583 293.097L454.693 294.704C451.506 296.474 447.923 297.411 444.276 297.43C440.629 297.448 437.036 296.547 433.831 294.81L413.405 283.744L438.856 269.307L457.583 279.664Z" fill="#3531A1"/>
<path d="M431.282 282.622C431.282 285.747 435.195 288.202 440.153 288.202C445.112 288.202 449.025 285.747 449.025 282.622C449.025 279.497 445.112 277.041 440.153 277.041C435.195 277.041 431.282 279.485 431.282 282.622ZM432.361 282.622C432.361 280.177 435.933 278.118 440.153 278.118C444.374 278.118 447.935 280.177 447.935 282.622C447.935 285.066 444.374 287.086 440.153 287.086C435.933 287.086 432.361 285.055 432.361 282.622Z" fill="white"/>
<path d="M238.91 213.997L209.003 230.583L359.024 314.131L389.211 297.69L239.111 214.103C239.041 214.073 238.974 214.038 238.91 213.997Z" fill="#5752D0"/>
<path d="M238.91 213.997L209.003 230.583L239.43 247.531V214.298L239.083 214.103C239.023 214.072 238.965 214.036 238.91 213.997V213.997Z" fill="#3531A1"/>
<path d="M278.505 259.859C286.426 264.323 285.839 250.93 292.29 254.557C298.741 258.184 297.88 287.768 307.836 293.365C317.792 298.963 316.339 266.578 324.254 271.042C332.17 275.507 332.175 295.508 339.806 299.794C347.436 304.08 347.727 281.512 359.746 288.264L251.812 227.619C266.777 236.024 270.589 255.411 278.505 259.859Z" fill="url(#paint2_linear_808_1936)"/>
<path d="M345.48 256.203C337.559 251.739 334.819 269.887 328.369 266.249C321.918 262.61 324.847 218.5 314.874 212.897C304.901 207.294 304.314 247.369 296.393 242.921C288.472 238.474 288.478 196.63 280.853 192.349C273.228 188.069 272.937 239.472 260.907 232.714L368.841 293.354C353.882 284.966 353.401 260.651 345.48 256.203Z" fill="url(#paint3_linear_808_1936)"/>
<path d="M339.806 255.991C332.176 251.711 332.176 265.395 324.255 260.947C316.333 256.499 317.435 229.277 307.836 220.258C299.088 212.049 298.747 237.246 292.29 233.619C285.834 229.991 286.426 218.852 278.505 214.399C270.584 209.945 266.766 236.024 251.812 227.619L359.757 288.281C347.727 281.501 347.431 260.277 339.806 255.991Z" fill="url(#paint4_linear_808_1936)"/>
<path d="M339.745 268.961C332.12 264.675 331.36 267.811 323.422 263.38C315.484 258.949 317.468 253.725 307.876 244.701C299.133 236.487 294.689 245.12 288.238 241.498C281.787 237.876 280.154 231.966 272.121 231.04C264.088 230.114 266.777 236.063 251.812 227.636L359.757 288.281C347.727 281.5 347.375 273.241 339.745 268.961Z" fill="url(#paint5_linear_808_1936)"/>
<path d="M262.964 245.869C270.589 250.149 270.589 241.437 278.505 245.869C286.421 250.3 284.962 277.371 294.929 282.974C304.896 288.577 304.018 261.991 310.475 265.619C316.931 269.246 316.339 279.966 324.254 284.414C332.17 288.862 335.994 274.927 350.953 283.298L243.019 222.664C255.043 229.433 255.334 241.555 262.964 245.869Z" fill="url(#paint6_linear_808_1936)"/>
<path d="M263.842 238.563C270.092 244.06 271.914 239.384 284.788 247.643C292.43 252.548 289.467 262.599 296.265 264.061C303.062 265.523 306.327 260.35 312.778 263.978C319.229 267.605 318.178 271.495 326.093 275.943C334.009 280.39 335.988 274.91 350.953 283.315L243.019 222.681C250.705 226.924 257.721 232.276 263.842 238.563V238.563Z" fill="url(#paint7_linear_808_1936)"/>
<path style="mix-blend-mode:screen" d="M368.701 342.921L368.969 342.994V288.303L368.701 288.23V342.921Z" fill="url(#paint8_linear_808_1936)"/>
<path style="mix-blend-mode:screen" d="M338.867 305.308L339.135 305.363V265.356L338.867 265.3V305.308Z" fill="url(#paint9_linear_808_1936)"/>
<path d="M234.052 217.842L368.718 293.5V293.098L234.052 217.44V217.842Z" fill="white"/>
<path d="M338.995 263.832C338.587 263.832 338.252 264.39 338.252 265.021C338.252 265.651 338.587 266.204 338.995 266.204C339.403 266.204 339.745 265.679 339.745 265.021C339.745 264.362 339.409 263.832 338.995 263.832Z" fill="white"/>
<path style="mix-blend-mode:screen" d="M304.901 298.885L305.164 298.985V225.32L304.901 225.22V298.885Z" fill="url(#paint10_linear_808_1936)"/>
<path d="M305.035 226.152C305.449 226.152 305.784 225.62 305.784 224.963C305.784 224.307 305.449 223.774 305.035 223.774C304.622 223.774 304.286 224.307 304.286 224.963C304.286 225.62 304.622 226.152 305.035 226.152Z" fill="white"/>
<path style="mix-blend-mode:screen" d="M277.225 280.468L277.487 280.546V222.714L277.225 222.636V280.468Z" fill="url(#paint11_linear_808_1936)"/>
<path d="M277.359 221.174C276.945 221.174 276.61 221.732 276.61 222.362C276.61 222.993 276.945 223.551 277.359 223.551C277.773 223.551 278.108 222.993 278.108 222.362C278.108 221.732 277.773 221.174 277.359 221.174Z" fill="white"/>
<path style="mix-blend-mode:screen" d="M249.341 279.414L249.61 279.492V221.682L249.341 221.604V279.414Z" fill="url(#paint12_linear_808_1936)"/>
<path d="M249.47 220.136C249.062 220.136 248.727 220.694 248.727 221.324C248.727 221.955 249.062 222.513 249.47 222.513C249.878 222.513 250.219 221.955 250.219 221.324C250.219 220.694 249.884 220.136 249.47 220.136Z" fill="white"/>
<path style="mix-blend-mode:screen" d="M233.918 263.726L234.181 263.798V205.966L233.918 205.888V263.726Z" fill="url(#paint13_linear_808_1936)"/>
<path d="M234.052 204.426C233.633 204.426 233.303 204.984 233.303 205.609C233.303 206.234 233.633 206.798 234.052 206.798C234.472 206.798 234.796 206.24 234.796 205.609C234.796 204.978 234.46 204.426 234.052 204.426Z" fill="white"/>
<path d="M368.841 286.116C368.427 286.116 368.092 286.641 368.092 287.299C368.092 287.958 368.427 288.482 368.841 288.482C369.255 288.482 369.59 287.958 369.59 287.299C369.59 286.641 369.26 286.116 368.841 286.116Z" fill="white"/>
<path style="mix-blend-mode:screen" d="M305.449 216.882C303.815 216.945 302.234 217.486 300.905 218.438C299.576 219.39 298.557 220.711 297.974 222.237C297.392 223.762 297.271 225.426 297.628 227.019C297.985 228.613 298.804 230.067 299.982 231.199C301.16 232.332 302.646 233.094 304.254 233.391C305.863 233.687 307.523 233.505 309.029 232.866C310.534 232.228 311.818 231.161 312.722 229.8C313.625 228.438 314.107 226.842 314.108 225.209C314.066 222.958 313.129 220.817 311.506 219.256C309.882 217.694 307.703 216.84 305.449 216.882V216.882Z" fill="url(#paint14_radial_808_1936)"/>
<path style="mix-blend-mode:screen" d="M276.71 224.974C275.075 225.034 273.493 225.573 272.163 226.524C270.832 227.475 269.811 228.796 269.227 230.322C268.643 231.848 268.521 233.512 268.877 235.107C269.233 236.701 270.051 238.156 271.23 239.29C272.408 240.423 273.894 241.186 275.504 241.483C277.113 241.779 278.774 241.597 280.28 240.957C281.786 240.318 283.071 239.251 283.974 237.889C284.877 236.526 285.358 234.928 285.358 233.295C285.314 231.047 284.379 228.909 282.758 227.349C281.136 225.789 278.961 224.935 276.71 224.974V224.974Z" fill="url(#paint15_radial_808_1936)"/>
<path style="mix-blend-mode:screen" d="M249.363 212.747C247.728 212.808 246.147 213.348 244.817 214.3C243.487 215.252 242.467 216.573 241.884 218.1C241.3 219.626 241.18 221.29 241.537 222.885C241.894 224.479 242.713 225.933 243.892 227.066C245.072 228.199 246.558 228.961 248.168 229.256C249.777 229.552 251.438 229.368 252.944 228.728C254.45 228.088 255.733 227.02 256.635 225.656C257.537 224.293 258.018 222.695 258.017 221.062C257.973 218.814 257.037 216.675 255.414 215.116C253.791 213.557 251.615 212.705 249.363 212.747Z" fill="url(#paint16_radial_808_1936)"/>
<path style="mix-blend-mode:screen" d="M338.895 259.139C337.259 259.199 335.677 259.739 334.346 260.69C333.015 261.642 331.994 262.963 331.41 264.49C330.827 266.017 330.706 267.681 331.063 269.276C331.42 270.871 332.239 272.326 333.418 273.459C334.598 274.592 336.085 275.354 337.695 275.649C339.305 275.945 340.967 275.76 342.473 275.119C343.978 274.479 345.262 273.41 346.164 272.046C347.065 270.682 347.545 269.083 347.543 267.449C347.499 265.202 346.563 263.065 344.941 261.507C343.32 259.949 341.145 259.097 338.895 259.139V259.139Z" fill="url(#paint17_radial_808_1936)"/>
<path style="mix-blend-mode:screen" d="M367.851 278.365C366.217 278.427 364.638 278.968 363.31 279.919C361.982 280.871 360.963 282.192 360.381 283.717C359.799 285.242 359.679 286.904 360.036 288.497C360.393 290.09 361.212 291.542 362.39 292.674C363.568 293.806 365.053 294.567 366.661 294.863C368.269 295.158 369.928 294.975 371.433 294.336C372.937 293.697 374.22 292.631 375.122 291.269C376.024 289.908 376.505 288.312 376.505 286.68C376.459 284.432 375.522 282.295 373.9 280.736C372.278 279.177 370.102 278.324 367.851 278.365V278.365Z" fill="url(#paint18_radial_808_1936)"/>
<path d="M62.5474 331.397L175.071 396.25L178.056 394.526L65.5325 329.667L62.5474 331.397Z" fill="url(#paint19_linear_808_1936)"/>
<path d="M59.814 331.113L99.5037 354.061L104.848 350.98L65.1581 328.032L59.814 331.113Z" fill="url(#paint20_linear_808_1936)"/>
<path d="M109.616 351.611L106.201 349.786C105.971 349.659 105.712 349.593 105.449 349.593C105.186 349.593 104.927 349.659 104.697 349.786L99.1629 352.972C98.9227 353.11 98.7238 353.309 98.587 353.549C98.4501 353.79 98.3804 354.062 98.385 354.339C98.3895 354.615 98.4683 354.885 98.613 355.121C98.7577 355.357 98.963 355.549 99.2077 355.679L102.623 357.504C102.853 357.631 103.112 357.698 103.375 357.698C103.638 357.698 103.897 357.631 104.127 357.504L109.661 354.312C109.9 354.174 110.098 353.974 110.233 353.735C110.369 353.495 110.439 353.223 110.434 352.948C110.429 352.673 110.351 352.403 110.208 352.168C110.064 351.933 109.86 351.74 109.616 351.611V351.611Z" fill="#C46652"/>
<path style="mix-blend-mode:multiply" d="M181.254 342.787C167.216 338.094 152.029 338.094 137.992 342.787C126.046 347.481 126.046 355.065 137.992 359.786C152.028 364.485 167.217 364.485 181.254 359.786C193.205 355.093 193.205 347.481 181.254 342.787Z" fill="url(#paint21_linear_808_1936)"/>
<path d="M116.822 330.75C117.063 333.502 118.038 336.139 119.647 338.387C121.255 340.634 123.438 342.411 125.968 343.53C132.811 346.993 140.376 348.798 148.049 348.798C155.721 348.798 163.286 346.993 170.129 343.53C172.651 342.412 174.828 340.643 176.436 338.406C178.045 336.168 179.027 333.543 179.28 330.8V325.393H116.822V330.75Z" fill="#C9294D"/>
<path d="M170.157 311.787C163.314 308.323 155.749 306.519 148.076 306.519C140.404 306.519 132.839 308.323 125.995 311.787C113.798 318.818 113.798 330.203 125.995 337.257C132.84 340.718 140.404 342.521 148.076 342.521C155.748 342.521 163.313 340.718 170.157 337.257C182.36 330.22 182.36 318.818 170.157 311.787Z" fill="url(#paint22_linear_808_1936)"/>
<path d="M154.237 314.593C153.481 313.802 152.481 313.286 151.397 313.128C150.312 312.971 149.207 313.18 148.255 313.723L131.25 323.528C129.322 324.644 130.132 326.525 132.765 326.971L156.931 331.09C159.659 331.553 162.197 330.097 161.403 328.517L154.237 314.593Z" fill="white"/>
<path d="M154.237 314.593C153.481 313.802 152.481 313.286 151.397 313.128C150.312 312.971 149.207 313.18 148.256 313.723L131.25 323.528C129.914 324.287 129.909 325.437 130.893 326.207C131.008 326.12 131.127 326.04 131.25 325.967L148.256 316.162C149.208 315.621 150.314 315.414 151.398 315.574C152.482 315.734 153.482 316.251 154.237 317.043L160.99 330.197C161.241 330.008 161.419 329.737 161.491 329.432C161.564 329.126 161.527 328.804 161.387 328.523L154.237 314.593Z" fill="url(#paint23_linear_808_1936)"/>
<g opacity="0.62">
<path d="M294.442 321.452C287.669 315.654 280.056 310.91 271.863 307.383C263.098 303.349 253.17 299.782 242.7 296.027L242.141 295.831C232.93 292.91 224.448 288.065 217.259 281.617C214.009 278.779 210.567 276.169 206.957 273.804C201.835 270.488 196.446 267.602 190.846 265.177C188.973 264.335 187.05 263.61 185.088 263.006L184.932 263.424C186.809 264.007 188.65 264.702 190.444 265.506C195.967 267.903 201.282 270.752 206.336 274.022C209.906 276.355 213.311 278.93 216.527 281.729C220.438 285.222 224.734 288.259 229.334 290.781C233.36 292.883 237.536 294.684 241.828 296.172L242.387 296.367C252.812 300.112 262.701 303.661 271.394 307.662C279.47 311.141 286.974 315.816 293.654 321.53C293.837 321.674 294.07 321.741 294.302 321.715C294.526 321.715 294.587 321.581 294.442 321.452Z" fill="#C46652"/>
<path d="M153.174 276.059L157.412 278.331L158.122 277.957L153.884 275.686L153.174 276.059Z" fill="url(#paint24_linear_808_1936)"/>
<path d="M210.903 250.176L217.399 253.636L217.958 253.346L211.462 249.892L210.903 250.176Z" fill="url(#paint25_linear_808_1936)"/>
<path d="M209.892 250.712L219.099 255.612L219.658 255.328L210.445 250.428L209.892 250.712Z" fill="url(#paint26_linear_808_1936)"/>
<path d="M237.797 264.491L245.478 268.576L246.037 268.291L238.356 264.206L237.797 264.491Z" fill="url(#paint27_linear_808_1936)"/>
<path d="M236.774 265.009L241.683 267.621L242.242 267.336L237.333 264.725L236.774 265.009Z" fill="url(#paint28_linear_808_1936)"/>
<path d="M265.675 279.324L270.466 281.868L271.025 281.595L266.229 279.039L265.675 279.324Z" fill="url(#paint29_linear_808_1936)"/>
<path d="M264.624 279.844L270.214 282.812L270.773 282.528L265.183 279.564L264.624 279.844Z" fill="url(#paint30_linear_808_1936)"/>
<path d="M293.273 294.007L300.311 297.751L300.87 297.472L293.832 293.728L293.273 294.007Z" fill="url(#paint31_linear_808_1936)"/>
<path d="M292.2 294.52L297.824 297.511L298.383 297.232L292.754 294.241L292.2 294.52Z" fill="url(#paint32_linear_808_1936)"/>
<path d="M320.883 308.695L325.12 310.928L325.718 310.654L321.475 308.422L320.883 308.695Z" fill="url(#paint33_linear_808_1936)"/>
<path d="M319.798 309.197L323.18 310.994L323.767 310.721L320.385 308.924L319.798 309.197Z" fill="url(#paint34_linear_808_1936)"/>
<path d="M179.9 290.368L184.171 292.656L184.898 292.288L180.627 290L179.9 290.368Z" fill="url(#paint35_linear_808_1936)"/>
<path d="M207.018 304.901L211.322 307.206L212.06 306.843L207.756 304.538L207.018 304.901Z" fill="url(#paint36_linear_808_1936)"/>
<path d="M234.147 319.427L238.479 321.749L239.234 321.386L234.902 319.064L234.147 319.427Z" fill="url(#paint37_linear_808_1936)"/>
<path d="M261.477 334.043L265.843 336.381L266.609 336.03L262.243 333.691L261.477 334.043Z" fill="url(#paint38_linear_808_1936)"/>
<g style="mix-blend-mode:multiply">
<path d="M289.489 300.286C287.063 299.727 284.883 299.253 282.971 298.835C273.758 296.837 269.554 295.927 265.133 290.955C258.579 285.409 251.474 280.547 243.929 276.445C238.142 273.108 232.543 269.455 227.159 265.501C220.394 261.369 212.784 258.809 204.894 258.012C202.654 257.74 200.449 257.235 198.314 256.505C198.219 256.452 198.114 256.418 198.005 256.407C197.897 256.395 197.787 256.406 197.683 256.438C197.537 256.511 197.576 256.661 197.778 256.773H197.811C200.101 257.603 202.48 258.165 204.899 258.447C212.527 259.185 219.887 261.641 226.427 265.63C231.854 269.619 237.501 273.301 243.342 276.657C250.802 280.723 257.83 285.53 264.322 291.005C265.852 292.768 267.686 294.243 269.739 295.358C273.937 297.239 278.368 298.553 282.915 299.264C284.827 299.683 286.996 300.152 289.399 300.715C310.966 305.738 315.27 311.369 315.309 311.43C315.39 311.51 315.486 311.573 315.592 311.615C315.697 311.656 315.811 311.675 315.924 311.67C316.17 311.67 316.293 311.558 316.198 311.425C316.008 311.19 311.681 305.431 289.489 300.286Z" fill="#C46652"/>
</g>
<path d="M292.29 299.225C278.163 295.955 273.048 295.876 267.559 289.738C262.069 283.599 237.557 270.83 229.591 264.307C222.212 258.263 207.75 257.442 200.942 255.623L157.898 275.998L266.659 333.73L318.043 309.594C316.366 307.97 310.223 303.349 292.29 299.225Z" fill="url(#paint39_linear_808_1936)"/>
<path d="M292.34 299.007C289.914 298.449 287.734 297.975 285.816 297.562C276.598 295.564 272.4 294.66 267.973 289.677C261.411 284.137 254.303 279.275 246.758 275.167C240.958 271.832 235.348 268.176 229.954 264.218C223.187 260.083 215.573 257.523 207.678 256.728C205.447 256.447 203.249 255.948 201.115 255.238V255.238C201.019 255.184 200.913 255.15 200.804 255.138C200.694 255.127 200.583 255.138 200.478 255.171C200.333 255.249 200.377 255.394 200.578 255.501C202.869 256.334 205.25 256.896 207.672 257.175C215.305 257.91 222.671 260.364 229.217 264.351C234.644 268.345 240.293 272.028 246.138 275.384C253.601 279.454 260.635 284.263 267.134 289.738C268.659 291.505 270.495 292.978 272.551 294.085C276.751 295.967 281.184 297.281 285.732 297.992C287.644 298.405 289.819 298.874 292.228 299.426C313.8 304.449 318.105 310.091 318.15 310.141C318.229 310.222 318.325 310.286 318.431 310.329C318.537 310.371 318.65 310.391 318.764 310.386C319.01 310.386 319.128 310.28 319.038 310.141C318.871 309.912 314.549 304.147 292.34 299.007Z" fill="#C46652"/>
<g style="mix-blend-mode:screen" opacity="0.6">
<path d="M273.842 306.502C264.954 302.411 254.836 298.8 244.215 294.983C234.923 292.035 226.365 287.148 219.109 280.646C215.871 277.828 212.442 275.236 208.846 272.889C202.084 268.466 194.813 264.873 187.19 262.186L157.937 275.97L266.698 333.702L295.822 320.04C289.167 314.522 281.768 309.964 273.842 306.502V306.502Z" fill="url(#paint40_linear_808_1936)"/>
</g>
<path d="M296.672 320.426C289.896 314.621 282.278 309.876 274.077 306.351C265.3 302.311 255.367 298.75 244.891 294.989L244.332 294.794C235.115 291.874 226.627 287.026 219.434 280.574C216.181 277.735 212.735 275.124 209.12 272.761C203.991 269.448 198.599 266.561 192.998 264.128C191.121 263.292 189.197 262.567 187.235 261.957L187.078 262.381C188.961 262.958 190.806 263.653 192.601 264.463C198.125 266.862 203.442 269.71 208.499 272.979C212.074 275.314 215.482 277.893 218.701 280.697C222.613 284.194 226.914 287.231 231.519 289.749C235.547 291.853 239.725 293.659 244.019 295.151L244.578 295.341C255.015 299.085 264.909 302.635 273.613 306.63C281.694 310.113 289.203 314.794 295.884 320.515C296.075 320.653 296.309 320.718 296.543 320.699C296.756 320.682 296.817 320.56 296.672 320.426Z" fill="#C46652"/>
<path d="M156.618 276.216L156.987 276.411L209.897 251.583L209.528 251.388L156.618 276.216Z" fill="white"/>
<path d="M184.228 290.776L184.608 290.982L236.215 265.802L235.83 265.602L184.228 290.776Z" fill="white"/>
<path d="M211.177 305.213L211.557 305.414L263.545 280.368L263.16 280.161L211.177 305.213Z" fill="white"/>
<path d="M238.339 319.756L238.725 319.957L291.121 295.034L290.73 294.827L238.339 319.756Z" fill="white"/>
<path d="M265.703 334.4L266.089 334.606L318.882 309.822L318.49 309.61L265.703 334.4Z" fill="white"/>
</g>
<path d="M156.221 75.512V88.9558V195.96C156.221 198.516 152.951 199.933 150.262 198.516L139.87 193.052L22.3494 131.464C20.8231 130.76 19.5194 129.651 18.5801 128.259C17.6408 126.867 17.1019 125.244 17.022 123.567V3.10829C17.0499 0.552346 20.3202 -0.870712 23.0034 0.524457L150.899 67.5986C152.418 68.3164 153.715 69.4307 154.652 70.8237C155.588 72.2167 156.131 73.8366 156.221 75.512V75.512Z" fill="#C46652"/>
<path d="M156.221 75.512V88.9558L152.8 91.188L21.3599 14.9281L17.022 11.5797V3.1083C17.0499 0.552346 20.3202 -0.870712 23.0034 0.524457L150.899 67.5986C152.418 68.3164 153.715 69.4307 154.652 70.8237C155.588 72.2167 156.131 73.8366 156.221 75.512V75.512Z" fill="#26216B"/>
<path d="M152.811 77.3315V91.1771V197.768C152.811 200.307 149.535 201.741 146.846 200.33L136.477 194.861L18.9282 133.289C18.2145 132.914 17.5435 132.463 16.9269 131.944C15.926 131.159 15.1098 130.165 14.536 129.031C13.9623 127.897 13.645 126.651 13.6064 125.381V4.93338C13.64 2.38859 16.9046 0.971106 19.5878 2.37185L147.484 69.4404C149.005 70.1503 150.304 71.2594 151.242 72.6493C152.181 74.0392 152.723 75.6577 152.811 77.3315V77.3315Z" fill="url(#paint41_linear_808_1936)"/>
<path d="M152.8 77.3309V91.171L13.6064 17.7572V4.92166C13.6064 2.37688 16.899 0.959387 19.5823 2.36014L147.484 69.4287C149.006 70.1385 150.306 71.2494 151.242 72.6418C152.179 74.0343 152.718 75.6556 152.8 77.3309Z" fill="#322C8D"/>
<path d="M99.6714 76.7178L100.001 106.1L126.957 120.548H127.001L126.666 91.1605L99.7441 76.7233C99.7441 76.7233 99.6937 76.7289 99.6714 76.7178Z" fill="#EFEFF4"/>
<path d="M110.348 104.118L120.232 101.584L110.08 89.9766L110.348 104.118Z" fill="#322C8D"/>
<path d="M97.452 108.025L86.339 102.076C85.5787 101.663 84.8575 102.16 84.8743 103.069L85.042 111.747C85.0495 112.067 85.1387 112.379 85.3011 112.654C85.4636 112.93 85.6938 113.159 85.97 113.321L97.0831 119.275C97.8378 119.683 98.5645 119.192 98.5477 118.282L98.38 109.604C98.3719 109.284 98.2825 108.971 98.1202 108.695C97.9579 108.419 97.728 108.188 97.452 108.025V108.025Z" fill="white"/>
<path d="M107.749 127.517L65.3146 104.77C64.4425 104.302 63.7438 104.77 63.7605 105.887L64.1295 138.813C64.1527 139.372 64.3101 139.917 64.5883 140.402C64.8665 140.888 65.2574 141.3 65.7282 141.603L108.168 164.355C109.04 164.819 109.734 164.355 109.722 163.239L109.353 130.313C109.331 129.753 109.174 129.206 108.895 128.719C108.615 128.232 108.222 127.82 107.749 127.517V127.517Z" fill="url(#paint42_linear_808_1936)"/>
<path d="M107.055 126.742L66.0017 104.732C64.7495 104.062 63.7656 104.765 63.7656 106.306L63.8104 109.721L109.403 134.164L109.364 130.749C109.329 129.945 109.101 129.162 108.699 128.465C108.297 127.767 107.733 127.177 107.055 126.742V126.742Z" fill="#322C8D"/>
<path d="M106.178 128.193C105.748 127.965 105.412 128.193 105.418 128.751C105.426 129.024 105.502 129.291 105.637 129.529C105.773 129.766 105.964 129.967 106.195 130.113C106.62 130.342 106.961 130.113 106.955 129.555C106.945 129.283 106.868 129.017 106.733 128.78C106.598 128.543 106.408 128.342 106.178 128.193Z" fill="white"/>
<path d="M102.707 126.335C102.282 126.106 101.941 126.335 101.946 126.893C101.96 127.165 102.039 127.429 102.175 127.665C102.311 127.901 102.501 128.101 102.729 128.249C103.154 128.472 103.495 128.249 103.489 127.691C103.479 127.418 103.403 127.153 103.266 126.916C103.13 126.68 102.938 126.48 102.707 126.335V126.335Z" fill="white"/>
<path d="M99.2578 124.471C98.833 124.248 98.492 124.471 98.4976 125.029C98.5113 125.301 98.5892 125.566 98.7253 125.801C98.8613 126.037 99.0516 126.237 99.2802 126.385C99.7051 126.614 100.046 126.385 100.035 125.827C100.026 125.555 99.9499 125.29 99.8145 125.053C99.6791 124.817 99.488 124.617 99.2578 124.471V124.471Z" fill="white"/>
<path d="M108.006 106.407L96.8929 100.452C96.1326 100.045 95.4059 100.536 95.4282 101.446L95.5904 110.129C95.601 110.448 95.6914 110.759 95.8535 111.034C96.0156 111.309 96.2442 111.539 96.5183 111.703L107.631 117.658C108.392 118.065 109.118 117.574 109.096 116.659L108.934 107.986C108.925 107.666 108.836 107.354 108.673 107.077C108.511 106.801 108.282 106.571 108.006 106.407V106.407Z" fill="url(#paint43_linear_808_1936)"/>
<path d="M28.1572 96.5459L28.3696 115.609L56.4599 130.828L56.5549 130.867L56.3425 111.803L28.2746 96.5961C28.2367 96.5767 28.1975 96.5599 28.1572 96.5459Z" fill="white"/>
<path d="M74.2979 68.6256C73.7892 68.3465 73.3811 68.6257 73.3923 69.2618C73.4056 69.5883 73.4974 69.9068 73.6599 70.1904C73.8224 70.474 74.0508 70.7144 74.3259 70.8914C74.8346 71.1648 75.2426 70.8913 75.2371 70.2496C75.2218 69.9237 75.1286 69.6062 74.9652 69.3237C74.8018 69.0411 74.573 68.8017 74.2979 68.6256Z" fill="white"/>
<path d="M82.7779 73.1626C82.2692 72.8947 81.8611 73.1626 81.8723 73.81C81.8836 74.1362 81.9739 74.4549 82.1355 74.7387C82.2971 75.0225 82.5252 75.263 82.8003 75.4396C83.309 75.7074 83.7171 75.4396 83.7115 74.7922C83.6982 74.4658 83.6064 74.1473 83.4439 73.8637C83.2814 73.5801 83.053 73.3396 82.7779 73.1626V73.1626Z" fill="white"/>
<path d="M91.2528 77.711C90.7441 77.4375 90.3416 77.711 90.3472 78.3528C90.3614 78.6783 90.4536 78.9956 90.616 79.2782C90.7784 79.5607 91.0065 79.8003 91.2808 79.9768C91.7895 80.2502 92.1975 79.9768 92.1863 79.3406C92.174 79.0139 92.0827 78.6951 91.9201 78.4113C91.7576 78.1275 91.5286 77.8873 91.2528 77.711V77.711Z" fill="white"/>
<path d="M74.3985 77.3819C73.8898 77.1084 73.4873 77.3819 73.4873 78.0237C73.503 78.3502 73.5964 78.6683 73.7597 78.9517C73.9231 79.2351 74.1516 79.4756 74.4264 79.6533C74.9351 79.9212 75.3433 79.6533 75.3377 79.0115C75.3219 78.6849 75.2285 78.3668 75.0652 78.0835C74.9019 77.8001 74.6734 77.5596 74.3985 77.3819V77.3819Z" fill="white"/>
<path d="M82.879 81.9298C82.3647 81.6564 81.9622 81.9298 81.9678 82.566C81.9825 82.8922 82.0748 83.2101 82.2371 83.4935C82.3995 83.7769 82.6272 84.0176 82.9013 84.1956C83.41 84.4691 83.8181 84.1956 83.8125 83.5538C83.7979 83.2284 83.7055 82.9113 83.5431 82.6288C83.3807 82.3463 83.153 82.1066 82.879 81.9298V81.9298Z" fill="white"/>
<path d="M91.3531 86.4668C90.8444 86.1934 90.4364 86.4669 90.442 87.1087C90.4559 87.4356 90.5484 87.7544 90.7119 88.038C90.8754 88.3217 91.1049 88.5618 91.3811 88.7382C91.8842 89.0116 92.2923 88.7382 92.2867 88.102C92.2743 87.7746 92.1829 87.455 92.0204 87.1703C91.8579 86.8856 91.629 86.6443 91.3531 86.4668V86.4668Z" fill="white"/>
<path d="M74.499 86.1437C73.9903 85.8703 73.5823 86.1437 73.5935 86.7799C73.605 87.1075 73.6959 87.4274 73.8585 87.7123C74.0211 87.9971 74.2505 88.2382 74.527 88.415C75.0301 88.6885 75.4438 88.415 75.4326 87.7732C75.4207 87.4465 75.3295 87.1275 75.1669 86.8437C75.0043 86.5598 74.7751 86.3196 74.499 86.1437V86.1437Z" fill="white"/>
<path d="M82.9735 90.6856C82.4648 90.4121 82.0623 90.6856 82.0679 91.3274C82.0807 91.6532 82.1723 91.9711 82.3349 92.2539C82.4975 92.5367 82.7262 92.776 83.0015 92.9514C83.5102 93.2248 83.9183 92.9514 83.9071 92.3152C83.8938 91.9887 83.802 91.6703 83.6395 91.3867C83.4771 91.1031 83.2486 90.8626 82.9735 90.6856V90.6856Z" fill="white"/>
<path d="M91.4317 95.2345C90.923 94.9611 90.515 95.2345 90.5206 95.8707C90.5339 96.1972 90.6256 96.5156 90.7881 96.7992C90.9505 97.0829 91.179 97.3233 91.4541 97.5003C91.9684 97.7738 92.3709 97.5003 92.3653 96.8641C92.3529 96.5375 92.2616 96.2186 92.099 95.9348C91.9364 95.6511 91.7075 95.4108 91.4317 95.2345V95.2345Z" fill="white"/>
<path d="M65.102 132.217L60.5181 131.179C60.4566 131.179 60.4231 131.235 60.4566 131.302L61.3734 133.244C61.3734 133.299 61.3734 133.35 61.3454 133.366L59.551 134.187C59.5119 134.187 59.5063 134.259 59.551 134.309L59.9871 135.23C59.9908 135.241 59.9966 135.251 60.0044 135.26C60.0121 135.268 60.0215 135.275 60.032 135.28C60.0425 135.284 60.0539 135.287 60.0654 135.287C60.0769 135.287 60.0883 135.285 60.0989 135.281L61.8877 134.466C61.9106 134.46 61.9348 134.464 61.9555 134.475C61.9761 134.486 61.9918 134.505 61.9995 134.527L62.9106 136.464C62.9442 136.536 63.0225 136.553 63.0505 136.497L65.1971 132.379C65.203 132.362 65.2052 132.344 65.2035 132.326C65.2018 132.308 65.1962 132.291 65.1872 132.276C65.1781 132.26 65.1658 132.247 65.1511 132.237C65.1364 132.227 65.1196 132.22 65.102 132.217Z" fill="white"/>
<path d="M63.8223 59.7911L36.4308 45.1028C35.1227 44.4052 34.0718 45.1474 34.0886 46.777L34.4687 80.4731C34.5058 81.3137 34.7439 82.1334 35.163 82.8634C35.5821 83.5935 36.1701 84.2128 36.878 84.6697L64.2695 99.3525C65.5832 100.061 66.6285 99.3191 66.6117 97.7063L66.2316 64.0046C66.199 63.1606 65.963 62.3369 65.5435 61.6034C65.1241 60.8699 64.5337 60.2482 63.8223 59.7911Z" fill="url(#paint44_linear_808_1936)"/>
<path d="M43.7539 68.7983L56.913 75.8523L56.9577 75.6458L43.8042 68.5918L43.7539 68.7983Z" fill="white"/>
<path d="M50.1655 64.1045L50.35 80.2885L50.5457 80.3387L50.3612 64.1547L50.1655 64.1045Z" fill="white"/>
<path d="M63.2128 62.0625L37.1518 48.1108C37.0546 48.0499 36.9423 48.0176 36.8275 48.0176C36.7128 48.0176 36.6004 48.0499 36.5033 48.1108C36.4044 48.1903 36.327 48.2932 36.2782 48.4101C36.2294 48.5271 36.2107 48.6544 36.2238 48.7805L36.5872 80.847C36.6004 81.1633 36.6902 81.4718 36.8489 81.7459C37.0076 82.0199 37.2304 82.2515 37.4984 82.4208L63.5538 96.3725C63.6493 96.4353 63.76 96.471 63.8742 96.4759C63.9884 96.4808 64.1018 96.4548 64.2023 96.4004C64.3012 96.3198 64.3786 96.2159 64.4274 96.098C64.4762 95.9802 64.4948 95.852 64.4818 95.7251L64.1184 63.6642C64.1084 63.344 64.0208 63.031 63.8631 62.7521C63.7054 62.4731 63.4822 62.2365 63.2128 62.0625V62.0625ZM64.2861 95.6526C64.2993 95.7487 64.2872 95.8467 64.251 95.9367C64.2147 96.0268 64.1555 96.1058 64.0793 96.1661C64.0057 96.2098 63.9218 96.2328 63.8362 96.2328C63.7506 96.2328 63.6665 96.2098 63.593 96.1661L37.5375 82.2144C37.3159 82.0691 37.1321 81.8735 37.0009 81.6436C36.8698 81.4137 36.795 81.1561 36.7828 80.8918L36.4195 48.8307C36.4092 48.7353 36.4221 48.6388 36.4572 48.5495C36.4922 48.4601 36.5484 48.3805 36.6208 48.3173C36.6949 48.2752 36.7786 48.2531 36.8639 48.2531C36.9491 48.2531 37.0329 48.2752 37.1071 48.3173L63.1681 62.269C63.3904 62.4148 63.5747 62.6112 63.7059 62.8422C63.8371 63.0731 63.9115 63.332 63.9227 63.5972L64.2861 95.6526Z" fill="white"/>
<path d="M52.4073 70.0257L48.2204 67.7934C47.8849 67.6149 47.6166 67.7934 47.6222 68.2175L47.6781 73.3685C47.6885 73.5835 47.7502 73.793 47.8582 73.9794C47.9661 74.1658 48.1171 74.3237 48.2986 74.44L52.4856 76.6722C52.821 76.8564 53.0893 76.6723 53.0837 76.2593L53.0222 71.1027C53.0157 70.8867 52.9562 70.6756 52.849 70.4878C52.7418 70.3 52.5901 70.1414 52.4073 70.0257V70.0257Z" fill="white"/>
<path d="M55.521 85.3062L50.3557 71.3545L45.4531 79.8985C44.7666 81.6121 44.4468 83.4501 44.5142 85.2944C44.5816 87.1388 45.0347 88.9487 45.8445 90.6078L47.052 93.599L50.4451 95.4183L50.814 95.6192L54.2073 97.4385L55.3644 95.7029C56.1536 94.0877 56.5766 92.3188 56.6037 90.522C56.6307 88.7251 56.2611 86.9443 55.521 85.3062V85.3062ZM52.7259 87.4045C52.7259 88.9224 51.7644 89.6368 50.5234 88.9615C49.8636 88.5258 49.3168 87.9398 48.9281 87.252C48.5394 86.5641 48.3197 85.7939 48.2873 85.0048C48.2873 83.4869 49.2657 82.7725 50.5234 83.4589C51.1824 83.8858 51.729 84.4645 52.1171 85.1463C52.5053 85.828 52.7236 86.5929 52.7538 87.3765L52.7259 87.4045Z" fill="url(#paint45_linear_808_1936)"/>
<path d="M53.5363 96.9584L47.4935 93.7159C47.2699 93.5987 47.0854 93.716 47.0909 94.0006V96.4114C47.097 96.5571 47.1384 96.6993 47.2114 96.8256C47.2844 96.9519 47.387 97.0587 47.5103 97.1369L53.5531 100.379C53.7823 100.502 53.9668 100.379 53.9612 100.1V97.6838C53.955 97.5375 53.913 97.3949 53.839 97.2684C53.7649 97.142 53.661 97.0356 53.5363 96.9584Z" fill="url(#paint46_linear_808_1936)"/>
<path d="M81.5427 140.834C80.1281 139.388 79.127 137.59 78.6434 135.628C78.1597 133.665 78.2112 131.609 78.7923 129.673C79.0563 128.988 79.4642 128.368 79.9886 127.854C79.3729 128.08 78.8161 128.442 78.3593 128.912C77.9026 129.383 77.5577 129.95 77.3501 130.571C76.7483 132.556 76.6902 134.666 77.1818 136.681C77.6733 138.695 78.6966 140.542 80.1451 142.028C82.7501 144.612 85.7912 144.551 87.4123 142.101C86.4425 142.62 85.3195 142.777 84.2441 142.545C83.1688 142.313 82.2111 141.707 81.5427 140.834Z" fill="url(#paint47_linear_808_1936)"/>
<path d="M88.9663 134.126C89.1826 134.809 89.3507 135.507 89.4694 136.213C89.3507 135.507 89.1826 134.809 88.9663 134.126V134.126Z" fill="url(#paint48_linear_808_1936)"/>
<path d="M87.6807 144.266L88.0944 145.192L89.7714 144.171L89.3577 143.239L87.6807 144.266Z" fill="url(#paint49_linear_808_1936)"/>
<path d="M79.189 125.286L79.6027 126.218L81.2797 125.191L80.866 124.271L79.189 125.286Z" fill="url(#paint50_linear_808_1936)"/>
<path d="M89.2739 141.414C88.991 142.483 88.4431 143.464 87.6807 144.266L89.3577 143.239C89.8561 142.725 90.2575 142.126 90.5428 141.47L89.9838 141.833L89.2739 141.414Z" fill="url(#paint51_linear_808_1936)"/>
<path d="M81.263 125.197L79.5859 126.218C80.5625 125.968 81.5929 126.031 82.532 126.396L82.6437 125.498L83.2027 125.124C82.5584 125.01 81.897 125.035 81.263 125.197V125.197Z" fill="url(#paint52_linear_808_1936)"/>
<path d="M89.9668 141.833L90.5258 141.47L91.6438 140.818L92.0351 137.731L90.3581 138.753L89.9668 141.833Z" fill="url(#paint53_linear_808_1936)"/>
<path d="M89.6597 138.328L90.3529 138.746L92.0298 137.725L91.3311 137.307L89.6597 138.328Z" fill="url(#paint54_linear_808_1936)"/>
<path d="M84.958 127.831L86.6351 126.81L86.7469 125.917L85.0698 126.933L84.958 127.831Z" fill="url(#paint55_linear_808_1936)"/>
<path d="M89.5365 133.786L88.9775 134.126C89.1939 134.809 89.362 135.507 89.4806 136.213C89.5989 136.912 89.6624 137.619 89.6707 138.328L91.3477 137.313C91.3223 135.885 91.0869 134.469 90.649 133.11L89.5365 133.786Z" fill="url(#paint56_linear_808_1936)"/>
<path d="M86.6185 126.815L84.9414 127.831C85.9662 128.715 86.8354 129.764 87.5128 130.934L89.1899 129.974C88.5164 128.785 87.6471 127.717 86.6185 126.815V126.815Z" fill="url(#paint57_linear_808_1936)"/>
<path d="M88.1055 130.594L89.5365 133.786L90.621 133.111L91.18 132.77L89.749 129.578L88.1055 130.594Z" fill="url(#paint58_linear_808_1936)"/>
<path d="M89.0725 134.065L89.5365 133.786L88.1054 130.593L87.6526 130.856C87.1002 129.911 86.4295 129.041 85.6569 128.266C85.4333 128.049 85.2097 127.848 84.9861 127.658L85.0756 126.933L82.6607 125.498L82.5656 126.252C81.6016 125.895 80.5502 125.849 79.5582 126.118L79.1892 125.286L77.2047 126.452L77.5848 127.295C76.9852 127.912 76.519 128.645 76.2153 129.449C76.1202 129.689 76.0364 129.935 75.9581 130.186L75.3376 129.818L74.9463 132.904L75.55 133.255C75.5578 134.723 75.7878 136.181 76.2321 137.58L75.7681 137.859L77.1991 141.057L77.6519 140.784C78.2025 141.731 78.8732 142.603 79.6476 143.379C79.8712 143.596 80.0948 143.797 80.3184 143.987L80.229 144.712L82.6438 146.152L82.739 145.399C83.7022 145.751 84.7509 145.796 85.7408 145.527L86.1098 146.359L88.0942 145.192L87.7197 144.344C88.3193 143.73 88.7855 142.998 89.0892 142.196C89.1856 141.955 89.2697 141.709 89.3409 141.459L89.967 141.833L90.3582 138.747L89.7545 138.39C89.7467 136.922 89.5168 135.464 89.0725 134.065ZM87.9545 141.068C86.5905 144.506 83.1079 144.941 80.1786 142.034C78.7301 140.547 77.7068 138.701 77.2153 136.686C76.7238 134.671 76.7819 132.562 77.3836 130.577C78.7532 127.139 82.2303 126.704 85.1595 129.606C86.607 131.094 87.6291 132.942 88.1196 134.957C88.6102 136.973 88.5512 139.083 87.9489 141.068H87.9545Z" fill="#FF7700"/>
<path d="M83.2421 125.124L82.6831 125.498L85.0981 126.932L86.7751 125.916L84.3602 124.477L83.2421 125.124Z" fill="url(#paint59_linear_808_1936)"/>
<g style="mix-blend-mode:screen" opacity="0.25">
<path d="M123.793 56.9453L16.9269 131.944C15.926 131.159 15.1098 130.165 14.536 129.031C13.9623 127.897 13.645 126.651 13.6064 125.381V4.93338C13.64 2.38859 16.9046 0.971106 19.5878 2.37185L123.793 56.9453Z" fill="white"/>
</g>
<path d="M64.9628 40.8673L52.4019 34.0199C52.2249 33.9261 52.0728 33.7917 51.9581 33.6277C51.8434 33.4637 51.7694 33.2749 51.7422 33.0767C51.7422 32.753 52.0385 32.6581 52.4074 32.859L64.9684 39.7066C65.1448 39.801 65.2964 39.9356 65.411 40.0995C65.5256 40.2633 65.6 40.4518 65.628 40.6496C65.6225 40.9733 65.3262 41.057 64.9628 40.8673Z" fill="white"/>
<path d="M30.9748 22.473C30.7674 22.3604 30.5938 22.1948 30.4717 21.9931L22.4667 9.11291C22.2319 8.739 22.2711 8.393 22.5561 8.34277C22.7455 8.34966 22.93 8.40448 23.0923 8.5021C23.2547 8.59972 23.3895 8.73688 23.4841 8.90079L31.4891 21.7754C31.7183 22.1493 31.6792 22.4953 31.3997 22.5511C31.2533 22.5726 31.1039 22.5451 30.9748 22.473Z" fill="white"/>
<path d="M22.9419 18.0926C22.7794 18.0007 22.6369 17.8774 22.5227 17.7298C22.2432 17.3671 22.2041 16.982 22.4388 16.8648L30.4998 12.7518C30.7401 12.6347 31.1538 12.83 31.4333 13.1815C31.7128 13.5331 31.7519 13.9294 31.5171 14.0522L23.4506 18.1651C23.3662 18.1945 23.2759 18.2033 23.1874 18.1907C23.0989 18.178 23.0147 18.1444 22.9419 18.0926V18.0926Z" fill="white"/>
<path d="M44.2682 29.3369C42.7887 28.5534 41.5171 27.4296 40.5587 26.0584C39.6003 24.6873 38.9824 23.1081 38.7563 21.4514C38.7563 18.7671 41.2496 17.9355 44.3018 19.6042C45.7838 20.3843 47.0581 21.5062 48.0187 22.8767C48.9793 24.2472 49.5985 25.8267 49.8248 27.4841C49.8136 30.174 47.3204 31.0111 44.2682 29.3369ZM44.3018 20.765C41.9763 19.4926 40.0812 20.1344 40.0757 22.1713C40.248 23.4322 40.7187 24.634 41.4487 25.6773C42.1787 26.7205 43.1471 27.5751 44.2738 28.1705C46.5937 29.4373 48.4888 28.8067 48.5 26.7642C48.3276 25.504 47.8569 24.3029 47.1268 23.2606C46.3967 22.2183 45.4283 21.3646 44.3018 20.7705V20.765Z" fill="white"/>
<defs>
<linearGradient id="paint0_linear_808_1936" x1="8.96582" y1="306.28" x2="459.085" y2="306.28" gradientUnits="userSpaceOnUse">
<stop stop-color="#C8D6F9"/>
<stop offset="1" stop-color="#BAC1E8"/>
</linearGradient>
<linearGradient id="paint1_linear_808_1936" x1="13.9565" y1="300.304" x2="455.72" y2="300.304" gradientUnits="userSpaceOnUse">
<stop stop-color="#5752D0"/>
<stop offset="1" stop-color="#7F7CF9"/>
</linearGradient>
<linearGradient id="paint2_linear_808_1936" x1="292.287" y1="281.578" x2="299.348" y2="254.283" gradientUnits="userSpaceOnUse">
<stop stop-color="#FF6279"/>
<stop offset="1" stop-color="#FFAD60"/>
</linearGradient>
<linearGradient id="paint3_linear_808_1936" x1="328.582" y1="233.51" x2="314.192" y2="265.016" gradientUnits="userSpaceOnUse">
<stop stop-color="#FF6279"/>
<stop offset="1" stop-color="#FFAD60"/>
</linearGradient>
<linearGradient id="paint4_linear_808_1936" x1="317.011" y1="233.003" x2="311.204" y2="260.075" gradientUnits="userSpaceOnUse">
<stop stop-color="white"/>
<stop offset="1" stop-color="#D5DBEB"/>
</linearGradient>
<linearGradient id="paint5_linear_808_1936" x1="309.887" y1="248.862" x2="308.074" y2="261.578" gradientUnits="userSpaceOnUse">
<stop stop-color="#FF6279"/>
<stop offset="1" stop-color="#FFAD60"/>
</linearGradient>
<linearGradient id="paint6_linear_808_1936" x1="284.573" y1="279.174" x2="288.846" y2="252.427" gradientUnits="userSpaceOnUse">
<stop stop-color="white"/>
<stop offset="1" stop-color="#D5DBEB"/>
</linearGradient>
<linearGradient id="paint7_linear_808_1936" x1="291.265" y1="262.214" x2="293.104" y2="252.789" gradientUnits="userSpaceOnUse">
<stop stop-color="#FF6279"/>
<stop offset="1" stop-color="#FFAD60"/>
</linearGradient>
<linearGradient id="paint8_linear_808_1936" x1="368.835" y1="289.49" x2="368.835" y2="311.614" gradientUnits="userSpaceOnUse">
<stop stop-color="white"/>
<stop offset="0.121" stop-color="#E7E7E7"/>
<stop offset="0.376" stop-color="#AAAAAA"/>
<stop offset="0.74" stop-color="#494949"/>
<stop offset="1"/>
</linearGradient>
<linearGradient id="paint9_linear_808_1936" x1="339.001" y1="305.363" x2="339.001" y2="265.3" gradientUnits="userSpaceOnUse">
<stop/>
<stop offset="0.09" stop-color="#060606"/>
<stop offset="0.217" stop-color="#181818"/>
<stop offset="0.364" stop-color="#363636"/>
<stop offset="0.528" stop-color="#606060"/>
<stop offset="0.705" stop-color="#959595"/>
<stop offset="0.891" stop-color="#D5D5D5"/>
<stop offset="1" stop-color="white"/>
</linearGradient>
<linearGradient id="paint10_linear_808_1936" x1="305.033" y1="298.985" x2="305.033" y2="225.22" gradientUnits="userSpaceOnUse">
<stop/>
<stop offset="0.09" stop-color="#060606"/>
<stop offset="0.217" stop-color="#181818"/>
<stop offset="0.364" stop-color="#363636"/>
<stop offset="0.528" stop-color="#606060"/>
<stop offset="0.705" stop-color="#959595"/>
<stop offset="0.891" stop-color="#D5D5D5"/>
<stop offset="1" stop-color="white"/>
</linearGradient>
<linearGradient id="paint11_linear_808_1936" x1="277.356" y1="280.546" x2="277.356" y2="222.636" gradientUnits="userSpaceOnUse">
<stop/>
<stop offset="0.09" stop-color="#060606"/>
<stop offset="0.217" stop-color="#181818"/>
<stop offset="0.364" stop-color="#363636"/>
<stop offset="0.528" stop-color="#606060"/>
<stop offset="0.705" stop-color="#959595"/>
<stop offset="0.891" stop-color="#D5D5D5"/>
<stop offset="1" stop-color="white"/>
</linearGradient>
<linearGradient id="paint12_linear_808_1936" x1="249.475" y1="279.492" x2="249.475" y2="221.604" gradientUnits="userSpaceOnUse">
<stop/>
<stop offset="0.09" stop-color="#060606"/>
<stop offset="0.217" stop-color="#181818"/>
<stop offset="0.364" stop-color="#363636"/>
<stop offset="0.528" stop-color="#606060"/>
<stop offset="0.705" stop-color="#959595"/>
<stop offset="0.891" stop-color="#D5D5D5"/>
<stop offset="1" stop-color="white"/>
</linearGradient>
<linearGradient id="paint13_linear_808_1936" x1="234.049" y1="263.798" x2="234.049" y2="205.888" gradientUnits="userSpaceOnUse">
<stop/>
<stop offset="0.09" stop-color="#060606"/>
<stop offset="0.217" stop-color="#181818"/>
<stop offset="0.364" stop-color="#363636"/>
<stop offset="0.528" stop-color="#606060"/>
<stop offset="0.705" stop-color="#959595"/>
<stop offset="0.891" stop-color="#D5D5D5"/>
<stop offset="1" stop-color="white"/>
</linearGradient>
<radialGradient id="paint14_radial_808_1936" cx="0" cy="0" r="1" gradientUnits="userSpaceOnUse" gradientTransform="translate(264.126 225.205) scale(8.19248 8.49052)">
<stop stop-color="#FFCA71"/>
<stop offset="0.996"/>
<stop offset="1"/>
</radialGradient>
<radialGradient id="paint15_radial_808_1936" cx="0" cy="0" r="1" gradientUnits="userSpaceOnUse" gradientTransform="translate(236.44 233.297) scale(8.19245 8.49067)">
<stop stop-color="#FFCA71"/>
<stop offset="0.996"/>
<stop offset="1"/>
</radialGradient>
<radialGradient id="paint16_radial_808_1936" cx="0" cy="0" r="1" gradientUnits="userSpaceOnUse" gradientTransform="translate(210.11 221.069) scale(8.19249 8.49063)">
<stop stop-color="#FFCA71"/>
<stop offset="0.996"/>
<stop offset="1"/>
</radialGradient>
<radialGradient id="paint17_radial_808_1936" cx="0" cy="0" r="1" gradientUnits="userSpaceOnUse" gradientTransform="translate(296.318 267.462) scale(8.19247 8.49078)">
<stop stop-color="#FFCA71"/>
<stop offset="0.996"/>
<stop offset="1"/>
</radialGradient>
<radialGradient id="paint18_radial_808_1936" cx="0" cy="0" r="1" gradientUnits="userSpaceOnUse" gradientTransform="translate(323.029 286.682) scale(8.1785 8.48479)">
<stop stop-color="#FFCA71"/>
<stop offset="0.996"/>
<stop offset="1"/>
</radialGradient>
<linearGradient id="paint19_linear_808_1936" x1="62.5474" y1="362.959" x2="178.056" y2="362.959" gradientUnits="userSpaceOnUse">
<stop stop-color="#AFAFDC"/>
<stop offset="1" stop-color="white"/>
</linearGradient>
<linearGradient id="paint20_linear_808_1936" x1="63.5518" y1="331.546" x2="85.0897" y2="364.174" gradientUnits="userSpaceOnUse">
<stop stop-color="#FF6279"/>
<stop offset="1" stop-color="#FFAD60"/>
</linearGradient>
<linearGradient id="paint21_linear_808_1936" x1="129.032" y1="351.289" x2="190.217" y2="351.289" gradientUnits="userSpaceOnUse">
<stop offset="0.022" stop-color="#0051B3"/>
<stop offset="0.159" stop-color="#0353B4"/>
<stop offset="0.279" stop-color="#0E5AB7"/>
<stop offset="0.393" stop-color="#2067BC"/>
<stop offset="0.503" stop-color="#3978C4"/>
<stop offset="0.611" stop-color="#5A8ECE"/>
<stop offset="0.717" stop-color="#82AADA"/>
<stop offset="0.821" stop-color="#B2CAE8"/>
<stop offset="0.921" stop-color="#E8EFF8"/>
<stop offset="0.959" stop-color="white"/>
</linearGradient>
<linearGradient id="paint22_linear_808_1936" x1="138.147" y1="324.52" x2="186.743" y2="324.52" gradientUnits="userSpaceOnUse">
<stop stop-color="#D82C53"/>
<stop offset="1" stop-color="#FF5774"/>
</linearGradient>
<linearGradient id="paint23_linear_808_1936" x1="130.196" y1="321.637" x2="161.528" y2="321.637" gradientUnits="userSpaceOnUse">
<stop stop-color="#C8D6F9"/>
<stop offset="1" stop-color="#BAC1E8"/>
</linearGradient>
<linearGradient id="paint24_linear_808_1936" x1="-6700.8" y1="8820.82" x2="-6697.56" y2="8820.82" gradientUnits="userSpaceOnUse">
<stop stop-color="white"/>
<stop offset="1" stop-color="#D5DBEB"/>
</linearGradient>
<linearGradient id="paint25_linear_808_1936" x1="-6707.24" y1="8764.53" x2="-6702.34" y2="8764.53" gradientUnits="userSpaceOnUse">
<stop stop-color="white"/>
<stop offset="1" stop-color="#D5DBEB"/>
</linearGradient>
<linearGradient id="paint26_linear_808_1936" x1="-6702.97" y1="8767.34" x2="-6696.06" y2="8767.34" gradientUnits="userSpaceOnUse">
<stop stop-color="white"/>
<stop offset="1" stop-color="#D5DBEB"/>
</linearGradient>
<linearGradient id="paint27_linear_808_1936" x1="-6676.88" y1="8762.45" x2="-6671.1" y2="8762.45" gradientUnits="userSpaceOnUse">
<stop stop-color="white"/>
<stop offset="1" stop-color="#D5DBEB"/>
</linearGradient>
<linearGradient id="paint28_linear_808_1936" x1="-6680.24" y1="8773.93" x2="-6676.53" y2="8773.93" gradientUnits="userSpaceOnUse">
<stop stop-color="white"/>
<stop offset="1" stop-color="#D5DBEB"/>
</linearGradient>
<linearGradient id="paint29_linear_808_1936" x1="-6638.65" y1="8767.18" x2="-6635.02" y2="8767.18" gradientUnits="userSpaceOnUse">
<stop stop-color="white"/>
<stop offset="1" stop-color="#D5DBEB"/>
</linearGradient>
<linearGradient id="paint30_linear_808_1936" x1="-6653.01" y1="8766.98" x2="-6648.78" y2="8766.98" gradientUnits="userSpaceOnUse">
<stop stop-color="white"/>
<stop offset="1" stop-color="#D5DBEB"/>
</linearGradient>
<linearGradient id="paint31_linear_808_1936" x1="-6616.86" y1="8770.55" x2="-6611.56" y2="8770.55" gradientUnits="userSpaceOnUse">
<stop stop-color="white"/>
<stop offset="1" stop-color="#D5DBEB"/>
</linearGradient>
<linearGradient id="paint32_linear_808_1936" x1="-6605.71" y1="8769.79" x2="-6601.47" y2="8769.79" gradientUnits="userSpaceOnUse">
<stop stop-color="white"/>
<stop offset="1" stop-color="#D5DBEB"/>
</linearGradient>
<linearGradient id="paint33_linear_808_1936" x1="-6621.1" y1="8691.53" x2="-6617.86" y2="8691.53" gradientUnits="userSpaceOnUse">
<stop stop-color="white"/>
<stop offset="1" stop-color="#D5DBEB"/>
</linearGradient>
<linearGradient id="paint34_linear_808_1936" x1="-6606.83" y1="8767.02" x2="-6604.23" y2="8767.02" gradientUnits="userSpaceOnUse">
<stop stop-color="white"/>
<stop offset="1" stop-color="#D5DBEB"/>
</linearGradient>
<linearGradient id="paint35_linear_808_1936" x1="-6687.03" y1="8840.56" x2="-6683.76" y2="8840.56" gradientUnits="userSpaceOnUse">
<stop stop-color="white"/>
<stop offset="1" stop-color="#D5DBEB"/>
</linearGradient>
<linearGradient id="paint36_linear_808_1936" x1="-6664.51" y1="8825.56" x2="-6661.19" y2="8825.56" gradientUnits="userSpaceOnUse">
<stop stop-color="white"/>
<stop offset="1" stop-color="#D5DBEB"/>
</linearGradient>
<linearGradient id="paint37_linear_808_1936" x1="-6645.93" y1="8844.82" x2="-6642.59" y2="8844.82" gradientUnits="userSpaceOnUse">
<stop stop-color="white"/>
<stop offset="1" stop-color="#D5DBEB"/>
</linearGradient>
<linearGradient id="paint38_linear_808_1936" x1="-6622.49" y1="8829.99" x2="-6619.11" y2="8829.99" gradientUnits="userSpaceOnUse">
<stop stop-color="white"/>
<stop offset="1" stop-color="#D5DBEB"/>
</linearGradient>
<linearGradient id="paint39_linear_808_1936" x1="-6666.37" y1="8776.56" x2="-6662.63" y2="8841.22" gradientUnits="userSpaceOnUse">
<stop stop-color="#FF6279"/>
<stop offset="1" stop-color="#FFAD60"/>
</linearGradient>
<linearGradient id="paint40_linear_808_1936" x1="-6662.29" y1="8790.01" x2="-6662.29" y2="8839.29" gradientUnits="userSpaceOnUse">
<stop stop-color="#FF6279"/>
<stop offset="1" stop-color="#FFAD60"/>
</linearGradient>
<linearGradient id="paint41_linear_808_1936" x1="3605.92" y1="101.353" x2="3751.11" y2="101.353" gradientUnits="userSpaceOnUse">
<stop stop-color="#FF6279"/>
<stop offset="1" stop-color="#FFAD60"/>
</linearGradient>
<linearGradient id="paint42_linear_808_1936" x1="3841.86" y1="134.562" x2="3888.32" y2="134.562" gradientUnits="userSpaceOnUse">
<stop stop-color="#6A6AE5"/>
<stop offset="1" stop-color="#322C8D"/>
</linearGradient>
<linearGradient id="paint43_linear_808_1936" x1="3877.36" y1="109.055" x2="3891.03" y2="109.055" gradientUnits="userSpaceOnUse">
<stop stop-color="#6A6AE5"/>
<stop offset="1" stop-color="#322C8D"/>
</linearGradient>
<linearGradient id="paint44_linear_808_1936" x1="3938.57" y1="238.106" x2="3938.57" y2="182.833" gradientUnits="userSpaceOnUse">
<stop stop-color="#6A6AE5"/>
<stop offset="1" stop-color="#322C8D"/>
</linearGradient>
<linearGradient id="paint45_linear_808_1936" x1="3834.52" y1="84.3965" x2="3845.94" y2="84.3965" gradientUnits="userSpaceOnUse">
<stop stop-color="white"/>
<stop offset="1" stop-color="#D5DBEB"/>
</linearGradient>
<linearGradient id="paint46_linear_808_1936" x1="3818.6" y1="97.0489" x2="3825.25" y2="97.0489" gradientUnits="userSpaceOnUse">
<stop stop-color="white"/>
<stop offset="1" stop-color="#D5DBEB"/>
</linearGradient>
<linearGradient id="paint47_linear_808_1936" x1="3834.29" y1="135.903" x2="3843.78" y2="135.903" gradientUnits="userSpaceOnUse">
<stop stop-color="#FF6279"/>
<stop offset="1" stop-color="#FFAD60"/>
</linearGradient>
<linearGradient id="paint48_linear_808_1936" x1="3977.03" y1="274.107" x2="3977.52" y2="274.107" gradientUnits="userSpaceOnUse">
<stop stop-color="#FF6279"/>
<stop offset="1" stop-color="#FFAD60"/>
</linearGradient>
<linearGradient id="paint49_linear_808_1936" x1="3899.34" y1="144.216" x2="3901.44" y2="144.216" gradientUnits="userSpaceOnUse">
<stop stop-color="#FF6279"/>
<stop offset="1" stop-color="#FFAD60"/>
</linearGradient>
<linearGradient id="paint50_linear_808_1936" x1="3888.52" y1="125.244" x2="3890.63" y2="125.244" gradientUnits="userSpaceOnUse">
<stop stop-color="#FF6279"/>
<stop offset="1" stop-color="#FFAD60"/>
</linearGradient>
<linearGradient id="paint51_linear_808_1936" x1="3886.97" y1="142.84" x2="3890.23" y2="142.84" gradientUnits="userSpaceOnUse">
<stop stop-color="#FF6279"/>
<stop offset="1" stop-color="#FFAD60"/>
</linearGradient>
<linearGradient id="paint52_linear_808_1936" x1="3835.9" y1="125.724" x2="3839.67" y2="125.724" gradientUnits="userSpaceOnUse">
<stop stop-color="#FF6279"/>
<stop offset="1" stop-color="#FFAD60"/>
</linearGradient>
<linearGradient id="paint53_linear_808_1936" x1="4012.74" y1="278.669" x2="4014.89" y2="278.669" gradientUnits="userSpaceOnUse">
<stop stop-color="#FF6279"/>
<stop offset="1" stop-color="#FFAD60"/>
</linearGradient>
<linearGradient id="paint54_linear_808_1936" x1="3886.19" y1="138.027" x2="3888.65" y2="138.027" gradientUnits="userSpaceOnUse">
<stop stop-color="#FF6279"/>
<stop offset="1" stop-color="#FFAD60"/>
</linearGradient>
<linearGradient id="paint55_linear_808_1936" x1="3895.32" y1="126.874" x2="3897.38" y2="126.874" gradientUnits="userSpaceOnUse">
<stop stop-color="#FF6279"/>
<stop offset="1" stop-color="#FFAD60"/>
</linearGradient>
<linearGradient id="paint56_linear_808_1936" x1="3894.36" y1="135.719" x2="3896.4" y2="135.719" gradientUnits="userSpaceOnUse">
<stop stop-color="#FF6279"/>
<stop offset="1" stop-color="#FFAD60"/>
</linearGradient>
<linearGradient id="paint57_linear_808_1936" x1="3849.35" y1="128.875" x2="3853.3" y2="128.875" gradientUnits="userSpaceOnUse">
<stop stop-color="#FF6279"/>
<stop offset="1" stop-color="#FFAD60"/>
</linearGradient>
<linearGradient id="paint58_linear_808_1936" x1="3957.2" y1="270.523" x2="3960.3" y2="270.523" gradientUnits="userSpaceOnUse">
<stop stop-color="#FF6279"/>
<stop offset="1" stop-color="#FFAD60"/>
</linearGradient>
<linearGradient id="paint59_linear_808_1936" x1="3986.79" y1="264.743" x2="3990.94" y2="264.743" gradientUnits="userSpaceOnUse">
<stop stop-color="#FF6279"/>
<stop offset="1" stop-color="#FFAD60"/>
</linearGradient>
</defs>
</svg>
