<svg width="54" height="54" viewBox="0 0 54 54" fill="none" xmlns="http://www.w3.org/2000/svg">
<path d="M45.5625 0H8.4375C3.7776 0 0 3.7776 0 8.4375V45.5625C0 50.2224 3.7776 54 8.4375 54H45.5625C50.2224 54 54 50.2224 54 45.5625V8.4375C54 3.7776 50.2224 0 45.5625 0Z" fill="#F00073"/>
<path d="M26.9999 15.5249C30.7124 15.5249 31.2187 15.5249 32.7374 15.5249C34.0874 15.5249 34.7624 15.8624 35.2687 16.0312C35.9437 16.3687 36.4499 16.5374 36.9562 17.0437C37.4624 17.5499 37.7999 18.0562 37.9687 18.7312C38.1374 19.2374 38.3062 19.9124 38.4749 21.2624C38.4749 22.7812 38.4749 23.1187 38.4749 26.9999C38.4749 30.8812 38.4749 31.2187 38.4749 32.7374C38.4749 34.0874 38.1374 34.7624 37.9687 35.2687C37.6312 35.9437 37.4624 36.4499 36.9562 36.9562C36.4499 37.4624 35.9437 37.7999 35.2687 37.9687C34.7624 38.1374 34.0874 38.3062 32.7374 38.4749C31.2187 38.4749 30.8812 38.4749 26.9999 38.4749C23.1187 38.4749 22.7812 38.4749 21.2624 38.4749C19.9124 38.4749 19.2374 38.1374 18.7312 37.9687C18.0562 37.6312 17.5499 37.4624 17.0437 36.9562C16.5374 36.4499 16.1999 35.9437 16.0312 35.2687C15.8624 34.7624 15.6937 34.0874 15.5249 32.7374C15.5249 31.2187 15.5249 30.8812 15.5249 26.9999C15.5249 23.1187 15.5249 22.7812 15.5249 21.2624C15.5249 19.9124 15.8624 19.2374 16.0312 18.7312C16.3687 18.0562 16.5374 17.5499 17.0437 17.0437C17.5499 16.5374 18.0562 16.1999 18.7312 16.0312C19.2374 15.8624 19.9124 15.6937 21.2624 15.5249C22.7812 15.5249 23.2874 15.5249 26.9999 15.5249ZM26.9999 12.9937C23.1187 12.9937 22.7812 12.9937 21.2624 12.9937C19.7437 12.9937 18.7312 13.3312 17.8874 13.6687C17.0437 14.0062 16.1999 14.5124 15.3562 15.3562C14.5124 16.1999 14.1749 16.8749 13.6687 17.8874C13.3312 18.7312 13.1624 19.7437 12.9937 21.2624C12.9937 22.7812 12.9937 23.2874 12.9937 26.9999C12.9937 30.8812 12.9937 31.2187 12.9937 32.7374C12.9937 34.2562 13.3312 35.2687 13.6687 36.1124C14.0062 36.9562 14.5124 37.7999 15.3562 38.6437C16.1999 39.4874 16.8749 39.8249 17.8874 40.3312C18.7312 40.6687 19.7437 40.8374 21.2624 41.0061C22.7812 41.0061 23.2874 41.0061 26.9999 41.0061C30.7124 41.0061 31.2187 41.0061 32.7374 41.0061C34.2562 41.0061 35.2687 40.6687 36.1124 40.3312C36.9562 39.9937 37.7999 39.4874 38.6437 38.6437C39.4874 37.7999 39.8249 37.1249 40.3312 36.1124C40.6687 35.2687 40.8374 34.2562 41.0061 32.7374C41.0061 31.2187 41.0061 30.7124 41.0061 26.9999C41.0061 23.2874 41.0061 22.7812 41.0061 21.2624C41.0061 19.7437 40.6687 18.7312 40.3312 17.8874C39.9937 17.0437 39.4874 16.1999 38.6437 15.3562C37.7999 14.5124 37.1249 14.1749 36.1124 13.6687C35.2687 13.3312 34.2562 13.1624 32.7374 12.9937C31.2187 12.9937 30.8812 12.9937 26.9999 12.9937Z" fill="white"/>
<path d="M26.9999 19.7437C22.9499 19.7437 19.7437 22.9499 19.7437 26.9999C19.7437 31.0499 22.9499 34.2562 26.9999 34.2562C31.0499 34.2562 34.2562 31.0499 34.2562 26.9999C34.2562 22.9499 31.0499 19.7437 26.9999 19.7437ZM26.9999 31.7249C24.4687 31.7249 22.2749 29.6999 22.2749 26.9999C22.2749 24.4687 24.2999 22.2749 26.9999 22.2749C29.5312 22.2749 31.7249 24.2999 31.7249 26.9999C31.7249 29.5312 29.5312 31.7249 26.9999 31.7249Z" fill="white"/>
<path d="M34.4249 21.2624C35.3569 21.2624 36.1124 20.5069 36.1124 19.5749C36.1124 18.6429 35.3569 17.8874 34.4249 17.8874C33.4929 17.8874 32.7374 18.6429 32.7374 19.5749C32.7374 20.5069 33.4929 21.2624 34.4249 21.2624Z" fill="white"/>
</svg>
