<svg width="133" height="60" viewBox="0 0 133 60" fill="none" xmlns="http://www.w3.org/2000/svg">
<path d="M121.993 29.9902C121.993 31.9468 121.406 33.554 120.232 34.8118C119.057 36.0696 117.514 36.6978 115.601 36.6962C114.72 36.6962 113.953 36.5341 113.3 36.21C112.683 35.9256 112.176 35.4466 111.856 34.8459V42.929H107.874V23.7189H111.856V25.1558C112.247 24.5685 112.786 24.0961 113.418 23.7871C114.1 23.4637 114.847 23.3032 115.601 23.3181C117.514 23.3181 119.058 23.9406 120.232 25.1854C121.406 26.4303 121.993 28.0319 121.993 29.9902ZM118.026 29.9902C118.026 29.0053 117.732 28.1782 117.14 27.5003C116.868 27.1767 116.528 26.918 116.143 26.7433C115.759 26.5685 115.341 26.4819 114.919 26.4899C114.502 26.4827 114.089 26.5693 113.71 26.7433C113.33 26.9174 112.995 27.1746 112.727 27.496C112.145 28.1653 111.855 28.9967 111.856 29.9902C111.856 30.9876 112.15 31.8259 112.737 32.5053C113.001 32.8285 113.335 33.0879 113.713 33.2642C114.09 33.4406 114.503 33.5294 114.919 33.5242C115.341 33.53 115.758 33.4411 116.141 33.264C116.523 33.0868 116.861 32.8259 117.131 32.5004C117.727 31.8145 118.026 30.9777 118.026 29.9902ZM106.164 36.2828H102.182V34.8459C101.795 35.4375 101.257 35.9143 100.624 36.2272C99.9408 36.55 99.1924 36.7104 98.4372 36.6962C96.524 36.6962 94.9803 36.0724 93.8061 34.8247C92.6322 33.5754 92.0452 31.971 92.0452 30.0113C92.0452 28.0546 92.6322 26.4503 93.8062 25.1985C94.9808 23.9452 96.5245 23.3185 98.4373 23.3185C99.3178 23.3185 100.085 23.4791 100.738 23.8003C101.355 24.0801 101.862 24.5567 102.182 25.1561V23.7189H106.164L106.164 36.2828ZM102.182 30.0113C102.182 29.0222 101.889 28.1881 101.302 27.509C100.714 26.8311 99.9898 26.4899 99.1188 26.4899C98.705 26.4833 98.295 26.5707 97.9195 26.7457C97.544 26.9206 97.2127 27.1786 96.9504 27.5003C96.3724 28.1782 96.0836 29.0152 96.0839 30.0113C96.0839 31.0132 96.3695 31.8488 96.9407 32.5181C97.2048 32.8399 97.5379 33.0975 97.9151 33.2717C98.2923 33.446 98.7038 33.5323 99.1188 33.5242C99.5362 33.5315 99.9499 33.4445 100.329 33.2696C100.709 33.0948 101.044 32.8365 101.311 32.5139C101.893 31.8361 102.182 31.0049 102.182 30.0113ZM91.1026 35.8733C90.6002 36.1554 90.064 36.3717 89.507 36.5171C88.9335 36.6446 88.3471 36.7048 87.7597 36.6965C85.4305 36.6965 83.5698 36.0882 82.1775 34.8717C80.7855 33.6567 80.0894 32.0366 80.0892 30.0116C80.0892 28.0252 80.79 26.4123 82.1915 25.1729C83.5931 23.9365 85.4492 23.3184 87.7597 23.3185C88.3547 23.3108 88.9486 23.3695 89.5307 23.4932C90.0766 23.6245 90.6044 23.8222 91.1026 24.082V27.6632C90.6979 27.2873 90.221 26.9985 89.7011 26.8147C89.162 26.6044 88.5892 26.4946 88.0108 26.4907C86.8932 26.4907 85.9668 26.8232 85.2314 27.4882C84.877 27.7992 84.5945 28.1844 84.404 28.6168C84.2134 29.0491 84.1194 29.5182 84.1284 29.9909C84.1284 31.0738 84.4784 31.9306 85.1747 32.5702C85.8705 33.2054 86.816 33.5236 88.011 33.5249C88.5976 33.5264 89.1791 33.4165 89.7251 33.2009C90.2435 33.0044 90.7135 32.6976 91.1028 32.3015L91.1026 35.8733ZM79.7153 26.6646H77.7596V36.2828H73.7773V26.6646H72.2099V23.7189H73.7773V19.6603H77.7596V23.7189H79.7154L79.7153 26.6646ZM71.5807 29.9857C71.5807 30.2929 71.5807 30.523 71.5759 30.6718C71.5716 30.8109 71.5542 30.9494 71.5239 31.0852H61.954C62.1201 31.8371 62.5178 32.5173 63.0904 33.0293C63.618 33.5097 64.3054 33.7743 65.0175 33.7711C65.6069 33.7799 66.1882 33.6329 66.7032 33.3448C67.1888 33.0827 67.5836 32.6784 67.8351 32.1856L71.0263 33.6224C70.4752 34.6099 69.6379 35.4053 68.6257 35.9028C67.5792 36.4314 66.3433 36.696 64.909 36.696C62.8397 36.696 61.1777 36.0821 59.923 34.8544C58.6684 33.6266 58.0418 32.0051 58.0434 29.99C58.0434 28.1056 58.6952 26.5224 59.9987 25.2405C61.3009 23.9572 62.9092 23.3162 64.8236 23.3177C66.8121 23.3177 68.4363 23.9458 69.696 25.202C70.9511 26.4599 71.5793 28.0544 71.5807 29.9857ZM67.6414 28.8859C67.4663 28.0631 67.127 27.4151 66.6236 26.9419C66.1243 26.4817 65.4708 26.2274 64.7932 26.2298C64.1157 26.2321 63.4639 26.491 62.9679 26.9546C62.4566 27.4363 62.1189 28.0802 61.9547 28.8861L67.6414 28.8859ZM56.907 36.2828H52.8162L42.8395 23.2713V36.2828H38.7489V17H42.8395L52.8162 29.9643V17H56.907V36.2828Z" fill="#000066"/>
<path d="M103.138 41.8405L104.087 41.6943C104.109 41.8652 104.186 42.0243 104.305 42.1482C104.426 42.2466 104.579 42.2958 104.735 42.2861C104.851 42.2921 104.966 42.2617 105.065 42.1991C105.104 42.1744 105.135 42.1401 105.157 42.0994C105.179 42.0587 105.189 42.013 105.188 41.9669C105.188 41.7789 104.856 41.5113 104.19 41.1641L104.165 41.1515C103.9 41.0283 103.661 40.8578 103.457 40.6482C103.376 40.5565 103.316 40.448 103.281 40.3304C103.246 40.2129 103.238 40.0891 103.256 39.9678C103.274 39.8466 103.318 39.7307 103.385 39.6285C103.453 39.5263 103.542 39.4402 103.646 39.3763C103.914 39.1955 104.264 39.1051 104.695 39.1049C105.04 39.089 105.382 39.1767 105.677 39.3567C105.796 39.4314 105.895 39.5326 105.968 39.6524C106.041 39.7721 106.085 39.9072 106.097 40.047L105.169 40.2002C105.146 40.0687 105.082 39.9478 104.987 39.8546C104.893 39.7856 104.78 39.7462 104.664 39.7415C104.547 39.7367 104.432 39.7668 104.333 39.828C104.296 39.8544 104.267 39.8894 104.247 39.9299C104.228 39.9704 104.218 40.0151 104.22 40.0602C104.22 40.2192 104.452 40.4246 104.917 40.6763C105.042 40.7458 105.14 40.8005 105.209 40.8387C105.486 40.9836 105.739 41.1711 105.959 41.3944C106.09 41.5434 106.162 41.7354 106.162 41.934C106.162 42.0786 106.126 42.2208 106.055 42.3467C105.984 42.4726 105.882 42.5778 105.759 42.6517C105.491 42.8314 105.136 42.9215 104.695 42.9219C104.325 42.9365 103.96 42.8371 103.648 42.6369C103.514 42.5463 103.399 42.4289 103.311 42.292C103.224 42.1551 103.165 42.0015 103.139 41.8409L103.138 41.8405ZM101.044 42.0592V39.7604H100.437V39.1964H101.044V38.1535H102.022V39.1964H102.753V39.7604H102.022V41.9937C102.019 42.0393 102.027 42.0848 102.047 42.1261C102.066 42.1673 102.096 42.2029 102.133 42.2294C102.23 42.2876 102.343 42.3147 102.456 42.3072C102.497 42.3069 102.538 42.3041 102.578 42.299C102.625 42.2931 102.683 42.284 102.748 42.2732L102.753 42.8643C102.662 42.8847 102.57 42.8995 102.477 42.9086C102.384 42.9177 102.288 42.9223 102.185 42.9223C101.802 42.9223 101.518 42.8504 101.329 42.7065C101.232 42.6301 101.156 42.5311 101.106 42.4182C101.056 42.3053 101.035 42.1819 101.043 42.0588L101.044 42.0592ZM97.044 42.8236V39.1958H98.0366V39.594C98.2056 39.4559 98.3942 39.344 98.5961 39.2621C98.7746 39.1896 98.9648 39.1511 99.1573 39.1484C99.3438 39.1339 99.5288 39.1911 99.675 39.3085C99.7362 39.3714 99.7834 39.4466 99.8133 39.5293C99.8432 39.612 99.8552 39.7001 99.8485 39.7878V42.8227H98.8655V40.0876C98.8755 40.0073 98.8551 39.9262 98.8083 39.8603C98.7504 39.8153 98.6775 39.7946 98.6047 39.8023C98.5104 39.8083 98.4184 39.8344 98.3348 39.8788C98.2274 39.9305 98.1272 39.9961 98.0366 40.0738V42.8233L97.044 42.8236ZM95.1629 42.4164C95.0114 42.5588 94.8355 42.6725 94.6437 42.7519C94.4598 42.8304 94.2621 42.871 94.0622 42.8714C93.8318 42.8859 93.6045 42.8116 93.4268 42.6635C93.3495 42.587 93.2894 42.4947 93.2507 42.3928C93.212 42.291 93.1956 42.1819 93.2025 42.0731C93.2022 41.9084 93.2393 41.7459 93.3109 41.5977C93.3825 41.4496 93.4868 41.3198 93.6158 41.2182C93.8901 40.9839 94.3957 40.7306 95.1326 40.4583V40.0665C95.1355 40.0216 95.1295 39.9766 95.1151 39.9341C95.1007 39.8915 95.0781 39.8522 95.0485 39.8184C95.0153 39.7884 94.9763 39.7654 94.934 39.7509C94.8917 39.7364 94.8469 39.7306 94.8023 39.734C94.6881 39.7274 94.5746 39.7558 94.4766 39.8152C94.4394 39.8394 94.409 39.8728 94.3884 39.9122C94.3678 39.9516 94.3576 39.9957 94.3589 40.0402V40.2408H93.3663C93.3658 40.2248 93.364 40.2088 93.3609 40.1931C93.3581 40.1773 93.3564 40.1614 93.356 40.1455C93.3565 39.9951 93.3953 39.8474 93.4687 39.7164C93.5422 39.5854 93.6478 39.4756 93.7756 39.3973C94.0894 39.1925 94.4587 39.0903 94.8327 39.1048C95.2759 39.1048 95.6056 39.1977 95.8218 39.3834C96.038 39.5692 96.1459 39.855 96.1456 40.2408V41.7869C96.1456 42.0296 96.1537 42.2407 96.171 42.4216C96.178 42.5576 96.2012 42.6922 96.2399 42.8227H95.2559C95.2276 42.7699 95.207 42.7133 95.195 42.6545C95.178 42.576 95.167 42.4963 95.1622 42.416L95.1629 42.4164ZM95.1326 41.9204V40.9795C94.8694 41.0816 94.6258 41.2289 94.4127 41.4146C94.3488 41.4779 94.2984 41.5536 94.2646 41.637C94.2307 41.7205 94.2141 41.81 94.2157 41.9001C94.2098 41.9942 94.2379 42.0872 94.2949 42.1621C94.3225 42.1931 94.3566 42.2174 94.3948 42.2333C94.433 42.2492 94.4742 42.2562 94.5155 42.2539C94.6371 42.251 94.7563 42.2193 94.8634 42.1615C94.9706 42.1036 95.0627 42.0213 95.1323 41.921L95.1326 41.9204ZM91.0182 42.0596V39.7604H90.4101V39.1964H91.0172V38.1535H91.9949V39.1964H92.7261V39.7604H91.9948V41.9937C91.9919 42.0392 92.0006 42.0847 92.02 42.1259C92.0394 42.1671 92.0688 42.2027 92.1056 42.2294C92.2033 42.2874 92.3161 42.3145 92.4294 42.3072C92.47 42.3069 92.5105 42.3041 92.5508 42.299C92.598 42.2931 92.6552 42.284 92.7209 42.2732L92.726 42.8643C92.6349 42.8847 92.5426 42.8995 92.4496 42.9086C92.3569 42.9177 92.2605 42.9223 92.1581 42.9223C91.7754 42.9223 91.4899 42.8504 91.3017 42.7065C91.2054 42.6299 91.1291 42.5309 91.0796 42.418C91.0301 42.3051 91.0087 42.1818 91.0174 42.0588L91.0182 42.0596ZM88.8117 42.8241V37.9082H89.8043V42.8228L88.8117 42.8241ZM87.8592 39.1972V42.8241H86.8823V42.4262C86.7126 42.5672 86.522 42.6807 86.3174 42.7626C86.136 42.8372 85.9421 42.8766 85.7461 42.8787C85.561 42.893 85.3776 42.8354 85.2335 42.7178C85.1721 42.6538 85.1249 42.5774 85.095 42.4937C85.0651 42.41 85.0532 42.3209 85.0602 42.2323V39.1958H86.0427V41.9792C86.0395 42.013 86.0433 42.0471 86.0541 42.0794C86.0648 42.1116 86.0822 42.1412 86.1051 42.1662C86.162 42.2096 86.2329 42.2302 86.304 42.224C86.3999 42.2178 86.4935 42.1918 86.5789 42.1476C86.6882 42.0965 86.7903 42.0309 86.8823 41.9526V39.1958L87.8592 39.1972ZM81.3596 41.8413L82.3087 41.6952C82.3307 41.866 82.407 42.0251 82.526 42.149C82.647 42.2475 82.8004 42.2967 82.9558 42.2869C83.0723 42.2929 83.1877 42.2626 83.2864 42.2C83.3251 42.1752 83.3567 42.1408 83.3783 42.1001C83.3998 42.0595 83.4105 42.0139 83.4093 41.9678C83.4093 41.7798 83.0766 41.5122 82.4113 41.1649L82.3859 41.1523C82.1215 41.029 81.8816 40.8584 81.6778 40.649C81.5966 40.5573 81.5366 40.4489 81.5017 40.3313C81.4669 40.2138 81.4582 40.0899 81.4763 39.9686C81.4943 39.8473 81.5386 39.7315 81.6061 39.6293C81.6736 39.527 81.7626 39.441 81.8668 39.3771C82.1346 39.1963 82.4841 39.1058 82.9151 39.1058C83.2602 39.0898 83.6023 39.1775 83.8976 39.3576C84.0159 39.4323 84.1154 39.5335 84.1883 39.6532C84.2612 39.7729 84.3055 39.908 84.3178 40.0478L83.3894 40.2011C83.366 40.0696 83.3022 39.9487 83.207 39.8554C83.1129 39.7864 83.0005 39.747 82.884 39.7423C82.7675 39.7375 82.6523 39.7677 82.5529 39.8288C82.5166 39.8553 82.4874 39.8903 82.4677 39.9308C82.4481 39.9713 82.4387 40.016 82.4403 40.061C82.4403 40.2201 82.6729 40.4255 83.1381 40.6772C83.2626 40.7466 83.3605 40.8013 83.4296 40.8395C83.7069 40.9846 83.9599 41.172 84.1798 41.3952C84.3105 41.5443 84.3824 41.7362 84.3821 41.9348C84.383 42.0794 84.3464 42.2216 84.2757 42.3475C84.2051 42.4734 84.1029 42.5785 83.9794 42.6525C83.7111 42.8323 83.3565 42.9224 82.9155 42.9227C82.5458 42.9374 82.1805 42.8379 81.8687 42.6378C81.7339 42.5471 81.619 42.4295 81.5313 42.2924C81.4436 42.1552 81.3849 42.0014 81.3588 41.8405L81.3596 41.8413ZM77.956 42.8241V39.1958H78.9486V39.594C79.1178 39.4561 79.3065 39.3442 79.5085 39.2621C79.6869 39.1896 79.8772 39.151 80.0697 39.1484C80.2561 39.1339 80.4411 39.1911 80.587 39.3085C80.6483 39.3714 80.6955 39.4466 80.7255 39.5293C80.7555 39.6119 80.7675 39.7001 80.7609 39.7878V42.8227H79.7781V40.0876C79.7878 40.0073 79.7674 39.9262 79.7208 39.8603C79.6627 39.8153 79.5895 39.7946 79.5166 39.8027C79.4224 39.8087 79.3306 39.8347 79.2472 39.8791C79.1397 39.9309 79.0393 39.9965 78.9485 40.0741V42.8236L77.956 42.8241ZM74.2677 40.0272C74.2674 39.8899 74.3038 39.7551 74.3732 39.6369C74.4427 39.5187 74.5425 39.4215 74.6623 39.3556C74.927 39.1896 75.281 39.1064 75.7242 39.1059C76.0751 39.0909 76.4223 39.1827 76.7204 39.3692C76.8378 39.4388 76.9353 39.5378 77.0032 39.6566C77.0712 39.7754 77.1072 39.9099 77.1079 40.0469V41.9206C77.1123 42.0648 77.0796 42.2078 77.013 42.3356C76.9463 42.4634 76.8479 42.5718 76.7273 42.6502C76.4744 42.8277 76.1255 42.9164 75.6805 42.9161C75.2521 42.9161 74.91 42.8246 74.6541 42.6417C74.5326 42.5623 74.4334 42.4531 74.3657 42.3243C74.2981 42.1956 74.2644 42.0516 74.2677 41.906V40.0272ZM75.2809 41.9737C75.2788 42.0179 75.2871 42.0621 75.3053 42.1024C75.3234 42.1428 75.3509 42.1783 75.3853 42.2059C75.4718 42.2656 75.5758 42.2943 75.6805 42.2872C75.7911 42.293 75.9007 42.2637 75.9939 42.2036C76.031 42.1782 76.0611 42.1439 76.0815 42.1037C76.1018 42.0635 76.1117 42.0188 76.1102 41.9737V39.9979C76.1098 39.9582 76.0985 39.9194 76.0777 39.8857C76.0569 39.852 76.0272 39.8246 75.992 39.8067C75.8968 39.754 75.7891 39.7287 75.6805 39.7335C75.5794 39.7291 75.4792 39.7545 75.3923 39.8067C75.3585 39.8258 75.3305 39.8536 75.3109 39.8872C75.2913 39.9208 75.281 39.959 75.2809 39.9979V41.9737ZM70.1297 41.563V39.0427C70.1237 38.8644 70.1626 38.6875 70.2428 38.5283C70.323 38.3691 70.4419 38.2328 70.5884 38.132C70.8952 37.9128 71.3188 37.803 71.8595 37.8026C72.3686 37.8026 72.7727 37.9152 73.0718 38.1404C73.2156 38.2459 73.3316 38.3854 73.4094 38.5464C73.4872 38.7074 73.5246 38.8852 73.5182 39.0641V39.5363H72.3863V38.9953C72.3918 38.9249 72.3818 38.8543 72.357 38.7883C72.3323 38.7223 72.2934 38.6626 72.2431 38.6134C72.1169 38.5303 71.9692 38.4861 71.8183 38.4861C71.6674 38.4861 71.5198 38.5303 71.3935 38.6134C71.3433 38.6626 71.3044 38.7224 71.2797 38.7883C71.2549 38.8543 71.2449 38.9249 71.2502 38.9953V41.7383C71.245 41.8091 71.2551 41.8803 71.2798 41.9468C71.3046 42.0133 71.3434 42.0736 71.3935 42.1237C71.5195 42.2075 71.6672 42.2522 71.8183 42.2522C71.9694 42.2522 72.1172 42.2075 72.2431 42.1237C72.2933 42.0736 72.3321 42.0133 72.3568 41.9468C72.3815 41.8803 72.3916 41.8091 72.3863 41.7383V41.0692H73.5175V41.5834C73.5175 42.0134 73.3704 42.3452 73.0763 42.5786C72.7821 42.812 72.363 42.9288 71.8188 42.9292C71.2624 42.9292 70.8416 42.8135 70.5564 42.5821C70.2711 42.3508 70.1288 42.0107 70.1293 41.562L70.1297 41.563ZM64.415 41.8009V40.1721C64.414 40.0189 64.4515 39.868 64.524 39.7333C64.5965 39.5986 64.7017 39.4845 64.8299 39.4016C65.1469 39.1915 65.5219 39.0875 65.9014 39.1044C66.348 39.1044 66.6933 39.1959 66.933 39.3795C67.0526 39.4723 67.1479 39.5929 67.2107 39.731C67.2735 39.869 67.3019 40.0203 67.2935 40.1719V41.0964H65.4281V41.7799C65.4142 41.919 65.4483 42.0586 65.5246 42.1755C65.5684 42.2163 65.6203 42.2472 65.677 42.2662C65.7336 42.2852 65.7936 42.2918 65.853 42.2857C65.9733 42.298 66.0937 42.2644 66.1904 42.1915C66.2543 42.1303 66.2862 41.9921 66.2862 41.7799V41.5283H67.2946V41.7996C67.2946 42.1722 67.1721 42.4522 66.927 42.6396C66.6818 42.8269 66.3155 42.9209 65.828 42.9215C65.3898 42.9215 65.046 42.8217 64.7932 42.6219C64.6696 42.525 64.5709 42.3999 64.5051 42.2569C64.4393 42.114 64.4084 41.9573 64.415 41.8V41.8009ZM65.428 40.5344H66.2861V40.1668C66.2916 40.1084 66.2854 40.0495 66.2681 39.9936C66.2507 39.9376 66.2224 39.8856 66.1849 39.8408C66.0939 39.767 65.978 39.7317 65.8615 39.7424C65.7423 39.7311 65.6233 39.7663 65.5292 39.8408C65.4916 39.8856 65.4632 39.9375 65.4459 39.9935C65.4285 40.0495 65.4224 40.1084 65.428 40.1668V40.5344ZM60.7945 41.842L61.7435 41.6958C61.7655 41.8667 61.8418 42.0258 61.961 42.1496C62.0819 42.2481 62.2353 42.2973 62.3906 42.2876C62.5071 42.2936 62.6226 42.2632 62.7211 42.2006C62.7598 42.1758 62.7915 42.1415 62.8131 42.1008C62.8347 42.0601 62.8455 42.0145 62.8445 41.9684C62.8445 41.7804 62.5118 41.5128 61.8465 41.1655L61.8213 41.153C61.5569 41.0298 61.317 40.8592 61.1135 40.6496C61.0324 40.5579 60.9724 40.4495 60.9376 40.3319C60.9028 40.2144 60.8941 40.0906 60.9122 39.9693C60.9302 39.848 60.9745 39.7322 61.0419 39.6299C61.1094 39.5277 61.1984 39.4416 61.3026 39.3777C61.5707 39.1969 61.9194 39.1064 62.3511 39.1064C62.6963 39.0905 63.0383 39.1781 63.3337 39.3582C63.4519 39.433 63.5514 39.5341 63.6243 39.6539C63.6971 39.7736 63.7415 39.9087 63.7539 40.0485L62.8251 40.2017C62.802 40.0701 62.7383 39.9492 62.6429 39.8561C62.5488 39.787 62.4364 39.7475 62.32 39.7428C62.2036 39.7381 62.0884 39.7682 61.989 39.8295C61.9526 39.8559 61.9233 39.8908 61.9036 39.9313C61.8838 39.9718 61.8743 40.0166 61.8759 40.0617C61.8759 40.2208 62.1086 40.4261 62.574 40.6778C62.6986 40.7473 62.7963 40.8019 62.8655 40.8402C63.1427 40.9852 63.3959 41.1727 63.6158 41.3958C63.7464 41.545 63.8183 41.7369 63.8179 41.9355C63.819 42.08 63.7823 42.2224 63.7116 42.3483C63.6409 42.4742 63.5387 42.5793 63.415 42.6532C63.147 42.833 62.7926 42.923 62.3516 42.9234C61.9818 42.9379 61.6164 42.8385 61.3045 42.6384C61.1695 42.5477 61.0545 42.4301 60.9667 42.2928C60.879 42.1555 60.8202 42.0016 60.7942 41.8405L60.7945 41.842ZM59.1847 42.8247V39.1958H60.1775V42.8227L59.1847 42.8247ZM59.1847 38.5866V37.9101H60.1775V38.5866H59.1847ZM55.4516 42.8247V37.9082H56.4443V39.5941C56.6133 39.4561 56.8018 39.3442 57.0038 39.2622C57.1822 39.1897 57.3725 39.1511 57.565 39.1485C57.7515 39.134 57.9365 39.1912 58.0825 39.3086C58.1437 39.3715 58.1909 39.4467 58.2209 39.5294C58.2508 39.6121 58.2628 39.7002 58.2561 39.7879V42.8228H57.2742V40.0876C57.2839 40.0073 57.2635 39.9262 57.2168 39.8603C57.1588 39.8152 57.0858 39.7945 57.0129 39.8023C56.9186 39.8084 56.8267 39.8344 56.7431 39.8788C56.6357 39.9305 56.5355 39.9961 56.4449 40.0738V42.8233L55.4516 42.8247ZM51.7539 41.8009V40.1984C51.7503 40.042 51.7857 39.887 51.857 39.7478C51.9282 39.6086 52.0331 39.4896 52.1619 39.4015C52.4332 39.203 52.7895 39.1039 53.2305 39.1043C53.6687 39.1043 54.0109 39.1983 54.26 39.3864C54.3812 39.4768 54.4785 39.5956 54.5434 39.7325C54.6084 39.8694 54.6389 40.0202 54.6325 40.1717V40.4567H53.624V40.1643C53.6297 40.1059 53.6236 40.047 53.6063 39.991C53.5889 39.935 53.5606 39.8831 53.523 39.8382C53.4319 39.7645 53.3159 39.7292 53.1994 39.7399C53.0803 39.7285 52.9613 39.7637 52.8674 39.8382C52.8297 39.8831 52.8014 39.935 52.784 39.991C52.7665 40.047 52.7604 40.1059 52.766 40.1643V41.7784C52.7522 41.9179 52.7861 42.058 52.8623 42.1755C52.9062 42.2163 52.9581 42.2472 53.0148 42.2662C53.0715 42.2852 53.1315 42.2918 53.1909 42.2857C53.311 42.2981 53.4314 42.2645 53.5278 42.1915C53.592 42.1303 53.624 41.9921 53.624 41.7784V41.5002H54.6325V41.7994C54.6325 42.1711 54.5099 42.4511 54.2648 42.6394C54.0197 42.8276 53.6533 42.9217 53.1657 42.9215C52.731 42.9215 52.3872 42.8213 52.1341 42.6209C52.01 42.5246 51.9106 42.3998 51.8443 42.2569C51.778 42.1141 51.7467 41.9574 51.753 41.8L51.7539 41.8009ZM48.1181 42.8247V39.1958H49.1107V39.594C49.2799 39.456 49.4686 39.3441 49.6706 39.2621C49.8491 39.1896 50.0394 39.151 50.2318 39.1484C50.4182 39.1339 50.6032 39.1911 50.7492 39.3085C50.8105 39.3713 50.8577 39.4466 50.8876 39.5293C50.9176 39.6119 50.9296 39.7001 50.9228 39.7878V42.8227H49.9402V40.0876C49.95 40.0073 49.9296 39.9262 49.8829 39.8603C49.825 39.8152 49.7518 39.7944 49.6789 39.8023C49.5846 39.8084 49.4926 39.8344 49.4091 39.8788C49.3017 39.9307 49.2014 39.9962 49.1107 40.0738V42.8233L48.1181 42.8247ZM46.2368 42.4175C46.0853 42.5597 45.9095 42.6732 45.7178 42.7526C45.5338 42.8311 45.3361 42.8717 45.1363 42.8722C44.9059 42.8867 44.6785 42.8124 44.5008 42.6643C44.4234 42.5878 44.3634 42.4955 44.3247 42.3936C44.286 42.2917 44.2695 42.1827 44.2765 42.0738C44.2762 41.9092 44.3132 41.7466 44.3848 41.5985C44.4564 41.4504 44.5606 41.3206 44.6896 41.2189C44.9644 40.9846 45.47 40.7313 46.2066 40.459V40.0665C46.2095 40.0216 46.2036 39.9766 46.1892 39.934C46.1748 39.8914 46.1521 39.8521 46.1225 39.8184C46.0893 39.7883 46.0503 39.7653 46.008 39.7508C45.9657 39.7363 45.9209 39.7306 45.8763 39.734C45.7621 39.7273 45.6485 39.7557 45.5506 39.8152C45.5133 39.8393 45.4828 39.8727 45.4621 39.9121C45.4414 39.9515 45.4312 39.9957 45.4326 40.0402V40.2408H44.4398C44.4393 40.2248 44.4376 40.2088 44.4346 40.1931C44.4318 40.1773 44.4302 40.1614 44.4298 40.1455C44.4302 39.9951 44.469 39.8474 44.5424 39.7164C44.6159 39.5854 44.7215 39.4755 44.8493 39.3973C45.1631 39.1925 45.5323 39.0904 45.9062 39.1048C46.3495 39.1048 46.6794 39.1977 46.8958 39.3834C47.1122 39.5692 47.2201 39.855 47.2194 40.2408V41.7869C47.2194 42.0296 47.2278 42.2407 47.2448 42.4216C47.2518 42.5576 47.2749 42.6922 47.3136 42.8227H46.3294C46.3011 42.7699 46.2807 42.7132 46.2686 42.6545C46.2516 42.576 46.2407 42.4963 46.236 42.416L46.2368 42.4175ZM46.2066 41.9214V40.9804C45.9434 41.0826 45.6999 41.2298 45.4869 41.4156C45.4229 41.4788 45.3724 41.5544 45.3385 41.6379C45.3046 41.7214 45.288 41.8109 45.2897 41.9011C45.2838 41.9951 45.3119 42.0881 45.3688 42.163C45.3963 42.194 45.4305 42.2184 45.4687 42.2343C45.5069 42.2502 45.5481 42.2572 45.5894 42.2549C45.711 42.2519 45.8303 42.2202 45.9375 42.1624C46.0447 42.1046 46.1368 42.0222 46.2065 41.922L46.2066 41.9214ZM41.856 42.8251V39.1958H42.8489V39.6891C42.9638 39.5207 43.1185 39.3836 43.299 39.2899C43.4826 39.1981 43.6855 39.1519 43.8906 39.1555H43.9899V39.9135C43.9418 39.8969 43.8922 39.8849 43.8418 39.8777C43.7848 39.8694 43.7272 39.8655 43.6696 39.8661C43.4578 39.8544 43.2476 39.9092 43.068 40.0227C42.9983 40.0695 42.9417 40.1334 42.9033 40.2083C42.865 40.2832 42.8462 40.3666 42.8489 40.4508V42.8233L41.856 42.8251ZM38.7497 42.8251V37.9082H41.6185V38.6184H39.8494V39.9073H41.1236V40.6172H39.8494V42.8231L38.7497 42.8251Z" fill="#8C8C8C"/>
<path d="M122.019 25.1337L122.421 25.0944C122.434 25.2082 122.486 25.3138 122.568 25.3931C122.653 25.4602 122.76 25.494 122.867 25.4881C122.974 25.4961 123.081 25.4662 123.168 25.4037C123.199 25.3808 123.225 25.3509 123.242 25.3164C123.259 25.2818 123.269 25.2439 123.27 25.2053C123.271 25.1601 123.256 25.1159 123.227 25.0813C123.186 25.0394 123.135 25.0087 123.079 24.9923C123.03 24.9753 122.92 24.9454 122.748 24.9024C122.579 24.8716 122.419 24.802 122.281 24.6991C122.181 24.6139 122.116 24.4949 122.098 24.3646C122.079 24.2342 122.109 24.1016 122.181 23.9919C122.244 23.8981 122.333 23.8254 122.437 23.7836C122.565 23.7329 122.702 23.7086 122.839 23.7122C123.046 23.6969 123.252 23.757 123.419 23.8817C123.484 23.9377 123.535 24.0074 123.57 24.0858C123.606 24.164 123.624 24.2489 123.624 24.3348L123.211 24.353C123.202 24.2653 123.162 24.184 123.096 24.1251C123.019 24.0734 122.927 24.049 122.835 24.0558C122.736 24.05 122.637 24.0758 122.553 24.1297C122.533 24.1436 122.516 24.1626 122.504 24.185C122.493 24.2072 122.487 24.2321 122.488 24.2571C122.488 24.2813 122.493 24.3051 122.504 24.3268C122.515 24.3485 122.53 24.3674 122.549 24.382C122.666 24.4512 122.795 24.4977 122.928 24.5192C123.082 24.5507 123.232 24.6003 123.375 24.667C123.467 24.715 123.545 24.7871 123.601 24.8758C123.656 24.9772 123.685 25.0915 123.683 25.2072C123.68 25.3231 123.646 25.436 123.585 25.5344C123.519 25.6379 123.422 25.7181 123.309 25.7638C123.166 25.8177 123.015 25.8432 122.863 25.8387C122.649 25.8529 122.437 25.789 122.267 25.6587C122.12 25.5221 122.032 25.3344 122.019 25.1341V25.1337Z" fill="#8C8C8C"/>
<path d="M124.024 25.8023V23.7469H124.642L125.014 25.1492L125.38 23.7469H126V25.8023H125.617V24.1843L125.21 25.8023H124.812L124.407 24.1841V25.8023H124.024Z" fill="#8C8C8C"/>
<path fill-rule="evenodd" clip-rule="evenodd" d="M21.0608 17C23.9017 16.9997 26.6548 17.989 28.851 19.7995C31.0472 21.61 32.5506 24.1296 33.1051 26.929C33.6596 29.7283 33.2308 32.6343 31.8918 35.1516C30.5528 37.6689 28.3865 39.6419 25.7619 40.7344C23.1374 41.8268 20.217 41.9711 17.4984 41.1427C14.7798 40.3143 12.4312 38.5644 10.8528 36.1912C9.27447 33.818 8.56395 30.9684 8.84236 28.1278C9.12077 25.2873 10.3709 22.6317 12.3797 20.6134C14.682 18.3 17.8047 17.0002 21.0608 17" fill="#000066"/>
<path fill-rule="evenodd" clip-rule="evenodd" d="M11.2696 28.9506C11.2696 28.8666 11.3029 28.7861 11.362 28.7267C11.4211 28.6673 11.5012 28.634 11.5848 28.634L12.5741 28.6332C12.6577 28.6332 12.7379 28.6666 12.797 28.726C12.8561 28.7853 12.8893 28.8659 12.8893 28.9499L12.89 29.781C12.89 29.865 12.8568 29.9455 12.7977 30.0049C12.7386 30.0643 12.6585 30.0976 12.5749 30.0976L11.5854 30.0984C11.5018 30.0984 11.4217 30.065 11.3626 30.0056C11.3035 29.9463 11.2703 29.8657 11.2703 29.7817L11.2696 28.9506ZM25.1331 31.9741C25.1331 31.8901 25.1663 31.8096 25.2254 31.7502C25.2845 31.6908 25.3647 31.6575 25.4482 31.6575L26.4373 31.6565C26.5209 31.6565 26.601 31.6899 26.6601 31.7493C26.7192 31.8086 26.7524 31.8892 26.7524 31.9731L26.7532 32.804C26.7532 32.888 26.72 32.9685 26.6609 33.0279C26.6018 33.0873 26.5216 33.1206 26.438 33.1206L25.449 33.1215C25.3654 33.1215 25.2852 33.0881 25.2261 33.0287C25.167 32.9693 25.1338 32.8888 25.1338 32.8048L25.1331 31.9741ZM22.075 28.1838C22.075 28.0998 22.1082 28.0193 22.1673 27.9599C22.2264 27.9006 22.3066 27.8672 22.3902 27.8672L23.3788 27.8662C23.4624 27.8662 23.5425 27.8996 23.6016 27.959C23.6607 28.0184 23.6939 28.0989 23.6939 28.1829L23.6947 29.0134C23.6947 29.0974 23.6615 29.1779 23.6024 29.2373C23.5433 29.2967 23.4631 29.33 23.3795 29.33L22.3907 29.3308C22.3071 29.3308 22.227 29.2974 22.1679 29.238C22.1088 29.1786 22.0756 29.0981 22.0756 29.0141L22.075 28.1838ZM15.0634 30.1314C15.0634 30.0474 15.0966 29.9669 15.1557 29.9075C15.2148 29.8481 15.2949 29.8148 15.3785 29.8148L16.3678 29.8139C16.4513 29.8139 16.5315 29.8473 16.5906 29.9067C16.6497 29.9661 16.6829 30.0466 16.6829 30.1306L16.6836 30.9617C16.6836 31.0457 16.6504 31.1262 16.5913 31.1856C16.5322 31.245 16.4521 31.2784 16.3685 31.2784L15.3791 31.2791C15.2956 31.2791 15.2154 31.2457 15.1563 31.1864C15.0972 31.127 15.064 31.0464 15.064 30.9625L15.0634 30.1314ZM28.9265 33.1547C28.9265 33.0707 28.9597 32.9902 29.0188 32.9308C29.0779 32.8714 29.1581 32.8381 29.2417 32.8381L30.2306 32.8372C30.3142 32.8372 30.3943 32.8706 30.4534 32.93C30.5125 32.9894 30.5457 33.0699 30.5457 33.1539L30.5465 33.9851C30.5465 34.0691 30.5133 34.1496 30.4542 34.209C30.3951 34.2684 30.3149 34.3018 30.2313 34.3018L29.2422 34.3026C29.1586 34.3026 29.0784 34.2692 29.0193 34.2099C28.9602 34.1505 28.927 34.0699 28.927 33.986L28.9265 33.1547ZM20.4987 29.9008C20.4987 29.8168 20.5319 29.7363 20.591 29.6769C20.6501 29.6175 20.7302 29.5842 20.8138 29.5842L22.7239 29.5826C22.8075 29.5826 22.8877 29.6159 22.9468 29.6753C23.0059 29.7347 23.0391 29.8152 23.0391 29.8992L23.0405 31.5629C23.0405 31.6469 23.0073 31.7274 22.9482 31.7868C22.8891 31.8462 22.809 31.8795 22.7254 31.8795L20.8154 31.8811C20.7318 31.8811 20.6517 31.8478 20.5926 31.7884C20.5335 31.729 20.5003 31.6485 20.5003 31.5645L20.4987 29.9008ZM13.4871 31.8485C13.4871 31.7645 13.5203 31.684 13.5794 31.6246C13.6385 31.5652 13.7187 31.5319 13.8023 31.5319L15.712 31.5302C15.7956 31.5302 15.8758 31.5635 15.9349 31.6229C15.994 31.6823 16.0272 31.7628 16.0272 31.8468L16.0286 33.5102C16.0286 33.5942 15.9954 33.6747 15.9362 33.7341C15.8771 33.7934 15.797 33.8268 15.7134 33.8268L13.8036 33.8284C13.72 33.8284 13.6399 33.795 13.5808 33.7357C13.5217 33.6763 13.4885 33.5957 13.4885 33.5118L13.4871 31.8485ZM19.3788 34.763C19.3788 34.679 19.412 34.5985 19.4711 34.5391C19.5302 34.4797 19.6103 34.4463 19.6939 34.4463H20.3336C20.4172 34.4463 20.4974 34.4797 20.5565 34.5391C20.6156 34.5985 20.6488 34.679 20.6488 34.763V35.2783C20.6488 35.3623 20.6156 35.4429 20.5565 35.5022C20.4974 35.5616 20.4172 35.595 20.3336 35.595H19.694C19.6104 35.595 19.5303 35.5616 19.4712 35.5022C19.4121 35.4429 19.3789 35.3623 19.3789 35.2783L19.3788 34.763ZM24.7257 29.2481C24.7257 29.1641 24.7589 29.0836 24.818 29.0242C24.8771 28.9649 24.9573 28.9315 25.0409 28.9315L26.9507 28.9298C27.0342 28.9298 27.1144 28.9632 27.1735 29.0225C27.2326 29.0819 27.2658 29.1625 27.2658 29.2464L27.2673 30.9102C27.2673 30.9942 27.2341 31.0747 27.175 31.1341C27.1159 31.1935 27.0357 31.2269 26.9521 31.2269L25.0421 31.2284C24.9585 31.2284 24.8784 31.1951 24.8193 31.1357C24.7602 31.0763 24.727 30.9958 24.727 30.9118L24.7257 29.2481ZM17.7141 31.1956C17.7141 31.1116 17.7473 31.0311 17.8064 30.9717C17.8655 30.9123 17.9456 30.879 18.0292 30.879L19.9392 30.8774C20.0228 30.8774 20.1029 30.9108 20.162 30.9701C20.2211 31.0295 20.2543 31.1101 20.2543 31.194L20.2557 32.8576C20.2557 32.9416 20.2225 33.0221 20.1634 33.0815C20.1043 33.1409 20.0241 33.1742 19.9406 33.1742L18.0308 33.1758C17.9472 33.1758 17.867 33.1425 17.8079 33.0831C17.7488 33.0237 17.7156 32.9432 17.7156 32.8592L17.7141 31.1956ZM22.2985 33.0311C22.2985 32.9471 22.3317 32.8666 22.3908 32.8072C22.4499 32.7478 22.53 32.7145 22.6136 32.7145L23.9519 32.7135C24.0355 32.7135 24.1157 32.7469 24.1748 32.8063C24.2339 32.8657 24.2671 32.9462 24.2671 33.0302L24.268 34.177C24.268 34.261 24.2348 34.3415 24.1757 34.4009C24.1166 34.4603 24.0365 34.4936 23.9529 34.4936L22.6147 34.4947C22.5311 34.4947 22.4509 34.4613 22.3918 34.4019C22.3327 34.3426 22.2995 34.262 22.2995 34.1781L22.2985 33.0311ZM20.314 28.3607C20.314 28.2767 20.3472 28.1962 20.4063 28.1368C20.4654 28.0774 20.5456 28.0441 20.6292 28.0441H21.2372C21.3208 28.0441 21.4009 28.0774 21.46 28.1368C21.5191 28.1962 21.5523 28.2767 21.5523 28.3607V28.8476C21.5523 28.9316 21.5191 29.0121 21.46 29.0715C21.4009 29.1309 21.3208 29.1642 21.2372 29.1642H20.6292C20.5456 29.1642 20.4654 29.1309 20.4063 29.0715C20.3472 29.0121 20.314 28.9316 20.314 28.8476V28.3607ZM13.3022 30.309C13.3022 30.2251 13.3354 30.1445 13.3945 30.0852C13.4536 30.0258 13.5338 29.9924 13.6174 29.9924H14.2255C14.3091 29.9924 14.3892 30.0258 14.4483 30.0852C14.5074 30.1445 14.5406 30.2251 14.5406 30.309V30.7955C14.5406 30.8795 14.5074 30.96 14.4483 31.0194C14.3892 31.0788 14.3091 31.1121 14.2255 31.1121L13.6174 31.1127C13.5338 31.1127 13.4536 31.0793 13.3945 31.0199C13.3354 30.9605 13.3022 30.88 13.3022 30.796V30.309ZM27.1653 33.3322C27.1653 33.2483 27.1985 33.1677 27.2576 33.1083C27.3167 33.049 27.3968 33.0156 27.4804 33.0156L28.0887 33.0151C28.1723 33.0151 28.2525 33.0484 28.3116 33.1078C28.3707 33.1672 28.4039 33.2477 28.4039 33.3317V33.8182C28.4039 33.9021 28.3707 33.9827 28.3116 34.042C28.2525 34.1014 28.1723 34.1348 28.0887 34.1348H27.4805C27.3969 34.1348 27.3168 34.1014 27.2577 34.042C27.1986 33.9827 27.1654 33.9021 27.1654 33.8182L27.1653 33.3322ZM23.2273 29.8219C23.2273 29.7379 23.2605 29.6573 23.3196 29.598C23.3787 29.5386 23.4589 29.5052 23.5425 29.5052H24.1506C24.2342 29.5052 24.3143 29.5386 24.3734 29.598C24.4325 29.6573 24.4657 29.7379 24.4657 29.8219V30.3083C24.4657 30.3499 24.4576 30.3911 24.4417 30.4295C24.4259 30.4679 24.4027 30.5028 24.3734 30.5322C24.3442 30.5616 24.3094 30.5849 24.2712 30.6008C24.2329 30.6167 24.192 30.6249 24.1506 30.6249L23.5426 30.6255C23.459 30.6255 23.3788 30.5921 23.3197 30.5327C23.2606 30.4733 23.2274 30.3928 23.2274 30.3088L23.2273 29.8219ZM16.2158 31.769C16.2158 31.6851 16.249 31.6045 16.3081 31.5451C16.3672 31.4858 16.4473 31.4524 16.5309 31.4524H17.1389C17.2225 31.4524 17.3027 31.4858 17.3618 31.5451C17.4209 31.6045 17.4541 31.6851 17.4541 31.769V32.2558C17.4541 32.3398 17.4209 32.4203 17.3618 32.4797C17.3027 32.5391 17.2225 32.5724 17.1389 32.5724H16.5309C16.4473 32.5724 16.3672 32.5391 16.3081 32.4797C16.249 32.4203 16.2158 32.3398 16.2158 32.2558V31.769ZM30.8614 31.8822C30.8614 31.7982 30.8946 31.7177 30.9537 31.6583C31.0128 31.5989 31.093 31.5655 31.1765 31.5655H31.7847C31.8682 31.5655 31.9484 31.5989 32.0075 31.6583C32.0666 31.7177 32.0998 31.7982 32.0998 31.8822V32.3687C32.0998 32.4527 32.0666 32.5332 32.0075 32.5926C31.9484 32.652 31.8682 32.6854 31.7847 32.6854L31.1765 32.6859C31.093 32.6859 31.0128 32.6525 30.9537 32.5931C30.8946 32.5338 30.8614 32.4532 30.8614 32.3693V31.8822ZM10.6103 31.1805C10.6103 31.0965 10.6435 31.016 10.7026 30.9566C10.7617 30.8972 10.8418 30.8639 10.9254 30.8639L12.4021 30.8627C12.4857 30.8627 12.5658 30.8961 12.6249 30.9555C12.684 31.0148 12.7172 31.0954 12.7172 31.1794L12.7182 32.4512C12.7182 32.5351 12.685 32.6157 12.6259 32.675C12.5668 32.7344 12.4866 32.7678 12.403 32.7678L10.9264 32.7691C10.8428 32.7691 10.7626 32.7357 10.7035 32.6763C10.6444 32.6169 10.6112 32.5364 10.6112 32.4524L10.6103 31.1805ZM21.1066 26.299C21.1066 26.2151 21.1398 26.1345 21.1989 26.0751C21.258 26.0158 21.3382 25.9824 21.4217 25.9824L22.4424 25.9814C22.526 25.9814 22.6061 26.0148 22.6652 26.0742C22.7243 26.1336 22.7575 26.2141 22.7575 26.2981L22.7583 27.1576C22.7583 27.2416 22.7251 27.3221 22.666 27.3815C22.6069 27.4409 22.5267 27.4743 22.4431 27.4743L21.4224 27.4751C21.3388 27.4751 21.2586 27.4417 21.1995 27.3824C21.1404 27.323 21.1072 27.2424 21.1072 27.1585L21.1066 26.299ZM14.0949 28.2465C14.0949 28.1625 14.1281 28.082 14.1872 28.0226C14.2463 27.9632 14.3265 27.9299 14.4101 27.9299L15.4308 27.929C15.5144 27.929 15.5946 27.9624 15.6537 28.0218C15.7128 28.0812 15.746 28.1617 15.746 28.2457L15.7468 29.1052C15.7468 29.1892 15.7136 29.2697 15.6545 29.3291C15.5954 29.3885 15.5152 29.4218 15.4317 29.4218L14.4107 29.4227C14.3271 29.4227 14.247 29.3893 14.1879 29.33C14.1288 29.2706 14.0956 29.19 14.0956 29.1061L14.0949 28.2465ZM27.9581 31.2695C27.9581 31.1855 27.9913 31.105 28.0504 31.0456C28.1095 30.9862 28.1896 30.9529 28.2732 30.9529L29.2942 30.9521C29.3778 30.9521 29.4579 30.9855 29.517 31.0449C29.5761 31.1042 29.6093 31.1848 29.6093 31.2688L29.6101 32.1283C29.6101 32.2123 29.5769 32.2928 29.5178 32.3522C29.4587 32.4116 29.3785 32.4449 29.2949 32.4449L28.2737 32.4458C28.1902 32.4458 28.11 32.4124 28.0509 32.353C27.9918 32.2937 27.9586 32.2131 27.9586 32.1291L27.9581 31.2695ZM24.9 27.4795C24.9 27.3956 24.9332 27.315 24.9923 27.2556C25.0514 27.1963 25.1316 27.1629 25.2151 27.1629L26.236 27.1622C26.3196 27.1622 26.3997 27.1955 26.4588 27.2549C26.5179 27.3143 26.5512 27.3948 26.5512 27.4788L26.5519 28.3385C26.5519 28.4225 26.5187 28.5031 26.4596 28.5624C26.4005 28.6218 26.3203 28.6552 26.2367 28.6552L25.2157 28.656C25.1321 28.656 25.0519 28.6227 24.9928 28.5633C24.9337 28.5039 24.9005 28.4234 24.9005 28.3394L24.9 27.4795ZM17.8884 29.4278C17.8884 29.3438 17.9216 29.2632 17.9807 29.2039C18.0398 29.1445 18.12 29.1111 18.2036 29.1111L19.2243 29.1102C19.3079 29.1102 19.3881 29.1435 19.4472 29.2029C19.5063 29.2623 19.5395 29.3428 19.5395 29.4268L19.5401 30.2865C19.5401 30.3704 19.5069 30.451 19.4478 30.5104C19.3887 30.5697 19.3085 30.6031 19.225 30.6031L18.2043 30.6039C18.1207 30.6039 18.0406 30.5706 17.9815 30.5112C17.9224 30.4518 17.8892 30.3713 17.8892 30.2873L17.8884 29.4278ZM28.1851 29.968C28.1851 29.8841 28.2183 29.8035 28.2774 29.7441C28.3365 29.6848 28.4166 29.6514 28.5002 29.6514H28.6955C28.7791 29.6514 28.8592 29.6848 28.9183 29.7441C28.9774 29.8035 29.0107 29.8841 29.0107 29.968V30.0814C29.0107 30.1654 28.9774 30.2459 28.9183 30.3053C28.8592 30.3647 28.7791 30.398 28.6955 30.398H28.5002C28.4166 30.398 28.3365 30.3647 28.2774 30.3053C28.2183 30.2459 28.1851 30.1654 28.1851 30.0814V29.968ZM18.2815 27.0035C18.2815 26.9196 18.3147 26.839 18.3738 26.7796C18.4329 26.7203 18.5131 26.6869 18.5967 26.6869L19.5854 26.6861C19.669 26.6861 19.7491 26.7194 19.8082 26.7788C19.8673 26.8382 19.9005 26.9187 19.9005 27.0027L19.9011 27.8334C19.9011 27.9174 19.8679 27.9979 19.8088 28.0573C19.7497 28.1167 19.6695 28.15 19.5859 28.15L18.5973 28.1508C18.5137 28.1508 18.4336 28.1174 18.3745 28.058C18.3154 27.9987 18.2822 27.9181 18.2822 27.8342L18.2815 27.0035Z" fill="white"/>
<path fill-rule="evenodd" clip-rule="evenodd" d="M31.561 37.9565C29.0665 41.442 24.4841 42.929 19.8002 42.929C12.1797 42.929 6 36.8937 6 29.4519C6 25.2398 7.97953 21.4785 11.0797 19.0069C11.7742 18.4532 12.7248 19.0936 12.7185 19.9844C12.7185 20.016 12.7185 20.0477 12.7185 20.0793C12.7185 28.9402 21.115 31.1308 26.8959 32.9029C30.8513 34.1156 33.5824 35.1323 31.5613 37.9563" fill="#949494"/>
<path d="M27.8501 29.6652C27.8501 29.5812 27.8833 29.5007 27.9424 29.4413C28.0015 29.3819 28.0816 29.3486 28.1652 29.3486H28.7955C28.8791 29.3486 28.9592 29.3819 29.0183 29.4413C29.0774 29.5007 29.1106 29.5812 29.1106 29.6652V30.1929C29.1106 30.2769 29.0774 30.3574 29.0183 30.4168C28.9592 30.4762 28.8791 30.5095 28.7955 30.5095H28.1652C28.0816 30.5095 28.0015 30.4762 27.9424 30.4168C27.8833 30.3574 27.8501 30.2769 27.8501 30.1929V29.6652Z" fill="white"/>
</svg>
