<svg width="406" height="466" viewBox="0 0 406 466" fill="none" xmlns="http://www.w3.org/2000/svg">
<g style="mix-blend-mode:multiply">
<path d="M397.573 389.048L312.947 340.668C310.588 339.311 307.91 338.605 305.188 338.621C302.465 338.638 299.796 339.376 297.454 340.762L213.026 386.755C210.561 388.254 208.528 390.367 207.125 392.886C205.723 395.405 204.998 398.244 205.023 401.127C205.048 404.009 205.821 406.836 207.267 409.33C208.713 411.825 210.782 413.902 213.272 415.359L297.928 463.019C300.263 464.343 302.905 465.033 305.59 465.02C308.276 465.007 310.911 464.292 313.233 462.945L397.627 417.682C400.111 416.202 402.167 414.102 403.594 411.589C405.021 409.076 405.769 406.235 405.765 403.346C405.761 400.457 405.005 397.619 403.571 395.109C402.138 392.6 400.076 390.506 397.587 389.033L397.573 389.048Z" fill="white"/>
<path d="M297.691 341.21L213.504 387.075C211.522 388.244 209.804 389.811 208.459 391.677C206.446 394.475 205.438 397.871 205.6 401.313C205.711 404.161 206.545 406.933 208.025 409.37C209.504 411.806 211.58 413.826 214.057 415.24L298.16 462.585C299.659 463.433 301.3 464.003 303.003 464.267C303.887 464.404 304.78 464.465 305.674 464.449C308.358 464.394 310.985 463.665 313.312 462.328L397.178 417.351C398.886 416.361 400.404 415.075 401.661 413.554C404.044 410.639 405.284 406.958 405.151 403.197C405.071 400.353 404.264 397.577 402.807 395.133C401.35 392.688 399.292 390.656 396.827 389.23L312.996 341.294C310.688 339.971 308.083 339.252 305.422 339.203C304.618 339.19 303.814 339.24 303.018 339.351C301.137 339.615 299.327 340.247 297.691 341.21V341.21Z" fill="#FCFCFD"/>
<path d="M297.942 341.659L214.008 387.381C212.033 388.541 210.308 390.079 208.932 391.909C206.89 394.657 205.921 398.055 206.207 401.466C206.422 404.271 207.323 406.981 208.832 409.356C210.34 411.732 212.409 413.702 214.857 415.093L298.406 462.126C299.891 462.968 301.526 463.513 303.22 463.729C304.094 463.848 304.976 463.892 305.857 463.862C308.517 463.76 311.112 463.015 313.421 461.692L396.743 417.001C398.439 416.023 399.954 414.76 401.221 413.268C403.622 410.408 404.818 406.729 404.559 403.005C404.38 400.212 403.513 397.505 402.035 395.127C400.557 392.749 398.513 390.773 396.086 389.374L313.075 341.921C310.797 340.614 308.235 339.881 305.61 339.785C304.817 339.759 304.023 339.792 303.235 339.884C301.366 340.101 299.564 340.706 297.942 341.659V341.659Z" fill="#FAFAFA"/>
<path d="M298.184 342.108L214.502 387.697C212.535 388.842 210.803 390.348 209.397 392.135C207.322 394.835 206.391 398.241 206.804 401.619C207.125 404.378 208.093 407.022 209.631 409.336C211.168 411.65 213.231 413.569 215.652 414.935L298.644 461.658C300.117 462.493 301.748 463.014 303.433 463.187C304.297 463.281 305.167 463.305 306.035 463.261C308.67 463.11 311.234 462.35 313.525 461.041L396.304 416.656C397.99 415.69 399.504 414.45 400.782 412.987C401.979 411.602 402.878 409.987 403.424 408.241C403.97 406.495 404.151 404.656 403.956 402.837C403.687 400.092 402.765 397.452 401.266 395.135C399.767 392.819 397.736 390.894 395.341 389.522L313.139 342.547C310.889 341.254 308.366 340.507 305.773 340.367C304.993 340.327 304.211 340.343 303.433 340.417C301.579 340.585 299.787 341.163 298.184 342.108V342.108Z" fill="#F7F7F8"/>
<path d="M298.436 342.557L214.996 388.007C213.033 389.151 211.294 390.64 209.861 392.402C208.817 393.71 208.058 395.223 207.633 396.841C207.208 398.46 207.126 400.149 207.392 401.801C207.818 404.51 208.852 407.088 210.418 409.34C211.984 411.593 214.04 413.462 216.432 414.806L298.886 461.224C300.347 462.05 301.972 462.545 303.645 462.674C304.5 462.738 305.358 462.738 306.213 462.674C308.819 462.475 311.349 461.7 313.619 460.405L395.86 416.296C397.533 415.337 399.044 414.12 400.338 412.691C401.535 411.336 402.425 409.738 402.945 408.008C403.465 406.277 403.603 404.454 403.349 402.664C402.98 399.977 401.997 397.411 400.477 395.164C398.956 392.917 396.939 391.048 394.581 389.704L313.204 343.173C310.98 341.893 308.496 341.131 305.936 340.944C305.169 340.89 304.398 340.89 303.63 340.944C301.797 341.072 300.019 341.624 298.436 342.557V342.557Z" fill="#F4F4F5"/>
<path d="M298.678 343L215.489 388.328C213.533 389.462 211.786 390.923 210.325 392.648C209.267 393.932 208.51 395.435 208.109 397.049C207.707 398.662 207.672 400.345 208.004 401.974C208.533 404.631 209.632 407.143 211.226 409.335C212.82 411.528 214.871 413.349 217.237 414.673L299.123 460.775C300.57 461.595 302.19 462.064 303.853 462.146C304.697 462.196 305.543 462.184 306.385 462.111C308.969 461.864 311.471 461.074 313.727 459.793L395.45 415.945C397.113 414.996 398.623 413.8 399.928 412.399C401.137 411.076 402.024 409.492 402.52 407.77C403.016 406.048 403.107 404.235 402.786 402.472C402.319 399.843 401.279 397.349 399.739 395.167C398.199 392.986 396.196 391.169 393.875 389.847L313.268 343.794C311.068 342.535 308.624 341.763 306.099 341.531C305.346 341.461 304.589 341.443 303.833 341.476C302.016 341.555 300.246 342.079 298.678 343V343Z" fill="#F2F2F3"/>
<path d="M298.93 343.45L215.983 388.639C214.034 389.766 212.282 391.202 210.794 392.89C209.721 394.148 208.963 395.642 208.582 397.25C208.202 398.858 208.21 400.533 208.607 402.137C209.239 404.739 210.403 407.182 212.025 409.314C213.647 411.446 215.692 413.22 218.032 414.526L299.359 460.331C300.798 461.142 302.414 461.586 304.065 461.624C304.898 461.653 305.733 461.623 306.563 461.535C309.12 461.238 311.592 460.432 313.831 459.163L394.995 415.63C396.645 414.689 398.151 413.516 399.468 412.149C400.686 410.857 401.568 409.287 402.039 407.576C402.509 405.866 402.554 404.066 402.169 402.334C401.607 399.765 400.51 397.342 398.949 395.224C397.388 393.106 395.399 391.339 393.109 390.04L313.332 344.436C311.161 343.189 308.756 342.402 306.267 342.123C305.524 342.041 304.777 342.008 304.03 342.024C302.235 342.053 300.479 342.544 298.93 343.45V343.45Z" fill="#EFEFF0"/>
<path d="M299.172 343.898L216.472 388.95C214.531 390.073 212.773 391.485 211.258 393.137C210.168 394.366 209.407 395.851 209.047 397.453C208.687 399.056 208.739 400.723 209.199 402.3C209.234 406.433 215.307 412.41 218.817 414.388L299.597 459.868C301.023 460.675 302.637 461.094 304.277 461.081C305.102 461.09 305.927 461.042 306.746 460.938C309.275 460.596 311.715 459.774 313.935 458.517L394.561 415.27C396.2 414.34 397.705 413.192 399.034 411.858C400.26 410.593 401.138 409.034 401.583 407.331C402.027 405.628 402.024 403.838 401.572 402.137C401.572 397.994 395.869 392.175 392.364 390.173L313.396 345.048C311.25 343.815 308.884 343.014 306.43 342.69C305.699 342.596 304.964 342.545 304.228 342.537C302.45 342.526 300.703 342.996 299.172 343.898V343.898Z" fill="#ECECEE"/>
<path d="M299.424 344.347L216.966 389.265C215.029 390.379 213.263 391.765 211.722 393.383C210.614 394.585 209.851 396.062 209.512 397.661C209.173 399.259 209.272 400.919 209.797 402.467C209.826 406.343 216.319 412.394 219.612 414.244L299.839 459.413C301.252 460.216 302.86 460.61 304.485 460.553C305.298 460.536 306.109 460.469 306.914 460.35C309.416 459.963 311.828 459.127 314.033 457.885L394.122 414.929C395.75 414.008 397.255 412.882 398.6 411.581C399.831 410.348 400.702 408.804 401.12 407.114C401.539 405.424 401.488 403.652 400.975 401.988C400.975 398.107 394.907 392.238 391.623 390.359L313.461 345.678C311.34 344.46 309.011 343.645 306.593 343.276C305.875 343.168 305.151 343.1 304.425 343.074C302.671 343.012 300.935 343.453 299.424 344.347V344.347Z" fill="#E9EAEC"/>
<path d="M299.666 344.796L217.459 389.581C215.529 390.687 213.755 392.047 212.186 393.625C211.062 394.802 210.296 396.274 209.979 397.87C209.661 399.465 209.806 401.118 210.394 402.635C210.424 406.25 217.331 412.375 220.402 414.106L300.076 458.985C301.479 459.783 303.086 460.152 304.697 460.045C305.499 460.009 306.299 459.925 307.091 459.794C309.566 459.354 311.948 458.501 314.137 457.269L393.687 414.604C395.305 413.692 396.807 412.587 398.16 411.315C399.4 410.113 400.267 408.581 400.66 406.9C401.053 405.22 400.955 403.462 400.377 401.836C400.377 398.216 393.959 392.298 390.878 390.547L313.525 346.295C311.428 345.095 309.137 344.268 306.756 343.854C306.043 343.731 305.325 343.647 304.603 343.602C302.875 343.499 301.155 343.915 299.666 344.796V344.796Z" fill="#E7E7E9"/>
<path d="M299.918 345.244L217.958 389.891C216.034 390.993 214.254 392.33 212.66 393.871C211.519 395.022 210.751 396.489 210.455 398.082C210.159 399.674 210.35 401.319 211.001 402.802C211.001 406.161 218.353 412.355 221.202 413.963L300.322 458.506C301.715 459.299 303.318 459.644 304.914 459.492C305.708 459.432 306.497 459.328 307.279 459.182C309.722 458.696 312.073 457.829 314.246 456.612L393.243 414.229C394.839 413.324 396.33 412.244 397.686 411.009C398.936 409.837 399.802 408.315 400.169 406.642C400.537 404.97 400.389 403.225 399.745 401.638C399.745 398.275 392.946 392.303 390.103 390.68L313.589 346.901C311.516 345.723 309.265 344.89 306.924 344.435C306.46 344.435 305.279 344.066 304.82 344.135C303.11 343.98 301.394 344.369 299.918 345.244V345.244Z" fill="#E4E4E7"/>
<path d="M300.159 345.689L218.442 390.207C216.521 391.301 214.733 392.614 213.114 394.118C211.95 395.245 211.175 396.712 210.901 398.308C210.627 399.904 210.868 401.545 211.589 402.995C211.613 406.092 219.35 412.365 221.987 413.845L300.554 458.077C301.935 458.864 303.534 459.183 305.111 458.985C305.605 459.064 306.968 458.615 307.442 458.615C309.862 458.085 312.191 457.203 314.354 455.996L392.828 413.904C394.423 413.011 395.921 411.953 397.296 410.748C398.555 409.606 399.419 408.094 399.761 406.43C400.104 404.766 399.908 403.036 399.202 401.491C399.202 398.384 392.033 392.367 389.406 390.868L313.668 347.568C311.621 346.395 309.406 345.541 307.101 345.038C306.671 345.038 305.457 344.618 305.032 344.683C303.341 344.472 301.628 344.825 300.159 345.689V345.689Z" fill="#E1E2E4"/>
<path d="M300.406 346.142L218.941 390.528C217.023 391.613 215.228 392.899 213.584 394.365C212.407 395.464 211.631 396.924 211.379 398.513C211.127 400.102 211.413 401.73 212.191 403.138C212.191 405.979 220.367 412.331 222.782 413.687L300.791 457.609C302.165 458.388 303.763 458.68 305.324 458.438C305.753 458.512 307.185 458.018 307.615 458.018C310 457.439 312.295 456.54 314.438 455.345L392.379 413.544C393.957 412.659 395.446 411.622 396.822 410.447C398.09 409.334 398.95 407.83 399.265 406.174C399.581 404.518 399.335 402.804 398.565 401.304C398.565 398.463 391.031 392.392 388.621 391.016L313.717 348.174C311.695 347.015 309.519 346.147 307.254 345.595C306.859 345.595 305.605 345.131 305.22 345.196C303.554 344.943 301.852 345.277 300.406 346.142Z" fill="#DFDFE2"/>
<path d="M300.653 346.586L219.429 390.838C217.518 391.917 215.715 393.179 214.048 394.606C212.852 395.678 212.07 397.136 211.839 398.724C211.608 400.313 211.943 401.932 212.784 403.3C212.808 405.885 221.375 412.306 223.572 413.544L301.028 457.15C302.394 457.928 303.992 458.194 305.536 457.899C305.926 457.969 307.398 457.406 307.792 457.406C310.145 456.779 312.411 455.866 314.542 454.689L391.944 413.193C393.511 412.314 394.998 411.299 396.388 410.16C397.666 409.082 398.526 407.59 398.819 405.945C399.112 404.299 398.82 402.603 397.992 401.15C397.992 398.561 390.093 392.446 387.905 391.193L313.781 348.8C311.782 347.655 309.643 346.773 307.417 346.176C307.062 346.176 305.768 345.683 305.442 345.728C303.795 345.424 302.093 345.729 300.653 346.586Z" fill="#DCDDDF"/>
<path d="M300.9 347.034L219.928 391.149C218.013 392.222 216.195 393.461 214.497 394.852C213.282 395.899 212.495 397.356 212.287 398.945C212.078 400.534 212.463 402.144 213.366 403.468C213.366 405.791 222.372 412.291 224.347 413.401L301.255 456.696C302.61 457.471 304.205 457.712 305.729 457.372C306.079 457.436 307.6 456.839 307.955 456.839C310.275 456.168 312.513 455.24 314.626 454.073L391.5 412.848C393.054 411.977 394.54 410.988 395.943 409.889C397.231 408.833 398.086 407.342 398.348 405.698C398.61 404.054 398.261 402.371 397.365 400.968C397.365 398.64 389.1 392.475 387.13 391.351L313.816 349.431C311.84 348.298 309.737 347.402 307.551 346.763C307.235 346.763 305.901 346.211 305.576 346.27C303.976 345.931 302.308 346.204 300.9 347.034V347.034Z" fill="#D9DADD"/>
<path d="M301.147 347.484L220.412 391.465C218.511 392.534 216.695 393.748 214.981 395.095C213.75 396.12 212.96 397.578 212.777 399.168C212.593 400.759 213.028 402.358 213.993 403.637C213.993 405.703 223.414 412.272 225.171 413.263L301.522 456.243C302.868 457.016 304.463 457.23 305.966 456.84C306.277 456.899 307.842 456.258 308.153 456.258C310.442 455.539 312.653 454.594 314.754 453.437L391.08 412.504C392.629 411.643 394.114 410.673 395.524 409.599C396.823 408.572 397.679 407.085 397.914 405.447C398.149 403.808 397.746 402.142 396.787 400.791C396.787 398.725 388.157 392.511 386.419 391.509L313.91 350.048C311.957 348.932 309.891 348.025 307.748 347.341C307.462 347.341 306.094 346.744 305.817 346.789C304.23 346.395 302.551 346.645 301.147 347.484V347.484Z" fill="#D7D7DA"/>
<path d="M301.394 347.932L220.906 391.78C219.004 392.84 217.177 394.03 215.44 395.341C214.82 395.835 214.306 396.448 213.926 397.144C213.546 397.839 213.309 398.603 213.229 399.391C213.149 400.179 213.226 400.975 213.458 401.733C213.689 402.491 214.069 403.195 214.576 403.804C214.576 405.609 224.411 412.252 225.932 413.12L301.729 455.794C302.398 456.171 303.137 456.41 303.901 456.495C304.664 456.579 305.437 456.509 306.173 456.287C306.449 456.336 308.054 455.646 308.331 455.646C310.586 454.882 312.77 453.924 314.858 452.781L390.646 412.129C392.184 411.274 393.668 410.326 395.089 409.288C395.738 408.793 396.281 408.174 396.688 407.467C397.095 406.76 397.358 405.979 397.46 405.171C397.562 404.362 397.503 403.54 397.285 402.755C397.067 401.969 396.695 401.234 396.19 400.593C396.19 398.783 387.194 392.515 385.664 391.642L313.984 350.674C312.054 349.572 310.026 348.651 307.926 347.922C307.679 347.922 306.272 347.281 306.03 347.321C305.256 347.101 304.446 347.042 303.648 347.147C302.851 347.252 302.084 347.52 301.394 347.932V347.932Z" fill="#D4D5D8"/>
<path d="M301.641 348.381L221.399 392.091C219.502 393.15 217.667 394.317 215.904 395.587C215.275 396.069 214.754 396.677 214.373 397.371C213.992 398.065 213.76 398.83 213.691 399.619C213.623 400.407 213.719 401.201 213.974 401.951C214.229 402.7 214.638 403.388 215.173 403.971C215.173 405.525 225.423 412.242 226.736 412.982L301.986 455.345C302.646 455.722 303.378 455.956 304.134 456.032C304.89 456.109 305.653 456.026 306.375 455.789C306.607 455.828 308.261 455.089 308.498 455.089C310.718 454.28 312.874 453.306 314.947 452.174L390.196 411.813C391.726 410.967 393.209 410.04 394.64 409.036C395.294 408.555 395.841 407.943 396.246 407.239C396.651 406.536 396.906 405.756 396.995 404.95C397.084 404.143 397.004 403.327 396.761 402.552C396.518 401.778 396.117 401.062 395.583 400.45C395.583 398.897 386.202 392.559 384.908 391.834L314.038 351.301C312.129 350.209 310.134 349.274 308.074 348.504C307.862 348.504 306.42 347.814 306.212 347.848C305.456 347.609 304.657 347.533 303.869 347.625C303.081 347.716 302.322 347.974 301.641 348.381V348.381Z" fill="#D1D2D6"/>
<path d="M301.887 348.83L221.903 392.406C221.463 392.663 216.664 395.425 216.378 395.834C215.742 396.304 215.215 396.906 214.833 397.599C214.452 398.291 214.225 399.058 214.168 399.847C214.111 400.635 214.226 401.427 214.504 402.167C214.783 402.907 215.218 403.578 215.781 404.134C219.329 407.502 223.275 410.425 227.531 412.839L302.223 454.906C302.88 455.282 303.611 455.51 304.365 455.573C305.119 455.636 305.878 455.533 306.588 455.271C306.78 455.306 308.474 454.521 308.671 454.521C310.858 453.67 312.988 452.681 315.05 451.562L389.762 411.458C390.142 411.241 393.954 409.081 394.205 408.75C394.865 408.282 395.416 407.678 395.82 406.978C396.224 406.278 396.472 405.499 396.546 404.694C396.621 403.889 396.521 403.078 396.252 402.316C395.983 401.553 395.553 400.858 394.99 400.277C394.99 398.98 385.264 392.618 384.173 391.997L314.063 351.927C312.178 350.846 310.222 349.895 308.207 349.081C308.029 349.081 306.548 348.351 306.375 348.381C305.64 348.123 304.857 348.03 304.082 348.108C303.306 348.185 302.557 348.432 301.887 348.83Z" fill="#CECFD3"/>
<path d="M302.134 349.273L222.387 392.717C222.031 392.924 217.059 395.75 216.837 396.08C216.191 396.538 215.656 397.135 215.273 397.827C214.889 398.519 214.666 399.288 214.621 400.078C214.576 400.868 214.71 401.658 215.012 402.389C215.315 403.12 215.778 403.774 216.368 404.302C220.074 407.473 224.077 410.28 228.321 412.685L302.46 454.428C303.114 454.8 303.844 455.019 304.595 455.069C305.346 455.118 306.098 454.997 306.795 454.714C306.953 454.743 308.691 453.91 308.849 453.91C310.999 453.01 313.102 452.001 315.149 450.887L389.327 411.112C389.628 410.94 393.568 408.735 393.771 408.464C394.435 408.009 394.989 407.41 395.39 406.712C395.792 406.015 396.031 405.236 396.091 404.433C396.151 403.631 396.029 402.825 395.735 402.076C395.441 401.327 394.983 400.653 394.393 400.105C391.026 397.08 387.351 394.417 383.427 392.16L314.161 352.548C312.296 351.483 310.375 350.52 308.405 349.663C308.261 349.663 306.751 348.889 306.607 348.913C305.884 348.628 305.104 348.513 304.329 348.575C303.554 348.637 302.803 348.876 302.134 349.273V349.273Z" fill="#CCCDD1"/>
<path d="M302.376 349.723L222.886 393.033C222.624 393.186 217.479 396.081 217.311 396.323C216.656 396.768 216.114 397.361 215.729 398.053C215.343 398.745 215.126 399.518 215.093 400.309C215.061 401.101 215.214 401.889 215.541 402.61C215.868 403.332 216.359 403.967 216.976 404.465C220.824 407.45 224.883 410.153 229.121 412.553L302.687 453.979C303.339 454.35 304.069 454.562 304.818 454.598C305.567 454.634 306.314 454.493 306.998 454.186C307.116 454.211 308.899 453.328 309.012 453.328C309.368 453.328 314.937 450.433 315.243 450.256L388.888 410.768C389.115 410.634 393.188 408.386 393.332 408.183C394.004 407.743 394.563 407.152 394.966 406.457C395.369 405.762 395.604 404.983 395.652 404.182C395.7 403.38 395.56 402.579 395.242 401.841C394.925 401.103 394.44 400.45 393.825 399.933C390.322 397.112 386.605 394.568 382.707 392.323L314.226 353.175C313.925 353.002 308.918 350.245 308.568 350.245C308.464 350.245 306.914 349.427 306.805 349.447C306.098 349.138 305.328 349.001 304.557 349.049C303.787 349.097 303.039 349.328 302.376 349.723Z" fill="#C9CACE"/>
<path d="M302.628 350.171L223.369 393.343C223.197 393.447 217.879 396.406 217.766 396.569C217.101 397.004 216.553 397.593 216.167 398.286C215.781 398.979 215.569 399.756 215.55 400.549C215.53 401.342 215.704 402.127 216.055 402.839C216.407 403.55 216.926 404.165 217.568 404.632C217.568 405.125 229.467 412.168 229.911 412.414L302.944 453.53C303.593 453.899 304.322 454.104 305.068 454.127C305.814 454.15 306.554 453.991 307.225 453.663C307.299 453.663 309.126 452.746 309.2 452.746C309.432 452.746 315.149 449.743 315.357 449.629L388.454 410.422C388.607 410.333 392.803 408.035 392.897 407.902C393.577 407.474 394.142 406.888 394.543 406.193C394.944 405.498 395.17 404.716 395.2 403.914C395.23 403.112 395.064 402.315 394.716 401.592C394.368 400.869 393.849 400.242 393.203 399.765C389.576 397.146 385.815 394.716 381.936 392.485L314.29 353.806C314.088 353.687 308.968 350.847 308.731 350.847C308.662 350.847 307.072 349.984 307.003 349.994C306.316 349.66 305.556 349.501 304.793 349.532C304.03 349.563 303.286 349.783 302.628 350.171V350.171Z" fill="#C6C7CC"/>
<path d="M302.87 350.62L223.873 393.659C223.784 393.714 218.299 396.732 218.239 396.816C217.566 397.24 217.011 397.826 216.623 398.52C216.236 399.215 216.03 399.996 216.024 400.79C216.017 401.585 216.211 402.369 216.587 403.07C216.963 403.77 217.509 404.365 218.175 404.8C218.175 405.057 230.489 412.148 230.706 412.272L303.186 453.077C303.832 453.445 304.561 453.643 305.304 453.653C306.048 453.662 306.782 453.483 307.437 453.131C307.476 453.131 309.348 452.145 309.412 452.145C309.53 452.145 315.386 449.033 315.49 448.974L388.068 410.057C388.147 410.013 392.472 407.665 392.512 407.592C393.193 407.172 393.757 406.589 394.153 405.895C394.55 405.201 394.765 404.419 394.78 403.62C394.794 402.821 394.608 402.032 394.238 401.323C393.867 400.615 393.325 400.012 392.66 399.568C392.66 399.311 381.467 392.752 381.25 392.624L314.394 354.403C314.295 354.344 309.056 351.385 308.962 351.385C308.928 351.385 307.304 350.477 307.269 350.482C306.587 350.122 305.822 349.945 305.051 349.969C304.28 349.993 303.528 350.218 302.87 350.62V350.62Z" fill="#C4C5C9"/>
<path d="M307.402 351.039C306.75 350.664 306.009 350.469 305.255 350.474C304.502 350.479 303.764 350.684 303.117 351.069L218.693 397.057C218.016 397.473 217.458 398.056 217.073 398.751C216.688 399.446 216.489 400.228 216.496 401.022C216.503 401.816 216.716 402.595 217.113 403.283C217.51 403.971 218.078 404.544 218.762 404.948L303.413 452.603C304.056 452.973 304.784 453.167 305.526 453.167C306.268 453.167 306.996 452.973 307.639 452.603L392.033 407.335C392.715 406.926 393.279 406.348 393.671 405.656C394.063 404.965 394.269 404.184 394.269 403.39C394.269 402.595 394.063 401.814 393.671 401.123C393.279 400.431 392.715 399.853 392.033 399.444L307.402 351.039Z" fill="#C1C2C7"/>
</g>
<path d="M219.632 395.534L299.843 351.952C302.262 350.642 304.973 349.962 307.724 349.977C310.476 349.991 313.179 350.7 315.583 352.036L393.702 395.564C394.638 396.086 395.418 396.849 395.961 397.773C396.504 398.697 396.791 399.749 396.791 400.821C396.791 401.892 396.504 402.945 395.961 403.869C395.418 404.793 394.638 405.556 393.702 406.078L315.583 449.6C313.181 450.941 310.477 451.652 307.724 451.667C304.972 451.682 302.26 451 299.843 449.684L219.632 406.083C218.685 405.564 217.896 404.801 217.346 403.873C216.796 402.945 216.506 401.887 216.506 400.808C216.506 399.73 216.796 398.672 217.346 397.744C217.896 396.816 218.685 396.053 219.632 395.534V395.534Z" fill="url(#paint0_linear_808_1803)"/>
<path d="M216.482 401.082H396.792V389.517H216.482V401.082Z" fill="url(#paint1_linear_808_1803)"/>
<path d="M219.632 383.723L299.843 340.141C302.261 338.826 304.972 338.144 307.724 338.158C310.477 338.173 313.181 338.884 315.584 340.225L393.702 383.752C394.638 384.275 395.418 385.037 395.961 385.962C396.504 386.886 396.791 387.938 396.791 389.009C396.791 390.081 396.504 391.133 395.961 392.057C395.418 392.981 394.638 393.744 393.702 394.267L315.584 437.789C313.181 439.13 310.477 439.841 307.724 439.856C304.972 439.87 302.261 439.188 299.843 437.873L219.632 394.296C218.679 393.779 217.884 393.016 217.33 392.085C216.776 391.155 216.484 390.092 216.484 389.009C216.484 387.927 216.776 386.864 217.33 385.934C217.884 385.003 218.679 384.24 219.632 383.723V383.723Z" fill="white"/>
<path d="M393.707 392.826L364.868 408.899L315.588 436.353C313.184 437.69 310.481 438.398 307.729 438.413C304.978 438.428 302.267 437.748 299.848 436.437L248.169 408.366L225.64 396.121L219.632 392.866C218.678 392.348 217.883 391.583 217.328 390.651C216.774 389.719 216.481 388.655 216.481 387.571C216.481 386.487 216.774 385.424 217.328 384.492C217.883 383.56 218.678 382.795 219.632 382.277L299.848 338.71C302.265 337.395 304.977 336.713 307.729 336.728C310.482 336.742 313.185 337.453 315.588 338.794L366.393 367.102L393.707 382.317C394.642 382.84 395.421 383.602 395.963 384.526C396.505 385.449 396.791 386.501 396.791 387.571C396.791 388.642 396.505 389.693 395.963 390.617C395.421 391.541 394.642 392.303 393.707 392.826V392.826Z" fill="#F8F6FB"/>
<path d="M247.873 272.64C246.526 273.09 245.268 273.771 244.155 274.652C243.212 275.657 242.042 276.423 240.744 276.886C238.576 277.202 236.986 279.239 236.651 277.907C236.389 276.857 237.816 276.127 238.487 275.703C238.754 275.545 239.475 275.254 238.981 274.973C237.603 274.199 230.726 275.88 230.207 275.293C229.689 274.707 230.489 274.342 230.75 274.174C232.636 272.961 231.792 270.722 234.157 269.844C236.478 269.268 238.866 268.999 241.257 269.045C243.04 268.685 244.793 268.191 246.5 267.565C246.5 267.565 248.273 272.472 247.873 272.64Z" fill="#FFB78D"/>
<path d="M237.149 269.706C234.775 269.948 235.199 272.487 233.269 273.464C232.997 273.602 232.207 273.888 232.568 274.45C232.928 275.012 239.48 274.016 240.596 274.85C240.946 275.111 240.443 275.308 240.102 275.442C239.623 275.434 239.144 275.479 238.675 275.575C238.981 275.407 239.356 275.18 238.961 274.958C237.584 274.184 230.706 275.866 230.188 275.279C229.669 274.692 230.469 274.327 230.731 274.159C232.617 272.946 231.773 270.707 234.138 269.829C236.459 269.253 238.846 268.984 241.237 269.03C243.02 268.671 244.773 268.176 246.481 267.551C246.481 267.551 246.703 268.167 246.975 268.961C245.755 269.232 244.047 272.157 243.519 272.295C241.711 272.793 242.719 269.124 237.149 269.706Z" fill="#FFD1AA"/>
<path d="M270.21 261.583C259.935 262.979 244.24 267.008 244.24 267.008C243.452 268.301 243.072 269.8 243.148 271.311C243.225 272.822 243.755 274.275 244.669 275.481C254.036 275.374 263.349 274.048 272.372 271.536C281.822 267.862 276.46 260.72 270.21 261.583Z" fill="#BAC1E8"/>
<path d="M288.641 235.371C290.384 238.211 292.931 242.966 287.313 253.806C284.71 259.902 280.639 265.263 275.463 269.409C273.33 270.8 264.956 273.587 268.822 262.219C271.844 253.627 275.389 245.227 279.438 237.067C279.742 236.163 280.283 235.357 281.004 234.732C281.725 234.107 282.6 233.687 283.539 233.514C284.478 233.341 285.446 233.421 286.343 233.748C287.24 234.075 288.034 234.635 288.641 235.371V235.371Z" fill="#BAC1E8"/>
<path d="M297.789 377.814C297.452 380.699 297.433 383.611 297.735 386.499C299.261 390.474 296.111 392.851 292.304 392.91C289.258 392.94 279.329 395.697 276.425 392.378C274.288 389.912 278.346 388.349 282.543 387.658C284.162 387.396 285.664 386.65 286.851 385.519C288.038 384.388 288.855 382.924 289.193 381.321L297.789 377.814Z" fill="#0D0848"/>
<path d="M279.645 291.021C276.189 303.691 280.316 335.051 281.684 343.845C283.052 352.638 296.382 354.916 298.92 341.665C299.908 336.408 301.794 317.549 304.03 307.029C304.917 304.167 305.06 301.127 304.448 298.194C303.836 295.261 302.487 292.531 300.53 290.262C298.54 287.589 281.027 285.956 279.645 291.021Z" fill="#1D1273"/>
<path d="M281.61 344.076C282.859 352.79 286.977 382.587 287.234 383.949C291.009 384.757 294.938 384.469 298.555 383.12C298.555 383.12 299.542 344.238 298.185 340.525C296.827 336.811 280.672 337.531 281.61 344.076Z" fill="#1D1273"/>
<path d="M294.205 284.022C294.205 284.022 295.02 335.007 297.113 343.657C299.207 352.307 312.419 350.359 313.184 340.515C313.559 335.584 316.853 313.642 318.21 302.97C319.568 292.298 317.252 287.006 315.85 285.413C313.643 282.908 294.205 284.022 294.205 284.022Z" fill="#3531A1"/>
<path d="M285.15 230.839C288.26 228.433 292.047 227.061 295.978 226.918C301.903 227.007 301.902 228.037 301.542 228.935C301.182 229.833 301.577 232.18 299.671 232.466C294.692 233.584 289.632 234.301 284.538 234.611C283.23 233.965 285.15 230.839 285.15 230.839Z" fill="url(#paint2_linear_808_1803)"/>
<path d="M298.244 231.283C300.681 231.329 303.081 231.897 305.279 232.95C307.478 234.002 309.424 235.514 310.987 237.383C316.453 243.829 316.068 288.915 317.341 293.639C305.391 294.419 293.405 292.803 282.089 288.885C282.089 288.885 280.475 249.826 279.818 246.68C279.245 243.928 279.783 233.265 286.562 231.86C290.396 231.012 294.345 230.817 298.244 231.283V231.283Z" fill="url(#paint3_linear_808_1803)"/>
<path d="M291.963 284.762C291.453 284.179 291.081 283.488 290.875 282.741C290.67 281.994 290.636 281.21 290.776 280.448C290.916 279.686 291.226 278.965 291.684 278.34C292.142 277.715 292.735 277.201 293.42 276.837C296.484 275.924 299.73 275.811 302.85 276.506L300.125 263.408C296.249 264.483 292.432 261.055 290.171 257.894C288.616 255.913 287.66 253.53 287.416 251.024C287.49 248.145 287.913 245.285 288.675 242.507C288.689 239.905 289.237 237.334 290.285 234.952C291.358 233.59 292.512 232.294 293.741 231.07C291.338 231.123 288.945 231.395 286.592 231.884C279.813 233.29 279.274 243.952 279.847 246.704C280.504 249.85 282.118 288.909 282.118 288.909C288.564 291.368 295.513 292.214 302.361 291.375C302.119 291.336 301.868 291.311 301.64 291.267C299.656 290.936 297.765 290.184 296.096 289.062C294.427 287.94 293.018 286.474 291.963 284.762Z" fill="#BAC1E8"/>
<path d="M286.335 231.805C286.335 231.805 288.122 235.578 290.927 235.42C292.467 235.395 293.979 235.012 295.345 234.301C296.711 233.591 297.893 232.573 298.797 231.327C297.608 230.44 296.629 229.303 295.93 227.995C295.231 226.688 294.829 225.242 294.753 223.762C295.079 219.481 285.348 226.879 286.335 231.805Z" fill="#FFB78D"/>
<path d="M278.717 216.764C278.489 218.27 278.578 219.806 278.978 221.276C279.871 222.549 280.53 223.97 280.924 225.473C281.318 227.019 282.146 228.42 283.31 229.511C284.474 230.603 285.926 231.341 287.495 231.638C290.867 232.225 294.017 226.731 294.6 223.367C295.18 220.361 294.773 217.247 293.44 214.49C292.596 213.152 291.379 212.089 289.938 211.433C288.497 210.777 286.896 210.556 285.331 210.797C283.766 211.039 282.306 211.733 281.131 212.793C279.955 213.853 279.116 215.233 278.717 216.764V216.764Z" fill="#FFD1AA"/>
<path d="M290.621 208.045C290.621 208.045 288.117 208.424 286.755 213.632C285.392 218.84 282.03 215.753 279.102 218.219C276.174 220.685 278.183 222.406 278.183 222.406C278.183 222.406 273.458 220.389 276.149 214.549C278.84 208.71 284.77 202.837 290.621 208.045Z" fill="#1D1273"/>
<path d="M290.621 208.045C290.621 208.045 293.904 206.23 295.662 211.324C297.419 216.419 295.691 216.907 296.412 220.369C294.002 220.659 291.562 220.17 289.451 218.973C288.591 218.496 287.849 217.832 287.28 217.031C286.711 216.23 286.329 215.311 286.162 214.342C285.866 213.085 289.456 207.236 290.621 208.045Z" fill="#1D1273"/>
<path d="M292.526 220.206C292.637 219.851 292.835 219.529 293.102 219.271C293.37 219.012 293.698 218.825 294.057 218.727C295.321 218.352 295.755 218.899 296.081 221C296.17 221.617 296.122 222.247 295.94 222.843C295.759 223.44 295.448 223.989 295.03 224.452C294.822 224.98 294.042 225.301 293.055 223.579C292.452 222.564 292.263 221.357 292.526 220.206V220.206Z" fill="#FFD1AA"/>
<path d="M295.667 227.761C295.667 227.761 301.809 226.775 300.707 229.734C299.606 232.693 295 237.344 294.561 240.717C294.561 240.717 297.029 273.306 298.175 281.788C298.774 290.488 298.907 299.213 298.575 307.926C298.575 307.926 313.643 310.333 320.615 303.286C320.892 296.581 320.752 289.866 320.195 283.179C319.169 269.546 317.236 255.997 314.409 242.621C314.208 240.567 313.431 238.611 312.167 236.979C310.903 235.347 309.204 234.104 307.264 233.393C300.475 229.823 303.072 228.25 300.653 227.091C298.896 226.457 297.005 226.288 295.163 226.597L295.667 227.761Z" fill="url(#paint4_linear_808_1803)"/>
<path d="M285.15 230.839C285 232.795 285.29 234.76 285.999 236.589C286.284 237.205 286.382 237.891 286.281 238.562C285.614 242.642 285.206 246.76 285.061 250.891C285.002 256.578 288.27 277.952 287.298 285.112C286.733 291.477 286.646 297.875 287.036 304.252C287.036 304.252 283.674 305.732 276.199 301.017C276.199 301.017 277.922 275.604 277.537 262.944C277.152 250.285 275.103 244.036 277.537 238.315C279.971 232.595 282.262 235.445 285.15 230.839Z" fill="url(#paint5_linear_808_1803)"/>
<path d="M326.944 380.403C327.4 381.691 327.417 383.094 326.994 384.393C326.571 385.692 325.731 386.815 324.604 387.589C320.55 391.15 315.46 394.829 319.479 396.141C323.236 397.364 326.539 392.752 334.326 389.35C341.608 386.169 337.92 382.938 336.513 380.448C335.693 379.003 334.74 377.346 334.74 377.346L326.944 380.403Z" fill="#0D0848"/>
<path d="M298.9 347.031C301.3 350.562 325.651 382.884 326.549 383.95C330.237 382.804 333.519 380.629 336.009 377.681C336.009 377.681 322.911 344.175 310.567 338.77C306.938 337.177 295.188 341.552 298.9 347.031Z" fill="#3531A1"/>
<path d="M310.849 236.042C319.533 241.511 315.366 272.206 308.38 277.898C306.158 279.712 300.999 279.056 300.569 269.795C300.139 260.533 300.944 241.413 301.004 239.958C301.32 233.044 308.192 234.37 310.849 236.042Z" fill="url(#paint6_linear_808_1803)"/>
<path d="M304.183 263.097C304.434 264.012 304.505 264.966 304.39 265.908C303.803 266.17 303.25 266.501 302.741 266.894C302.053 267.459 301.511 268.181 301.162 268.999C300.813 269.817 300.667 270.708 300.737 271.594C300.663 271.032 300.608 270.43 300.579 269.779C300.149 260.518 300.954 241.397 301.013 239.943C301.27 234.143 306.272 233.951 309.338 235.188C306.543 235.82 301.976 235.844 303.586 239.232C303.684 239.44 305.951 242.64 305.975 242.867C306.583 248.179 301.724 253.095 302.435 258.54C302.869 260.112 303.455 261.638 304.183 263.097Z" fill="#BAC1E8"/>
<path d="M281.343 286.661C281.343 286.661 279.087 287.352 277.127 288.21C275.167 289.068 274.861 289.689 273.71 289.817C273.36 289.852 274.021 291.381 276.579 290.311C279.136 289.24 273.123 292.283 272.565 294.113C272.007 295.943 271.523 296.914 272.565 296.613C273.606 296.312 273.281 294.295 274.633 293.699C274.633 293.699 272.545 296.574 273.463 298.394C273.676 298.808 276.623 299.232 277.354 297.57C277.559 297.05 277.877 296.582 278.285 296.2C278.693 295.818 279.181 295.531 279.714 295.361C281.333 294.447 282.903 293.452 284.419 292.377L281.343 286.661Z" fill="#FFD1AA"/>
<path d="M300.07 269.266C292.931 275.559 279.995 285.995 279.995 285.995C279.882 287.445 280.199 288.896 280.907 290.167C281.614 291.438 282.682 292.472 283.975 293.141C292.427 288.865 300.436 283.768 307.886 277.921C314.477 271.634 304.351 265.498 300.07 269.266Z" fill="url(#paint7_linear_808_1803)"/>
<path d="M303.847 268.769C300.866 270.651 298.273 273.087 296.209 275.944C294.551 278.533 292.537 280.875 290.225 282.903C288.208 283.724 286.109 284.33 283.965 284.713C282.498 285.204 281.135 285.964 279.946 286.952C279.922 286.633 279.935 286.312 279.985 285.995C279.985 285.995 292.921 275.56 300.061 269.267C300.732 268.731 301.521 268.363 302.363 268.191C303.205 268.02 304.076 268.05 304.904 268.281C304.535 268.404 304.181 268.568 303.847 268.769V268.769Z" fill="#BAC1E8"/>
<g style="mix-blend-mode:multiply">
<path d="M144.14 284.807C116.728 271.713 72.712 272.359 45.8382 286.252C18.9644 300.145 19.3939 322.012 46.8256 335.106C74.2574 348.199 118.249 347.553 145.128 333.661C172.006 319.768 171.572 297.896 144.14 284.807Z" fill="white"/>
<path d="M143.78 285.004C116.58 272.014 72.9097 272.675 46.2433 286.434C19.5768 300.194 20.0064 321.918 47.206 334.908C74.4057 347.898 118.071 347.238 144.743 333.478C171.414 319.719 170.975 297.989 143.78 285.004Z" fill="#FCFCFC"/>
<path d="M143.399 285.202C116.412 272.31 73.0871 272.947 46.628 286.622C20.1689 300.298 20.5985 321.825 47.5809 334.712C74.5634 347.598 117.888 346.967 144.352 333.291C170.816 319.616 170.377 298.079 143.399 285.202Z" fill="#F9F9F9"/>
<path d="M143.014 285.399C116.249 272.611 73.2649 273.243 47.0231 286.805C20.7812 300.367 21.1959 321.731 47.9661 334.514C74.7362 347.297 117.716 346.671 143.962 333.109C170.209 319.547 169.784 298.182 143.014 285.399Z" fill="#F6F6F7"/>
<path d="M142.634 285.596C116.081 272.912 73.4428 273.533 47.4083 286.992C21.3738 300.45 21.7935 321.632 48.3464 334.336C74.8993 347.04 117.538 346.394 143.577 332.94C169.617 319.487 169.192 298.275 142.634 285.596Z" fill="#F3F3F4"/>
<path d="M142.254 285.789C115.914 273.213 73.6254 273.829 47.7983 287.179C21.9712 300.529 22.3859 321.539 48.7265 334.119C75.0671 346.7 117.355 346.079 143.187 332.734C169.019 319.388 168.595 298.369 142.254 285.789Z" fill="#F0F0F1"/>
<path d="M141.874 285.986C115.745 273.509 73.798 274.125 48.1832 287.362C22.5684 300.599 23.0029 321.445 49.1064 333.927C75.21 346.409 117.182 345.763 142.797 332.551C168.412 319.339 167.997 298.463 141.874 285.986Z" fill="#EDEDEE"/>
<path d="M141.494 286.183C115.583 273.809 73.981 274.42 48.5735 287.549C23.1661 300.677 23.5759 321.351 49.4919 333.729C75.4079 346.108 116.985 345.491 142.412 332.363C167.839 319.235 167.405 298.571 141.494 286.183Z" fill="#EAEAEC"/>
<path d="M141.114 286.38C115.415 274.11 74.1589 274.711 48.9637 287.721C23.7686 300.731 24.1735 321.257 49.8722 333.522C75.5709 345.787 116.827 345.191 142.022 332.171C167.217 319.151 166.813 298.655 141.114 286.38Z" fill="#E7E7E9"/>
<path d="M140.734 286.578C115.247 274.406 74.3366 275.008 49.3439 287.919C24.3512 300.83 24.761 321.164 50.2474 333.335C75.7339 345.507 116.644 344.905 141.632 331.994C166.62 319.082 166.215 298.749 140.734 286.578Z" fill="#E4E4E6"/>
<path d="M140.353 286.775C115.084 274.707 74.514 275.299 49.7386 288.107C24.9631 300.914 25.363 321.07 50.6322 333.138C75.9014 345.206 116.466 344.614 141.247 331.807C166.027 318.999 165.622 298.843 140.353 286.775Z" fill="#E1E1E3"/>
<path d="M139.973 286.972C114.916 275.003 74.6916 275.595 50.1136 288.289C25.5357 300.983 25.9208 320.977 51.0024 332.941C76.0839 344.905 116.279 344.318 140.862 331.624C165.444 318.93 165.025 298.937 139.973 286.972Z" fill="#DDDFE1"/>
<path d="M139.593 287.17C114.748 275.304 74.8697 275.891 50.5139 288.472C26.1581 301.053 26.5531 320.883 51.3928 332.744C76.2324 344.605 116.111 344.023 140.467 331.437C164.823 318.851 164.428 299.031 139.593 287.17Z" fill="#DADCDE"/>
<path d="M139.203 287.366C114.58 275.599 75.0422 276.181 50.8987 288.658C26.7553 301.136 27.1453 320.789 51.7677 332.551C76.3901 344.313 115.928 343.731 140.077 331.259C164.225 318.786 163.835 299.124 139.203 287.366Z" fill="#D7D9DB"/>
<path d="M138.827 287.559C114.417 275.901 75.2249 276.478 51.2888 288.842C27.3526 301.206 27.7427 320.691 52.1528 332.349C76.5629 344.008 115.755 343.436 139.691 331.067C163.628 318.698 163.242 299.218 138.827 287.559Z" fill="#D4D6D8"/>
<path d="M138.447 287.756C114.254 276.201 75.4026 276.768 51.6788 289.028C27.955 301.289 28.3352 320.591 52.533 332.151C76.7308 343.711 115.578 343.139 139.301 330.879C163.025 318.619 162.645 299.316 138.447 287.756Z" fill="#D1D3D6"/>
<path d="M138.067 287.954C114.087 276.502 75.5805 277.065 52.069 289.216C28.5575 301.368 28.9328 320.503 52.9133 331.96C76.8939 343.416 115.4 342.849 138.916 330.697C162.433 318.545 162.048 299.41 138.067 287.954Z" fill="#CED0D3"/>
<path d="M137.687 288.151C113.919 276.808 75.7583 277.361 52.4542 289.399C29.15 301.437 29.5302 320.41 53.2985 331.762C77.0667 343.115 115.222 342.553 138.526 330.51C161.831 318.467 161.455 299.504 137.687 288.151Z" fill="#CBCDD0"/>
<path d="M137.307 288.348C113.751 277.099 75.936 277.651 52.8441 289.586C29.7523 301.52 30.1325 320.315 53.6736 331.564C77.2147 342.814 115.044 342.256 138.141 330.327C161.238 318.397 160.858 299.597 137.307 288.348Z" fill="#C8CACD"/>
<path d="M136.927 288.545C113.583 277.399 76.114 277.947 53.2295 289.768C30.345 301.59 30.7153 320.222 54.054 331.367C77.3927 342.513 114.867 341.97 137.751 330.134C160.636 318.298 160.266 299.691 136.927 288.545Z" fill="#C5C7CB"/>
<path d="M136.546 288.738C113.42 277.696 76.3112 278.243 53.5995 289.956C30.8879 301.669 31.2927 320.128 54.4142 331.17C77.5356 342.212 114.649 341.67 137.361 329.952C160.073 318.234 159.668 299.785 136.546 288.738Z" fill="#C2C4C8"/>
<path d="M136.166 288.94C113.252 277.996 76.4691 278.534 54.0093 290.143C31.5494 301.752 31.9099 320.034 54.819 330.973C77.7282 341.911 114.511 341.374 136.976 329.769C159.441 318.165 159.075 299.878 136.166 288.94Z" fill="#BFC1C5"/>
</g>
<path d="M37.356 293.679L52.9875 281.493C52.1669 285.333 52.7211 289.338 54.5535 292.811C56.386 296.285 59.3805 299.006 63.0152 300.5C77.5788 305.57 93.1491 307.068 108.414 304.869C117.701 303.701 136.877 282.978 136.877 282.978C136.877 282.978 153.852 299.607 154.538 302.137C159.969 322.293 135.678 336.166 106.982 339.263C87.7454 341.914 68.161 338.464 50.9929 329.4C33.2531 319.043 28.3948 301.447 37.356 293.679Z" fill="url(#paint8_linear_808_1803)"/>
<path d="M62.5118 276.196C83.3432 269.621 105.723 269.793 126.45 276.689C144.081 283.52 144.131 294.527 126.569 301.091C105.74 307.683 83.358 307.524 62.6254 300.638C44.9251 293.783 44.9004 282.79 62.5118 276.196Z" fill="url(#paint9_linear_808_1803)"/>
<path d="M50.4794 215.659L28.459 229.887L50.4794 241.363V215.659ZM49.6746 240.037L30.0537 229.813L49.6746 217.134V240.037Z" fill="black"/>
<path d="M59.2182 213.662L95.7543 233.828C97.1181 231.746 99.1515 230.19 101.519 229.417C103.887 228.645 106.448 228.701 108.779 229.577L121.068 236.343C123.911 237.909 126.282 240.209 127.932 243.002C129.582 245.795 130.451 248.98 130.449 252.223V280.092C130.449 285.078 129.368 291.371 118.14 291.371L36.7682 238.405C35.4993 237.694 40.718 221.607 40.718 221.607L59.2182 213.662Z" fill="url(#paint10_linear_808_1803)"/>
<path d="M31.7966 218.377L52.4544 205.717H73.7095L54.3552 218.5L92.0467 239.307C92.1825 239.381 92.3354 239.419 92.4903 239.416C92.6451 239.414 92.7967 239.371 92.9301 239.293C93.0636 239.214 93.1743 239.102 93.2514 238.968C93.3285 238.834 93.3693 238.682 93.3699 238.528C93.3695 237.51 93.6349 236.509 94.1398 235.625C94.6447 234.741 95.3717 234.003 96.2491 233.485C97.1264 232.968 98.1238 232.687 99.1428 232.672C100.162 232.657 101.167 232.907 102.06 233.399L116.2 241.181C119.044 242.748 121.415 245.048 123.065 247.842C124.715 250.636 125.584 253.822 125.581 257.066V284.93C125.58 286.068 125.282 287.186 124.714 288.172C124.147 289.159 123.331 289.98 122.347 290.553C121.363 291.127 120.246 291.433 119.107 291.442C117.968 291.45 116.847 291.161 115.854 290.602L31.9201 243.257C31.2984 242.907 30.7811 242.399 30.421 241.783C30.061 241.168 29.8712 240.468 29.8711 239.756V221.804C29.8719 221.116 30.0494 220.44 30.3865 219.839C30.7236 219.239 31.2091 218.736 31.7966 218.377V218.377Z" fill="url(#paint11_linear_808_1803)"/>
<path d="M40.4072 41.4265L117.479 245.027C119.458 248.936 120.274 253.33 119.828 257.688C119.383 262.045 117.695 266.184 114.966 269.612C111.203 273.172 107.248 276.523 103.116 279.648L13.3753 56.7641C10.5177 52.7783 7.86455 48.6501 5.42627 44.3953L16.9598 33.0524C24.4892 28.0615 35.9734 33.5456 40.4072 41.4265Z" fill="url(#paint12_linear_808_1803)"/>
<path d="M46.2827 2.26376L181.071 78.9273L205.679 98.9649L227.146 110.406C229.503 111.743 231.233 113.959 231.953 116.569C232.674 119.178 232.328 121.967 230.99 124.321C229.653 126.676 227.433 128.403 224.821 129.123C222.208 129.843 219.417 129.497 217.06 128.161L55.6586 38.5119C55.0622 38.1748 54.3878 37.9998 53.7026 38.0043C53.0174 38.0087 52.3453 38.1925 51.7534 38.5373C51.1614 38.8821 50.6703 39.3758 50.3289 39.9693C49.9876 40.5628 49.8079 41.2353 49.8079 41.9197V84.7615L34.6059 95.4782V15.7076L28.9626 12.3836L2.67627 47.3988L20.8505 9.8586C23.2257 5.49383 27.2334 2.24519 31.9985 0.822178C36.7636 -0.600832 41.8988 -0.0825765 46.2827 2.26376V2.26376Z" fill="url(#paint13_linear_808_1803)"/>
<path d="M221.108 161.371C221.261 161.372 221.407 161.434 221.515 161.542C221.623 161.649 221.684 161.795 221.686 161.948V262.077C221.672 262.221 221.605 262.356 221.498 262.453C221.391 262.551 221.251 262.605 221.106 262.605C220.96 262.605 220.82 262.551 220.713 262.453C220.606 262.356 220.539 262.221 220.525 262.077V161.963C220.524 161.886 220.538 161.809 220.567 161.737C220.596 161.665 220.638 161.6 220.693 161.545C220.747 161.49 220.811 161.446 220.883 161.416C220.954 161.386 221.031 161.371 221.108 161.371V161.371Z" fill="#3531A1"/>
<path d="M234.987 154.856C234.987 154.93 234.987 155.004 234.987 155.078C234.824 159.369 228.929 163.931 220.738 163.615C212.69 163.309 207.229 158.486 207.19 154.245V144.495H234.987V154.856Z" fill="#3531A1"/>
<path d="M221.454 135.504C229.645 135.82 235.175 140.816 235.012 145.106C234.849 149.397 228.954 153.959 220.763 153.648C212.572 153.337 207.037 148.337 207.2 144.046C207.363 139.755 213.263 135.194 221.454 135.504Z" fill="#1D1273"/>
<path d="M220.436 110.239C224.218 109.879 227.452 114.184 227.526 117.977L227.383 141.496C227.381 142.06 227.23 142.613 226.944 143.1C226.659 143.587 226.25 143.99 225.759 144.268C224.407 145.045 222.875 145.453 221.315 145.451C219.78 145.394 218.271 145.039 216.872 144.406C216.315 144.159 215.841 143.757 215.505 143.25C215.169 142.742 214.985 142.149 214.976 141.541L214.482 118.268C214.415 116.453 214.968 114.67 216.05 113.21C217.132 111.751 218.679 110.703 220.436 110.239Z" fill="url(#paint14_linear_808_1803)"/>
<path d="M34.7344 6.95878L173.315 85.812L197.923 105.85L219.39 117.291C220.957 118.185 222.26 119.477 223.165 121.036C224.071 122.595 224.546 124.366 224.545 126.168C224.543 127.951 224.075 129.702 223.185 131.248C222.296 132.793 221.017 134.079 219.475 134.977C217.933 135.875 216.183 136.354 214.398 136.366C212.613 136.378 210.857 135.922 209.303 135.045L47.8627 45.3966C47.2663 45.0595 46.5919 44.8845 45.9067 44.889C45.2215 44.8934 44.5494 45.0772 43.9574 45.422C43.3655 45.7668 42.8744 46.2605 42.533 46.854C42.1917 47.4475 42.012 48.12 42.012 48.8044V91.7893L26.8149 57.1538V22.5973L21.2012 19.2683L8.09754 44.8393L2.6665 47.3841L19.8039 11.5699C20.4361 10.2463 21.336 9.0678 22.4468 8.10878C23.5576 7.14975 24.8553 6.43097 26.258 5.99775C27.6607 5.56454 29.1381 5.42627 30.5969 5.59167C32.0558 5.75707 33.4645 6.22256 34.7344 6.95878V6.95878Z" fill="url(#paint15_linear_808_1803)"/>
<path d="M5.92991 44.0354C13.4593 39.0198 22.7415 40.2232 29.55 52.2714L106.617 255.877C110.685 263.107 110.453 275.816 103.086 279.648C96.0952 283.283 84.9714 277.212 81.0463 270.382L2.54291 67.609C-1.55506 60.5221 -0.878646 48.5676 5.92991 44.0354Z" fill="url(#paint16_linear_808_1803)"/>
<path d="M99.9562 258.787L100.307 259.404C102.036 262.832 102.467 266.769 101.521 270.49C101.277 271.595 100.642 272.576 99.734 273.252C99.2819 273.451 98.7909 273.545 98.2973 273.528C96.1804 273.292 94.1363 272.616 92.2956 271.545C90.455 270.475 88.8584 269.032 87.608 267.309L9.13428 64.6453L24.4992 60.0391L99.9562 258.787Z" fill="#F0F0FB"/>
<path d="M50.0794 240.693L29.2588 229.843L50.0794 216.389V240.693Z" fill="url(#paint17_linear_808_1803)"/>
<path d="M13.0348 53.8396C15.5851 53.2154 18.2775 53.5809 20.5685 54.8624C22.8594 56.1439 24.5783 58.2459 25.3781 60.744C26.5528 63.0867 26.7949 65.7872 26.0555 68.3011C25.3162 70.815 23.6503 72.9556 21.3937 74.2914C18.8434 74.9156 16.151 74.5501 13.8601 73.2686C11.5691 71.9871 9.85022 69.8851 9.05043 67.387C7.87573 65.0443 7.63367 62.3439 8.37304 59.8299C9.11241 57.316 10.7782 55.1755 13.0348 53.8396V53.8396Z" fill="#3531A1"/>
<path d="M20.6133 17.3893C21.9364 17.0352 23.3404 17.1372 24.5983 17.6787C25.8562 18.2202 26.8945 19.1697 27.5453 20.3735C28.1962 21.5774 28.4216 22.9654 28.1851 24.313C27.9485 25.6607 27.2639 26.8892 26.2418 27.8002C24.9187 28.1542 23.5148 28.0523 22.2569 27.5108C20.999 26.9692 19.9607 26.0198 19.3098 24.8159C18.6589 23.612 18.4335 22.2241 18.6701 20.8765C18.9066 19.5288 19.5912 18.3002 20.6133 17.3893Z" fill="#3531A1"/>
<path d="M210.182 120.906C211.151 120.144 212.331 119.698 213.562 119.628C214.794 119.559 216.017 119.869 217.066 120.517C218.115 121.165 218.939 122.12 219.426 123.251C219.914 124.383 220.041 125.637 219.791 126.843C219.541 128.05 218.926 129.15 218.028 129.995C217.131 130.841 215.995 131.39 214.775 131.569C213.555 131.748 212.309 131.547 211.207 130.995C210.104 130.443 209.198 129.565 208.612 128.481C207.859 127.256 207.603 125.791 207.894 124.383C208.186 122.976 209.004 121.732 210.182 120.906V120.906Z" fill="#3531A1"/>
<path d="M35.5688 224.344L72.1049 244.51C73.4679 242.428 75.5004 240.873 77.8672 240.1C80.2341 239.327 82.7939 239.383 85.1246 240.259L97.4136 247.025C100.257 248.592 102.627 250.891 104.277 253.685C105.927 256.478 106.796 259.662 106.795 262.905V290.775C106.795 295.76 105.713 302.053 94.4858 302.053L13.1336 249.106C11.8697 248.391 17.0835 232.309 17.0835 232.309L35.5688 224.344Z" fill="url(#paint18_linear_808_1803)"/>
<path d="M8.16183 229.034L28.8245 216.375H50.0796L30.7254 229.158L68.4168 249.964C68.5523 250.039 68.7049 250.077 68.8597 250.075C69.0144 250.073 69.1658 250.03 69.299 249.951C69.4322 249.873 69.5424 249.76 69.6189 249.626C69.6954 249.492 69.7355 249.34 69.7351 249.185C69.7347 248.167 70.0001 247.167 70.505 246.283C71.0099 245.398 71.7369 244.661 72.6142 244.143C73.4916 243.625 74.489 243.345 75.508 243.33C76.527 243.314 77.5323 243.565 78.4248 244.056L92.5702 251.838C95.4136 253.406 97.784 255.706 99.434 258.5C101.084 261.294 101.953 264.48 101.951 267.724V295.612C101.952 296.75 101.654 297.868 101.087 298.855C100.52 299.842 99.7042 300.663 98.7207 301.237C97.7372 301.81 96.6204 302.117 95.4814 302.125C94.3425 302.133 93.2213 301.843 92.2295 301.284L8.29514 253.939C7.67241 253.59 7.15429 253.08 6.79414 252.464C6.43399 251.848 6.24483 251.147 6.24615 250.433V232.486C6.24265 231.795 6.41699 231.115 6.75244 230.51C7.08789 229.906 7.5732 229.398 8.16183 229.034V229.034Z" fill="url(#paint19_linear_808_1803)"/>
<path d="M25.6447 238.557L55.5154 255.448C56.4091 255.941 57.1991 257.317 56.6658 258.195C56.2926 258.581 55.8018 258.832 55.2702 258.91C54.7387 258.988 54.1964 258.887 53.7281 258.624L23.7586 241.915C23.2856 241.66 22.9138 241.251 22.7047 240.756C22.4956 240.261 22.4615 239.71 22.6082 239.193C22.9377 238.72 23.4356 238.391 24 238.273C24.5644 238.154 25.1528 238.256 25.6447 238.557V238.557Z" fill="#1D1273"/>
<path d="M25.6449 246.764L55.5156 263.65C56.4093 264.143 57.1992 265.524 56.666 266.402C56.2917 266.786 55.8007 267.036 55.2694 267.113C54.7381 267.19 54.1963 267.089 53.7283 266.826L23.7588 250.117C23.2861 249.863 22.9146 249.455 22.7054 248.96C22.4962 248.466 22.462 247.916 22.6084 247.4C22.9371 246.926 23.435 246.596 23.9998 246.478C24.5646 246.359 25.1533 246.462 25.6449 246.764Z" fill="#1D1273"/>
<path d="M80.0589 256.08C83.0621 255.499 86.1742 256.002 88.8413 257.498C91.5083 258.995 93.5574 261.388 94.6239 264.251C95.6904 267.115 95.7051 270.264 94.6654 273.138C93.6257 276.011 91.599 278.423 88.946 279.944C85.9428 280.525 82.8307 280.022 80.1636 278.526C77.4966 277.03 75.4475 274.637 74.381 271.773C73.3145 268.909 73.2998 265.76 74.3395 262.887C75.3792 260.013 77.4059 257.601 80.0589 256.08V256.08Z" fill="#1D1273"/>
<path d="M81.1205 258.935C83.3538 258.641 85.6208 259.113 87.55 260.275C89.4792 261.436 90.9562 263.218 91.7389 265.328C92.5216 267.438 92.5636 269.75 91.8579 271.887C91.1523 274.024 89.7408 275.858 87.855 277.088C85.6208 277.385 83.3519 276.915 81.4205 275.755C79.4891 274.594 78.01 272.812 77.2259 270.702C76.4417 268.591 76.3991 266.277 77.105 264.139C77.8109 262 79.2233 260.165 81.1107 258.935H81.1205Z" fill="#3531A1"/>
<path d="M57.9494 31.159L176.539 97.4117C178.889 98.7433 180.982 102.343 179.556 104.627C178.576 105.635 177.289 106.291 175.897 106.493C174.505 106.694 173.085 106.43 171.858 105.741L52.9973 39.9671C51.7601 39.2944 50.7883 38.222 50.2411 36.9255C49.6939 35.629 49.6038 34.1852 49.9855 32.8309C50.8482 31.5891 52.1538 30.724 53.6347 30.4132C55.1155 30.1023 56.6593 30.3692 57.9494 31.159V31.159Z" fill="#F0F0FB"/>
<path d="M181.545 278.203V286.735L183.634 288.318L191.627 283.283L190.003 278.627L181.545 278.223V278.203Z" fill="url(#paint20_linear_808_1803)"/>
<path d="M260.779 276.847V285.384L258.691 286.962L250.697 281.902L252.322 277.246L260.779 276.842V276.847Z" fill="url(#paint21_linear_808_1803)"/>
<path d="M256.04 291.198L260.819 288.308L249.636 282.883L245.128 285.586C239.754 283.76 234.139 282.738 228.465 282.553L228.322 278.43H213.924L214.068 282.553C208.492 283.218 203.031 284.624 197.829 286.735L192.032 283.712L181.536 289.669L187.638 292.653C184.217 295.341 181.876 295.306 181.304 297.437L175.65 301.16V308.927H182.158C183.398 312.197 185.679 314.969 188.65 316.818L184.414 319.901L195.597 325.325L200.041 322.613C205.39 324.57 211.02 325.658 216.714 325.833L216.867 329.379H231.259L231.126 325.478C236.684 324.861 242.135 323.515 247.34 321.474L252.203 323.974L262.685 318.026L257.205 315.832C260.174 313.601 262.369 310.496 263.48 306.955L270.002 306.93V299.281L264.117 294.912C262.755 290.271 257.793 291.898 256.04 291.198ZM237.559 310.259C237.261 310.396 236.956 310.518 236.646 310.624C227.692 313.642 217.997 313.652 209.037 310.654C208.706 310.535 208.385 310.407 208.049 310.259C199.912 306.753 199.912 301.056 208.049 297.55C217.565 294.029 228.029 294.029 237.545 297.55C245.711 301.037 245.711 306.753 237.559 310.259Z" fill="#FF5A74"/>
<path d="M256.04 279.727L260.819 276.837L249.636 271.412L245.128 274.115C239.754 272.289 234.139 271.267 228.465 271.082L228.322 266.959H213.924L214.068 271.082C208.492 271.747 203.031 273.154 197.829 275.264L192.032 272.246L181.546 278.203L187.638 281.187C184.87 283.353 182.818 286.3 181.748 289.645L175.65 289.694V297.442H182.158C183.396 300.709 185.671 303.48 188.636 305.333L184.399 308.41L195.582 313.835L200.026 311.123C205.382 313.083 211.018 314.174 216.719 314.353L216.872 317.894H231.264L231.131 313.993C236.688 313.373 242.139 312.027 247.345 309.988L252.208 312.489L262.69 306.546L257.205 304.361C260.174 302.13 262.369 299.025 263.48 295.484H270.002V287.81L263.016 287.835C262.472 286.078 261.572 284.451 260.372 283.057C259.172 281.662 257.697 280.528 256.04 279.727V279.727ZM237.559 298.793C237.263 298.921 236.957 299.055 236.646 299.158C227.69 302.169 217.993 302.169 209.037 299.158C208.706 299.04 208.385 298.912 208.049 298.769C199.912 295.262 199.912 289.561 208.049 286.055C217.566 282.538 228.028 282.538 237.545 286.055C245.711 289.586 245.711 295.287 237.559 298.793Z" fill="url(#paint22_linear_808_1803)"/>
<path d="M216.862 317.913V329.384H231.25V317.913H216.862Z" fill="url(#paint23_linear_808_1803)"/>
<path d="M269.988 295.449V306.92H263.465V295.474H269.988V295.449Z" fill="url(#paint24_linear_808_1803)"/>
<path d="M252.198 312.508V323.979C255.803 322.198 259.303 320.212 262.68 318.032C262.406 314.215 262.406 310.383 262.68 306.565L252.198 312.508V312.508Z" fill="url(#paint25_linear_808_1803)"/>
<path d="M175.65 297.442C175.65 297.442 175.463 308.909 175.65 308.909H182.158V297.442H175.65Z" fill="url(#paint26_linear_808_1803)"/>
<path d="M195.597 313.859V325.331L184.414 319.906V308.435L195.597 313.859Z" fill="url(#paint27_linear_808_1803)"/>
<path d="M235.224 324.68H235.125C234.868 324.651 234.632 324.523 234.469 324.323C234.306 324.123 234.227 323.866 234.251 323.609L234.389 314.801C234.374 314.212 234.257 313.63 234.044 313.08L220.219 262.209C220.172 261.971 220.214 261.724 220.338 261.515C220.461 261.306 220.658 261.151 220.89 261.077C221.121 261.004 221.372 261.019 221.593 261.118C221.815 261.218 221.992 261.396 222.09 261.618L235.875 312.414C236.183 313.2 236.339 314.037 236.334 314.88L236.186 323.782C236.165 324.024 236.054 324.249 235.877 324.414C235.699 324.58 235.466 324.674 235.224 324.68V324.68Z" fill="#3531A1"/>
<path d="M203.482 273.562C203.279 273.557 203.082 273.49 202.919 273.369C202.755 273.249 202.633 273.081 202.569 272.888C202.504 272.696 202.501 272.488 202.56 272.294C202.618 272.099 202.735 271.927 202.894 271.802L204.686 270.455L219.735 261.164C219.936 261.038 220.175 260.988 220.409 261.023C220.643 261.058 220.857 261.176 221.011 261.355C221.166 261.534 221.25 261.763 221.25 262C221.25 262.236 221.164 262.465 221.009 262.644L205.911 271.974L204.074 273.355C203.905 273.487 203.697 273.56 203.482 273.562V273.562Z" fill="#3531A1"/>
<defs>
<linearGradient id="paint0_linear_808_1803" x1="216.506" y1="400.822" x2="396.791" y2="400.822" gradientUnits="userSpaceOnUse">
<stop stop-color="#C8D6F9"/>
<stop offset="1" stop-color="#BAC1E8"/>
</linearGradient>
<linearGradient id="paint1_linear_808_1803" x1="396.792" y1="395.3" x2="216.482" y2="395.3" gradientUnits="userSpaceOnUse">
<stop stop-color="#C8D6F9"/>
<stop offset="1" stop-color="#BAC1E8"/>
</linearGradient>
<linearGradient id="paint2_linear_808_1803" x1="5932.4" y1="230.765" x2="5949.99" y2="230.765" gradientUnits="userSpaceOnUse">
<stop stop-color="#FF6279"/>
<stop offset="1" stop-color="#FFAD60"/>
</linearGradient>
<linearGradient id="paint3_linear_808_1803" x1="-121.24" y1="262.433" x2="-83.5448" y2="262.433" gradientUnits="userSpaceOnUse">
<stop stop-color="#F0F0FB"/>
<stop offset="1" stop-color="#D2D7F6"/>
</linearGradient>
<linearGradient id="paint4_linear_808_1803" x1="2619.74" y1="267.385" x2="2645.93" y2="267.385" gradientUnits="userSpaceOnUse">
<stop stop-color="#FF6279"/>
<stop offset="1" stop-color="#FFAD60"/>
</linearGradient>
<linearGradient id="paint5_linear_808_1803" x1="2652.93" y1="267.656" x2="2664.22" y2="267.656" gradientUnits="userSpaceOnUse">
<stop stop-color="#FF6279"/>
<stop offset="1" stop-color="#FFAD60"/>
</linearGradient>
<linearGradient id="paint6_linear_808_1803" x1="5782.85" y1="-87.0067" x2="5756.46" y2="-86.7299" gradientUnits="userSpaceOnUse">
<stop stop-color="#F0F0FB"/>
<stop offset="1" stop-color="#D2D7F6"/>
</linearGradient>
<linearGradient id="paint7_linear_808_1803" x1="4754.79" y1="-1083.6" x2="4728.63" y2="-1080.29" gradientUnits="userSpaceOnUse">
<stop stop-color="#F0F0FB"/>
<stop offset="1" stop-color="#D2D7F6"/>
</linearGradient>
<linearGradient id="paint8_linear_808_1803" x1="32.9653" y1="310.813" x2="155.303" y2="310.813" gradientUnits="userSpaceOnUse">
<stop stop-color="#C8D6F9"/>
<stop offset="1" stop-color="#BAC1E8"/>
</linearGradient>
<linearGradient id="paint9_linear_808_1803" x1="49.3267" y1="288.655" x2="139.707" y2="288.655" gradientUnits="userSpaceOnUse">
<stop stop-color="#F0F0FB"/>
<stop offset="1" stop-color="#D2D7F6"/>
</linearGradient>
<linearGradient id="paint10_linear_808_1803" x1="36.5693" y1="252.517" x2="130.449" y2="252.517" gradientUnits="userSpaceOnUse">
<stop stop-color="#F0F0FB"/>
<stop offset="1" stop-color="#D2D7F6"/>
</linearGradient>
<linearGradient id="paint11_linear_808_1803" x1="29.8711" y1="248.579" x2="125.581" y2="248.579" gradientUnits="userSpaceOnUse">
<stop stop-color="#C8D6F9"/>
<stop offset="1" stop-color="#BAC1E8"/>
</linearGradient>
<linearGradient id="paint12_linear_808_1803" x1="5.42627" y1="155.395" x2="119.947" y2="155.395" gradientUnits="userSpaceOnUse">
<stop stop-color="#F0F0FB"/>
<stop offset="1" stop-color="#D2D7F6"/>
</linearGradient>
<linearGradient id="paint13_linear_808_1803" x1="2.67627" y1="64.7624" x2="232.322" y2="64.7624" gradientUnits="userSpaceOnUse">
<stop stop-color="#F0F0FB"/>
<stop offset="1" stop-color="#D2D7F6"/>
</linearGradient>
<linearGradient id="paint14_linear_808_1803" x1="214.477" y1="127.835" x2="227.526" y2="127.835" gradientUnits="userSpaceOnUse">
<stop stop-color="#C8D6F9"/>
<stop offset="1" stop-color="#BAC1E8"/>
</linearGradient>
<linearGradient id="paint15_linear_808_1803" x1="2.6665" y1="70.9449" x2="224.545" y2="70.9449" gradientUnits="userSpaceOnUse">
<stop stop-color="#C8D6F9"/>
<stop offset="1" stop-color="#BAC1E8"/>
</linearGradient>
<linearGradient id="paint16_linear_808_1803" x1="0.00341797" y1="160.995" x2="109.257" y2="160.995" gradientUnits="userSpaceOnUse">
<stop stop-color="#C8D6F9"/>
<stop offset="1" stop-color="#BAC1E8"/>
</linearGradient>
<linearGradient id="paint17_linear_808_1803" x1="29.2588" y1="228.541" x2="50.0795" y2="228.541" gradientUnits="userSpaceOnUse">
<stop stop-color="#C8D6F9"/>
<stop offset="1" stop-color="#BAC1E8"/>
</linearGradient>
<linearGradient id="paint18_linear_808_1803" x1="12.936" y1="263.199" x2="106.795" y2="263.199" gradientUnits="userSpaceOnUse">
<stop stop-color="#F0F0FB"/>
<stop offset="1" stop-color="#D2D7F6"/>
</linearGradient>
<linearGradient id="paint19_linear_808_1803" x1="6.24609" y1="259.25" x2="101.951" y2="259.25" gradientUnits="userSpaceOnUse">
<stop stop-color="#C8D6F9"/>
<stop offset="1" stop-color="#BAC1E8"/>
</linearGradient>
<linearGradient id="paint20_linear_808_1803" x1="181.545" y1="283.261" x2="191.627" y2="283.261" gradientUnits="userSpaceOnUse">
<stop stop-color="#FF6279"/>
<stop offset="1" stop-color="#FFAD60"/>
</linearGradient>
<linearGradient id="paint21_linear_808_1803" x1="250.697" y1="281.902" x2="260.779" y2="281.902" gradientUnits="userSpaceOnUse">
<stop stop-color="#FF6279"/>
<stop offset="1" stop-color="#FFAD60"/>
</linearGradient>
<linearGradient id="paint22_linear_808_1803" x1="175.65" y1="292.426" x2="270.002" y2="292.426" gradientUnits="userSpaceOnUse">
<stop stop-color="#FF6279"/>
<stop offset="1" stop-color="#FFAD60"/>
</linearGradient>
<linearGradient id="paint23_linear_808_1803" x1="216.862" y1="323.649" x2="231.25" y2="323.649" gradientUnits="userSpaceOnUse">
<stop stop-color="#FF6279"/>
<stop offset="1" stop-color="#FFAD60"/>
</linearGradient>
<linearGradient id="paint24_linear_808_1803" x1="263.465" y1="301.185" x2="269.988" y2="301.185" gradientUnits="userSpaceOnUse">
<stop stop-color="#FF6279"/>
<stop offset="1" stop-color="#FFAD60"/>
</linearGradient>
<linearGradient id="paint25_linear_808_1803" x1="252.198" y1="315.272" x2="262.68" y2="315.272" gradientUnits="userSpaceOnUse">
<stop stop-color="#FF6279"/>
<stop offset="1" stop-color="#FFAD60"/>
</linearGradient>
<linearGradient id="paint26_linear_808_1803" x1="175.567" y1="303.175" x2="182.158" y2="303.175" gradientUnits="userSpaceOnUse">
<stop stop-color="#FF6279"/>
<stop offset="1" stop-color="#FFAD60"/>
</linearGradient>
<linearGradient id="paint27_linear_808_1803" x1="184.414" y1="316.883" x2="195.597" y2="316.883" gradientUnits="userSpaceOnUse">
<stop stop-color="#FF6279"/>
<stop offset="1" stop-color="#FFAD60"/>
</linearGradient>
</defs>
</svg>
