<svg width="54" height="54" viewBox="0 0 54 54" fill="none" xmlns="http://www.w3.org/2000/svg">
<path d="M45.5625 0H8.4375C3.7776 0 0 3.7776 0 8.4375V45.5625C0 50.2224 3.7776 54 8.4375 54H45.5625C50.2224 54 54 50.2224 54 45.5625V8.4375C54 3.7776 50.2224 0 45.5625 0Z" fill="#1DA1F2"/>
<path d="M40.5 18.5625C39.4875 19.0687 38.475 19.2375 37.2938 19.4062C38.475 18.7313 39.3188 17.7187 39.6562 16.3687C38.6437 17.0437 37.4625 17.3813 36.1125 17.7188C35.1 16.7062 33.5812 16.0312 32.0625 16.0312C28.5188 16.0312 25.8188 19.4062 26.6625 22.7812C22.1062 22.6125 18.0563 20.4188 15.1875 17.0438C13.6688 19.575 14.5125 22.7812 16.875 24.4688C16.0312 24.4688 15.1875 24.1313 14.3438 23.7938C14.3438 26.325 16.2 28.6875 18.7313 29.3625C17.8875 29.5312 17.0438 29.7 16.2 29.5312C16.875 31.725 18.9 33.4125 21.4312 33.4125C19.4062 34.9312 16.3688 35.775 13.5 35.4375C16.0312 36.9562 18.9 37.9688 21.9375 37.9688C32.2313 37.9688 37.9687 29.3625 37.6312 21.4312C38.8125 20.7562 39.825 19.7438 40.5 18.5625Z" fill="white"/>
</svg>
