<svg width="293" height="371" viewBox="0 0 293 371" fill="none" xmlns="http://www.w3.org/2000/svg">
<path d="M292.29 84.9199L279.404 77.8633V110.658L292.29 117.715V84.9199Z" fill="#C9294D"/>
<path d="M106.8 85.2216L93.9141 78.1802V110.975L106.8 118.017V85.2216Z" fill="#C9294D"/>
<path d="M106.8 316.038L93.9292 308.997V341.776L106.815 348.833L106.8 316.038Z" fill="#C9294D"/>
<path d="M260.693 127.893C256.315 134.376 253.24 141.648 251.64 149.304C249.772 160.591 249.039 172.037 249.452 183.471C249.704 194.577 248.921 205.682 247.113 216.643C245.444 224.654 242.38 232.309 238.06 239.26C233.461 246.744 227.844 253.554 221.371 259.495C212.534 267.227 203.02 274.151 192.943 280.182L185.67 284.706V251.79C192.556 247.837 199.018 243.188 204.954 237.918C207.717 235.138 209.974 231.898 211.624 228.343C213.284 223.868 214.028 219.104 213.811 214.336C213.811 210.124 214.133 200.228 214.777 184.647C215.115 175.851 216.312 167.109 218.353 158.547C220.141 151.551 222.792 144.805 226.245 138.463C230.027 131.655 234.464 125.231 239.493 119.283C234.798 119.492 230.127 118.512 225.913 116.433C222.554 114.152 219.987 110.886 218.565 107.085C216.262 100.73 215.053 94.0307 214.988 87.2721C214.174 71.6813 213.766 61.0061 213.766 55.2462C214.222 51.5444 213.498 47.7934 211.699 44.5257C210.844 43.7615 209.797 43.2428 208.671 43.0251C207.544 42.8074 206.38 42.8988 205.301 43.2893C198.378 46.0405 191.795 49.5822 185.685 53.8439V21.0942L192.958 16.5707C201.239 11.0069 210.079 6.32229 219.334 2.59323C225.271 0.0786578 231.851 -0.496478 238.135 0.949808C240.447 1.94219 242.474 3.49659 244.032 5.47169C245.589 7.4468 246.628 9.77989 247.053 12.2584C249.194 23.9917 250.029 35.9259 249.542 47.8429C249.343 55.2681 249.706 62.6977 250.629 70.0681C251.072 74.3281 252.852 78.3389 255.714 81.5274C256.857 82.6523 258.249 83.4923 259.777 83.9795C261.305 84.4668 262.927 84.5876 264.511 84.332C269.866 83.0605 274.967 80.8939 279.6 77.9237V110.869C272.36 115.409 265.963 121.169 260.693 127.893V127.893Z" fill="#C9294D"/>
<path d="M-0.000222187 252.167C7.21098 247.569 13.576 241.765 18.8158 235.008C23.2612 228.528 26.3886 221.237 28.0201 213.552C29.7675 202.287 30.4546 190.883 30.0723 179.49C29.8087 168.352 30.6121 157.214 32.4714 146.228C34.1788 138.196 37.2402 130.512 41.5248 123.505C46.0605 116.019 51.6504 109.225 58.1228 103.33C66.9623 95.6303 76.4709 88.7324 86.5355 82.7186L93.8235 78.1953V110.99C86.6939 115.068 79.9999 119.862 73.8456 125.299C71.2125 127.883 69.1108 130.956 67.6591 134.346C66.2664 139.185 65.6402 144.211 65.8032 149.243C65.3505 171.308 64.6212 185.848 63.6152 192.865C62.1873 202.778 59.2193 212.409 54.8183 221.408C50.5916 229.251 45.6248 236.673 39.9857 243.572C44.4137 243.171 48.8651 244.028 52.8266 246.045C56.4587 248.28 59.2776 251.62 60.869 255.575C63.2911 262.153 64.5472 269.102 64.5809 276.111C65.3052 291.39 65.6875 301.809 65.7277 307.368C65.2949 311.032 66.0682 314.737 67.9307 317.923C68.8429 318.683 69.9371 319.194 71.1061 319.406C72.2751 319.617 73.479 319.522 74.6001 319.129C81.4059 316.566 87.8639 313.162 93.8235 308.997V341.912L86.5506 346.436C78.2677 351.996 69.4282 356.681 60.1749 360.413C54.1975 362.969 47.5656 363.576 41.2231 362.147C38.9069 361.136 36.882 359.559 35.3344 357.562C33.7868 355.565 32.7661 353.212 32.3658 350.718C30.3071 338.944 29.5029 326.986 29.9666 315.043C30.1643 307.658 29.8011 300.268 28.8802 292.938C28.3395 288.708 26.542 284.738 23.7198 281.539C22.608 280.395 21.2348 279.538 19.7182 279.042C18.2016 278.545 16.587 278.424 15.0134 278.69C9.65313 279.945 4.54899 282.113 -0.0756836 285.098L-0.000222187 252.167Z" fill="#C9294D"/>
<path d="M273.579 134.95C269.193 141.423 266.117 148.692 264.526 156.346C262.644 167.637 261.906 179.089 262.323 190.528C262.576 201.634 261.793 212.739 259.984 223.7C258.325 231.713 255.26 239.371 250.931 246.317C246.331 253.796 240.715 260.601 234.242 266.537C225.404 274.261 215.896 281.184 205.829 287.224L198.541 291.747V258.817C205.435 254.857 211.902 250.198 217.84 244.915C220.597 242.144 222.848 238.914 224.495 235.37C226.161 230.896 226.91 226.132 226.698 221.363C226.698 217.151 227.014 207.255 227.648 191.674C227.991 182.878 229.189 174.137 231.224 165.573C233.017 158.572 235.673 151.821 239.131 145.474C242.912 138.674 247.344 132.256 252.364 126.31C247.644 126.513 242.948 125.528 238.708 123.445C235.35 121.164 232.782 117.898 231.36 114.097C229.062 107.746 227.858 101.052 227.799 94.2989C226.964 78.7081 226.552 68.0328 226.562 62.273C227.021 58.571 226.298 54.8187 224.495 51.5524C223.646 50.7822 222.602 50.2595 221.476 50.0415C220.351 49.8235 219.187 49.9185 218.112 50.316C211.185 53.0601 204.602 56.6022 198.496 60.8707V28.0908L205.784 23.5673C214.057 17.9984 222.892 13.3135 232.145 9.58984C238.081 7.05256 244.674 6.4766 250.961 7.94618C253.273 8.93857 255.3 10.4932 256.858 12.4683C258.415 14.4434 259.454 16.7763 259.878 19.2548C262.005 30.9849 262.835 42.9131 262.353 54.8243C262.147 62.25 262.515 69.6805 263.454 77.0495C263.887 81.308 265.668 85.3175 268.54 88.4939C269.675 89.6263 271.063 90.4725 272.59 90.9628C274.117 91.4531 275.739 91.5732 277.321 91.3134C282.679 90.0572 287.782 87.8951 292.41 84.9203V117.851C285.189 122.417 278.817 128.203 273.579 134.95V134.95Z" fill="url(#paint0_linear_808_2171)"/>
<path d="M12.8857 259.224C20.097 254.625 26.4577 248.815 31.6866 242.05C36.147 235.583 39.2758 228.295 40.891 220.608C42.6394 209.334 43.3264 197.92 42.9431 186.517C42.6851 175.378 43.4935 164.24 45.3573 153.254C47.0638 145.231 50.1253 137.557 54.4108 130.562C58.9452 123.071 64.5352 116.271 71.0087 110.372C79.8616 102.682 89.3742 95.7849 99.4365 89.7603L106.709 85.2368V118.017C99.5905 122.115 92.9025 126.919 86.7466 132.356C84.0954 134.953 81.9919 138.055 80.5601 141.478C79.1569 146.31 78.5304 151.333 78.7041 156.36C78.2515 178.415 77.5171 192.96 76.5011 199.997C75.0667 209.907 72.1043 219.536 67.7193 228.54C63.4892 236.371 58.5226 243.783 52.8867 250.674C57.316 250.28 61.7668 251.142 65.7275 253.162C69.3593 255.4 72.1739 258.747 73.7549 262.707C76.1898 269.276 77.4463 276.223 77.4668 283.228C78.2012 298.507 78.5884 308.926 78.6287 314.485C78.1858 318.149 78.9598 321.858 80.8317 325.04C81.7423 325.798 82.8346 326.306 84.0012 326.515C85.1678 326.724 86.3687 326.626 87.486 326.231C94.2963 323.678 100.756 320.274 106.709 316.099V349.029L99.4365 353.553C91.1662 359.121 82.3303 363.801 73.0759 367.515C67.1053 370.096 60.4668 370.709 54.124 369.264C51.8098 368.254 49.7862 366.68 48.2388 364.686C46.6913 362.691 45.6694 360.341 45.2668 357.85C43.2009 346.072 42.3916 334.108 42.8526 322.16C43.0664 314.771 42.7183 307.377 41.8114 300.04C41.2734 295.81 39.4755 291.838 36.651 288.641C35.5422 287.492 34.1698 286.631 32.6527 286.132C31.1356 285.633 29.5195 285.511 27.9445 285.776C22.5826 287.027 17.4776 289.195 12.8555 292.185L12.8857 259.224Z" fill="url(#paint1_linear_808_2171)"/>
<path d="M198.391 28.1054L185.52 21.0488V53.8439L198.391 60.9005V28.1054Z" fill="url(#paint2_linear_808_2171)"/>
<path d="M198.391 258.892L185.52 251.835V284.781L198.391 291.823V258.892Z" fill="url(#paint3_linear_808_2171)"/>
<path d="M12.9158 259.088L0.0297852 252.031V284.962L12.9158 292.019V259.088Z" fill="url(#paint4_linear_808_2171)"/>
<defs>
<linearGradient id="paint0_linear_808_2171" x1="-61134" y1="149.449" x2="-61040.1" y2="149.449" gradientUnits="userSpaceOnUse">
<stop stop-color="#D82C53"/>
<stop offset="1" stop-color="#FF5774"/>
</linearGradient>
<linearGradient id="paint1_linear_808_2171" x1="-60919.4" y1="227.633" x2="-60825.4" y2="227.633" gradientUnits="userSpaceOnUse">
<stop stop-color="#D82C53"/>
<stop offset="1" stop-color="#FF5774"/>
</linearGradient>
<linearGradient id="paint2_linear_808_2171" x1="185.52" y1="40.9747" x2="198.391" y2="40.9747" gradientUnits="userSpaceOnUse">
<stop stop-color="#D82C53"/>
<stop offset="1" stop-color="#FF5774"/>
</linearGradient>
<linearGradient id="paint3_linear_808_2171" x1="185.52" y1="271.829" x2="198.391" y2="271.829" gradientUnits="userSpaceOnUse">
<stop stop-color="#D82C53"/>
<stop offset="1" stop-color="#FF5774"/>
</linearGradient>
<linearGradient id="paint4_linear_808_2171" x1="0.0297852" y1="272.025" x2="12.9158" y2="272.025" gradientUnits="userSpaceOnUse">
<stop stop-color="#D82C53"/>
<stop offset="1" stop-color="#FF5774"/>
</linearGradient>
</defs>
</svg>
